{
.appVersion = "3075";
classes = (
{
automatic = 1;

glyphs = (
{
color = 1;
glyphname = A;
lastChange = "2021-03-07 19:58:54 +0000";
layers = (
{
anchors = (
{
name = bottom;
position = "{288, 0}";
},
{
name = ogonek;
position = "{537, 0}";
},
{
name = top;
position = "{288, 697}";
}
);
layerId = "F91D9E91-C1BC-4259-B0D8-112C0CBA2B8E";
paths = (
{
closed = 1;
nodes = (
"51 0 LINE",
"288 691 LINE",
"525 0 LINE",
"537 0 LINE",
"297 697 LINE",
"278 697 LINE",
"39 0 LINE"
);
},
{
closed = 1;
nodes = (
"458 215 LINE",
"454 225 LINE",
"122 225 LINE",
"118 215 LINE"
);
}
);
width = 576;
},
{
anchors = (
{
name = bottom;
position = "{350, 0}";
},
{
name = ogonek;
position = "{676, 0}";
},
{
name = top;
position = "{350, 697}";
}
);
layerId = "957254E3-B7AD-4837-9092-D4428001DE8E";
paths = (
{
closed = 1;
nodes = (
"173 0 LINE",
"350 463 LINE",
"525 0 LINE",
"696 0 LINE",
"407 697 LINE",
"292 697 LINE",
"2 0 LINE"
);
},
{
closed = 1;
nodes = (
"491 118 LINE",
"440 258 LINE",
"259 258 LINE",
"210 118 LINE"
);
}
);
width = 698;
},
{
anchors = (
{
name = bottom;
position = "{319, 0}";
},
{
name = ogonek;
position = "{608, 0}";
},
{
name = top;
position = "{319, 697}";
}
);
layerId = m003;
paths = (
{
closed = 1;
nodes = (
"114 0 LINE",
"319 571 LINE",
"523 0 LINE",
"619 0 LINE",
"353 697 LINE",
"283 697 LINE",
"17 0 LINE"
);
},
{
closed = 1;
nodes = (
"473 164 LINE",
"444 243 LINE",
"192 243 LINE",
"165 164 LINE"
);
}
);
width = 637;
}
);
leftKerningGroup = A;
note = A;
rightKerningGroup = A;
unicode = 0041;
},
{
color = 1;
glyphname = AE;
lastChange = "2021-03-07 19:58:54 +0000";
layers = (
{
anchors = (
{
name = bottom;
position = "{417, 0}";
},
{
name = top;
position = "{417, 697}";
}
);
layerId = "F91D9E91-C1BC-4259-B0D8-112C0CBA2B8E";
paths = (
{
closed = 1;
nodes = (
"51 0 LINE",
"287 687 LINE",
"375 687 LINE",
"375 0 LINE",
"793 0 LINE",
"793 10 LINE",
"386 10 LINE",
"386 346 LINE",
"738 346 LINE",
"738 357 LINE",
"386 357 LINE",
"386 687 LINE",
"793 687 LINE",
"793 697 LINE",
"278 697 LINE",
"39 0 LINE"
);
},
{
closed = 1;
nodes = (
"381 215 LINE",
"381 225 LINE",
"124 225 LINE",
"120 215 LINE"
);
}
);
width = 836;
},
{
anchors = (
{
name = bottom;
position = "{482, 0}";
},
{
name = top;
position = "{482, 697}";
}
);
layerId = "957254E3-B7AD-4837-9092-D4428001DE8E";
paths = (
{
closed = 1;
nodes = (
"173 0 LINE",
"385 559 LINE",
"413 559 LINE",
"413 0 LINE",
"903 0 LINE",
"903 140 LINE",
"571 140 LINE",
"571 278 LINE",
"864 278 LINE",
"864 418 LINE",
"571 418 LINE",
"571 557 LINE",
"903 557 LINE",
"903 697 LINE",
"291 697 LINE",
"2 0 LINE"
);
},
{
closed = 1;
nodes = (
"450 118 LINE",
"450 262 LINE",
"243 262 LINE",
"194 118 LINE"
);
}
);
width = 949;
},
{
anchors = (
{
name = bottom;
position = "{449, 0}";
},
{
name = top;
position = "{449, 697}";
}
);
layerId = m003;
paths = (
{
closed = 1;
nodes = (
"114 0 LINE",
"337 620 LINE",
"393 620 LINE",
"393 0 LINE",
"849 0 LINE",
"849 79 LINE",
"482 79 LINE",
"482 310 LINE",
"802 310 LINE",
"802 390 LINE",
"482 390 LINE",
"482 618 LINE",
"849 618 LINE",
"849 697 LINE",
"283 697 LINE",
"17 0 LINE"
);
},
{
closed = 1;
nodes = (
"415 164 LINE",
"415 245 LINE",
"185 245 LINE",
"157 164 LINE"
);
}
);
width = 896;
}
);
leftKerningGroup = A;
leftMetricsKey = "=A";
note = AE;
rightKerningGroup = E;
rightMetricsKey = "=E";
unicode = 00C6;
},
{
color = 1;
glyphname = B;
lastChange = "2021-03-07 19:58:54 +0000";
layers = (
{
anchors = (
{
name = bottom;
position = "{281, 0}";
},
{
name = top;
position = "{281, 697}";
}
);
layerId = "F91D9E91-C1BC-4259-B0D8-112C0CBA2B8E";
paths = (
{
closed = 1;
nodes = (
"290 0 LINE SMOOTH",
"433 0 OFFCURVE",
"507 62 OFFCURVE",
"507 184 CURVE SMOOTH",
"507 287 OFFCURVE",
"454 353 OFFCURVE",
"363 365 CURVE",
"433 387 OFFCURVE",
"474 446 OFFCURVE",
"474 526 CURVE SMOOTH",
"474 634 OFFCURVE",
"402 697 OFFCURVE",
"280 697 CURVE SMOOTH",
"99 697 LINE",
"99 0 LINE"
);
},
{
closed = 1;
nodes = (
"109 357 LINE",
"331 357 LINE SMOOTH",
"436 357 OFFCURVE",
"497 293 OFFCURVE",
"497 184 CURVE SMOOTH",
"497 68 OFFCURVE",
"428 10 OFFCURVE",
"290 10 CURVE SMOOTH",
"109 10 LINE"
);
},
{
closed = 1;
nodes = (
"109 687 LINE",
"280 687 LINE SMOOTH",
"397 687 OFFCURVE",
"464 628 OFFCURVE",
"464 526 CURVE SMOOTH",
"464 430 OFFCURVE",
"403 367 OFFCURVE",
"310 367 CURVE SMOOTH",
"109 367 LINE"
);
}
);
width = 580;
},
{
anchors = (
{
name = bottom;
position = "{298, 0}";
},
{
name = top;
position = "{298, 697}";
}
);
layerId = "957254E3-B7AD-4837-9092-D4428001DE8E";
paths = (
{
closed = 1;
nodes = (
"356 0 LINE SMOOTH",
"498 0 OFFCURVE",
"586 80 OFFCURVE",
"586 209 CURVE SMOOTH",
"586 290 OFFCURVE",
"553 347 OFFCURVE",
"480 379 CURVE",
"523 409 OFFCURVE",
"548 459 OFFCURVE",
"548 520 CURVE SMOOTH",
"548 630 OFFCURVE",
"462 697 OFFCURVE",
"319 697 CURVE SMOOTH",
"59 697 LINE",
"59 0 LINE"
);
},
{
closed = 1;
nodes = (
"216 289 LINE",
"343 289 LINE SMOOTH",
"398 289 OFFCURVE",
"429 263 OFFCURVE",
"429 216 CURVE SMOOTH",
"429 168 OFFCURVE",
"401 144 OFFCURVE",
"343 144 CURVE SMOOTH",
"216 144 LINE"
);
},
{
closed = 1;
nodes = (
"216 553 LINE",
"319 553 LINE SMOOTH",
"365 553 OFFCURVE",
"391 532 OFFCURVE",
"391 495 CURVE SMOOTH",
"391 453 OFFCURVE",
"364 429 OFFCURVE",
"319 429 CURVE SMOOTH",
"216 429 LINE"
);
}
);
width = 618;
},
{
anchors = (
{
name = bottom;
position = "{292, 0}";
},
{
name = top;
position = "{292, 697}";
}
);
layerId = m003;
paths = (
{
closed = 1;
nodes = (
"326 0 LINE SMOOTH",
"469 0 OFFCURVE",
"550 72 OFFCURVE",
"550 197 CURVE SMOOTH",
"550 289 OFFCURVE",
"507 350 OFFCURVE",
"426 373 CURVE",
"482 399 OFFCURVE",
"514 454 OFFCURVE",
"514 523 CURVE SMOOTH",
"514 632 OFFCURVE",
"434 697 OFFCURVE",
"302 697 CURVE SMOOTH",
"79 697 LINE",
"79 0 LINE"
);
},
{
closed = 1;
nodes = (
"167 321 LINE",
"339 321 LINE SMOOTH",
"417 321 OFFCURVE",
"463 277 OFFCURVE",
"463 201 CURVE SMOOTH",
"463 121 OFFCURVE",
"415 81 OFFCURVE",
"320 81 CURVE SMOOTH",
"167 81 LINE"
);
},
{
closed = 1;
nodes = (
"167 616 LINE",
"302 616 LINE SMOOTH",
"381 616 OFFCURVE",
"427 577 OFFCURVE",
"427 510 CURVE SMOOTH",
"427 442 OFFCURVE",
"383 400 OFFCURVE",
"316 400 CURVE SMOOTH",
"167 400 LINE"
);
}
);
width = 601;
}
);
leftKerningGroup = B;
leftMetricsKey = "=I";
note = B;
rightKerningGroup = B;
unicode = 0042;
},
{
color = 1;
glyphname = C;
lastChange = "2021-03-07 19:58:54 +0000";
layers = (
{
anchors = (
{
name = bottom;
position = "{369, 0}";
},
{
name = top;
position = "{369, 697}";
}
);
layerId = "F91D9E91-C1BC-4259-B0D8-112C0CBA2B8E";
paths = (
{
closed = 1;
nodes = (
"499 -5 OFFCURVE",
"595 61 OFFCURVE",
"638 170 CURVE",
"629 174 LINE",
"587 67 OFFCURVE",
"496 5 OFFCURVE",
"373 5 CURVE SMOOTH",
"194 5 OFFCURVE",
"81 139 OFFCURVE",
"81 349 CURVE SMOOTH",
"81 557 OFFCURVE",
"194 692 OFFCURVE",
"373 692 CURVE SMOOTH",
"496 692 OFFCURVE",
"587 630 OFFCURVE",
"629 523 CURVE",
"638 527 LINE",
"595 636 OFFCURVE",
"499 702 OFFCURVE",
"373 702 CURVE SMOOTH",
"190 702 OFFCURVE",
"71 563 OFFCURVE",
"71 349 CURVE SMOOTH",
"71 134 OFFCURVE",
"190 -5 OFFCURVE",
"373 -5 CURVE SMOOTH"
);
}
);
width = 695;
},
{
anchors = (
{
name = bottom;
position = "{356, 0}";
},
{
name = top;
position = "{356, 697}";
}
);
layerId = "957254E3-B7AD-4837-9092-D4428001DE8E";
paths = (
{
closed = 1;
nodes = (
"526 -18 OFFCURVE",
"642 64 OFFCURVE",
"690 198 CURVE",
"542 251 LINE",
"515 176 OFFCURVE",
"455 132 OFFCURVE",
"373 132 CURVE SMOOTH",
"261 132 OFFCURVE",
"189 213 OFFCURVE",
"189 349 CURVE SMOOTH",
"189 484 OFFCURVE",
"261 565 OFFCURVE",
"373 565 CURVE SMOOTH",
"455 565 OFFCURVE",
"515 521 OFFCURVE",
"542 446 CURVE",
"690 499 LINE",
"642 633 OFFCURVE",
"526 715 OFFCURVE",
"373 715 CURVE SMOOTH",
"171 715 OFFCURVE",
"32 568 OFFCURVE",
"32 349 CURVE SMOOTH",
"32 129 OFFCURVE",
"171 -18 OFFCURVE",
"373 -18 CURVE SMOOTH"
);
}
);
width = 713;
},
{
anchors = (
{
name = bottom;
position = "{361, 0}";
},
{
name = top;
position = "{361, 697}";
}
);
layerId = m003;
paths = (
{
closed = 1;
nodes = (
"512 -12 OFFCURVE",
"619 63 OFFCURVE",
"665 185 CURVE",
"583 215 LINE",
"548 125 OFFCURVE",
"474 72 OFFCURVE",
"372 72 CURVE SMOOTH",
"229 72 OFFCURVE",
"138 179 OFFCURVE",
"138 349 CURVE SMOOTH",
"138 518 OFFCURVE",
"229 625 OFFCURVE",
"372 625 CURVE SMOOTH",
"474 625 OFFCURVE",
"548 572 OFFCURVE",
"583 482 CURVE",
"665 513 LINE",
"619 635 OFFCURVE",
"512 709 OFFCURVE",
"372 709 CURVE SMOOTH",
"179 709 OFFCURVE",
"50 565 OFFCURVE",
"50 349 CURVE SMOOTH",
"50 132 OFFCURVE",
"180 -12 OFFCURVE",
"372 -12 CURVE SMOOTH"
);
}
);
width = 704;
}
);
leftKerningGroup = C;
leftMetricsKey = O;
note = C;
rightKerningGroup = C;
unicode = 0043;
},
{
color = 1;
glyphname = D;
lastChange = "2021-03-07 19:58:54 +0000";
layers = (
{
anchors = (
{
name = bottom;
position = "{339, 0}";
},
{
name = center;
position = "{135, 349}";
},
{
name = top;
position = "{339, 697}";
}
);
layerId = "F91D9E91-C1BC-4259-B0D8-112C0CBA2B8E";
paths = (
{
closed = 1;
nodes = (
"272 0 LINE SMOOTH",
"498 0 OFFCURVE",
"622 122 OFFCURVE",
"622 343 CURVE SMOOTH",
"622 568 OFFCURVE",
"495 697 OFFCURVE",
"273 697 CURVE SMOOTH",
"99 697 LINE",
"99 0 LINE"
);
},
{
closed = 1;
nodes = (
"109 687 LINE",
"273 687 LINE SMOOTH",
"489 687 OFFCURVE",
"611 563 OFFCURVE",
"611 343 CURVE SMOOTH",
"611 127 OFFCURVE",
"492 10 OFFCURVE",
"272 10 CURVE SMOOTH",
"109 10 LINE"
);
}
);
width = 692;
},
{
anchors = (
{
name = bottom;
position = "{322, 0}";
},
{
name = center;
position = "{155, 349}";
},
{
name = top;
position = "{322, 697}";
}
);
layerId = "957254E3-B7AD-4837-9092-D4428001DE8E";
paths = (
{
closed = 1;
nodes = (
"268 0 LINE SMOOTH",
"506 0 OFFCURVE",
"636 121 OFFCURVE",
"636 343 CURVE SMOOTH",
"636 569 OFFCURVE",
"502 697 OFFCURVE",
"269 697 CURVE SMOOTH",
"59 697 LINE",
"59 0 LINE"
);
},
{
closed = 1;
nodes = (
"216 553 LINE",
"266 553 LINE SMOOTH",
"397 553 OFFCURVE",
"478 511 OFFCURVE",
"478 349 CURVE SMOOTH",
"478 181 OFFCURVE",
"394 144 OFFCURVE",
"252 144 CURVE SMOOTH",
"216 144 LINE"
);
}
);
width = 668;
},
{
anchors = (
{
name = bottom;
position = "{331, 0}";
},
{
name = center;
position = "{147, 349}";
},
{
name = top;
position = "{331, 697}";
}
);
layerId = m003;
paths = (
{
closed = 1;
nodes = (
"271 0 LINE SMOOTH",
"503 0 OFFCURVE",
"631 122 OFFCURVE",
"631 343 CURVE SMOOTH",
"631 568 OFFCURVE",
"500 697 OFFCURVE",
"272 697 CURVE SMOOTH",
"79 697 LINE",
"79 0 LINE"
);
},
{
closed = 1;
nodes = (
"167 616 LINE",
"271 616 LINE SMOOTH",
"441 616 OFFCURVE",
"542 535 OFFCURVE",
"542 346 CURVE SMOOTH",
"542 156 OFFCURVE",
"441 81 OFFCURVE",
"263 81 CURVE SMOOTH",
"167 81 LINE"
);
}
);
width = 682;
}
);
leftKerningGroup = D;
leftMetricsKey = "=I";
note = D;
rightKerningGroup = D;
unicode = 0044;
},
{
color = 1;
glyphname = E;
lastChange = "2021-03-07 19:58:54 +0000";
layers = (
{
anchors = (
{
name = bottom;
position = "{323, 0}";
},
{
name = ogonek;
position = "{547, 0}";
},
{
name = top;
position = "{323, 697}";
},
{
name = topleft;
position = "{-10, 697}";
}
);
layerId = "F91D9E91-C1BC-4259-B0D8-112C0CBA2B8E";
paths = (
{
closed = 1;
nodes = (
"547 0 LINE",
"547 10 LINE",
"109 10 LINE",
"109 346 LINE",
"492 346 LINE",
"492 356 LINE",
"109 356 LINE",
"109 687 LINE",
"547 687 LINE",
"547 697 LINE",
"99 697 LINE",
"99 0 LINE"
);
}
);
width = 590;
},
{
anchors = (
{
name = bottom;
position = "{293, 0}";
},
{
name = ogonek;
position = "{527, 0}";
},
{
name = top;
position = "{293, 697}";
},
{
name = topleft;
position = "{2, 697}";
}
);
layerId = "957254E3-B7AD-4837-9092-D4428001DE8E";
paths = (
{
closed = 1;
nodes = (
"527 0 LINE",
"527 140 LINE",
"216 140 LINE",
"216 289 LINE",
"512 289 LINE",
"512 429 LINE",
"216 429 LINE",
"216 557 LINE",
"527 557 LINE",
"527 697 LINE",
"59 697 LINE",
"59 0 LINE"
);
}
);
width = 573;
},
{
anchors = (
{
name = bottom;
position = "{309, 0}";
},
{
name = ogonek;
position = "{538, 0}";
},
{
name = top;
position = "{309, 697}";
},
{
name = topleft;
position = "{-3, 697}";
}
);
layerId = m003;
paths = (
{
closed = 1;
nodes = (
"538 0 LINE",
"538 79 LINE",
"167 79 LINE",
"167 316 LINE",
"504 316 LINE",
"504 395 LINE",
"167 395 LINE",
"167 618 LINE",
"538 618 LINE",
"538 697 LINE",
"79 697 LINE",
"79 0 LINE"
);
}
);
width = 585;
}
);
leftKerningGroup = E;
leftMetricsKey = "=I";
note = E;
rightKerningGroup = E;
unicode = 0045;
},
{
color = 1;
glyphname = F;
lastChange = "2021-03-07 19:58:54 +0000";
layers = (
{
anchors = (
{
name = bottom;
position = "{318, 0}";
},
{
name = top;
position = "{318, 697}";
}
);
layerId = "F91D9E91-C1BC-4259-B0D8-112C0CBA2B8E";
paths = (
{
closed = 1;
nodes = (
"109 0 LINE",
"109 346 LINE",
"482 346 LINE",
"482 356 LINE",
"109 356 LINE",
"109 687 LINE",
"537 687 LINE",
"537 697 LINE",
"99 697 LINE",
"99 0 LINE"
);
}
);
width = 573;
},
{
anchors = (
{
name = bottom;
position = "{282, 0}";
},
{
name = top;
position = "{282, 697}";
}
);
layerId = "957254E3-B7AD-4837-9092-D4428001DE8E";
paths = (
{
closed = 1;
nodes = (
"216 0 LINE",
"216 289 LINE",
"490 289 LINE",
"490 429 LINE",
"216 429 LINE",
"216 557 LINE",
"531 557 LINE",
"531 697 LINE",
"59 697 LINE",
"59 0 LINE"
);
}
);
width = 553;
},
{
anchors = (
{
name = bottom;
position = "{300, 0}";
},
{
name = top;
position = "{300, 697}";
}
);
layerId = m003;
paths = (
{
closed = 1;
nodes = (
"167 0 LINE",
"167 316 LINE",
"487 316 LINE",
"487 395 LINE",
"167 395 LINE",
"167 618 LINE",
"536 618 LINE",
"536 697 LINE",
"79 697 LINE",
"79 0 LINE"
);
}
);
width = 565;
}
);
leftKerningGroup = F;
leftMetricsKey = "=I";
note = F;
rightKerningGroup = F;
unicode = 0046;
},
{
color = 1;
glyphname = G;
lastChange = "2021-03-07 19:58:54 +0000";
layers = (
{
anchors = (
{
name = bottom;
position = "{373, 0}";
},
{
name = top;
position = "{373, 697}";
}
);
layerId = "F91D9E91-C1BC-4259-B0D8-112C0CBA2B8E";
paths = (
{
closed = 1;
nodes = (
"480 -5 OFFCURVE",
"596 43 OFFCURVE",
"629 179 CURVE",
"628 179 LINE",
"628 0 LINE",
"638 0 LINE",
"638 341 LINE",
"444 341 LINE",
"444 331 LINE",
"632 331 LINE",
"628 335 LINE",
"628 264 LINE SMOOTH",
"628 61 OFFCURVE",
"490 5 OFFCURVE",
"373 5 CURVE SMOOTH",
"194 5 OFFCURVE",
"81 139 OFFCURVE",
"81 349 CURVE SMOOTH",
"81 557 OFFCURVE",
"194 692 OFFCURVE",
"373 692 CURVE SMOOTH",
"496 692 OFFCURVE",
"587 630 OFFCURVE",
"629 523 CURVE",
"638 527 LINE",
"595 636 OFFCURVE",
"499 702 OFFCURVE",
"373 702 CURVE SMOOTH",
"190 702 OFFCURVE",
"71 563 OFFCURVE",
"71 349 CURVE SMOOTH",
"71 134 OFFCURVE",
"190 -5 OFFCURVE",
"373 -5 CURVE SMOOTH"
);
}
);
width = 721;
},
{
anchors = (
{
name = bottom;
position = "{373, 0}";
},
{
name = top;
position = "{373, 697}";
}
);
layerId = "957254E3-B7AD-4837-9092-D4428001DE8E";
paths = (
{
closed = 1;
nodes = (
"452 -18 OFFCURVE",
"518 17 OFFCURVE",
"557 76 CURVE",
"530 98 LINE",
"552 0 LINE",
"690 0 LINE",
"690 387 LINE",
"383 387 LINE",
"383 247 LINE",
"586 247 LINE",
"551 357 LINE",
"551 324 LINE SMOOTH",
"551 168 OFFCURVE",
"452 132 OFFCURVE",
"373 132 CURVE SMOOTH",
"261 132 OFFCURVE",
"189 213 OFFCURVE",
"189 349 CURVE SMOOTH",
"189 484 OFFCURVE",
"261 565 OFFCURVE",
"373 565 CURVE SMOOTH",
"455 565 OFFCURVE",
"515 521 OFFCURVE",
"542 446 CURVE",
"690 499 LINE",
"642 633 OFFCURVE",
"526 715 OFFCURVE",
"373 715 CURVE SMOOTH",
"171 715 OFFCURVE",
"32 568 OFFCURVE",
"32 349 CURVE SMOOTH",
"32 129 OFFCURVE",
"171 -18 OFFCURVE",
"363 -18 CURVE SMOOTH"
);
}
);
width = 738;
},
{
anchors = (
{
name = bottom;
position = "{372, 0}";
},
{
name = top;
position = "{372, 697}";
}
);
layerId = m003;
paths = (
{
closed = 1;
nodes = (
"463 -12 OFFCURVE",
"554 29 OFFCURVE",
"590 125 CURVE",
"575 136 LINE",
"587 0 LINE",
"665 0 LINE",
"665 366 LINE",
"411 366 LINE",
"411 287 LINE",
"607 287 LINE",
"587 347 LINE",
"587 296 LINE SMOOTH",
"587 118 OFFCURVE",
"469 72 OFFCURVE",
"372 72 CURVE SMOOTH",
"229 72 OFFCURVE",
"138 179 OFFCURVE",
"138 349 CURVE SMOOTH",
"138 518 OFFCURVE",
"229 625 OFFCURVE",
"372 625 CURVE SMOOTH",
"474 625 OFFCURVE",
"548 572 OFFCURVE",
"583 482 CURVE",
"665 513 LINE",
"619 635 OFFCURVE",
"512 709 OFFCURVE",
"372 709 CURVE SMOOTH",
"179 709 OFFCURVE",
"50 565 OFFCURVE",
"50 349 CURVE SMOOTH",
"50 132 OFFCURVE",
"179 -12 OFFCURVE",
"367 -12 CURVE SMOOTH"
);
}
);
width = 731;
}
);
leftKerningGroup = C;
leftMetricsKey = "=C";
note = G;
rightKerningGroup = G;
unicode = 0047;
},
{
color = 1;
glyphname = H;
lastChange = "2021-03-07 19:58:54 +0000";
layers = (
{
anchors = (
{
name = bottom;
position = "{323, 0}";
},
{
name = center;
position = "{323, 538}";
},
{
name = top;
position = "{323, 697}";
},
{
name = topleft;
position = "{-10, 697}";
}
);
layerId = "F91D9E91-C1BC-4259-B0D8-112C0CBA2B8E";
paths = (
{
closed = 1;
nodes = (
"109 0 LINE",
"109 347 LINE",
"536 347 LINE",
"536 0 LINE",
"546 0 LINE",
"546 697 LINE",
"536 697 LINE",
"536 358 LINE",
"109 358 LINE",
"109 697 LINE",
"99 697 LINE",
"99 0 LINE"
);
}
);
width = 646;
},
{
anchors = (
{
name = bottom;
position = "{353, 0}";
},
{
name = center;
position = "{352, 557}";
},
{
name = top;
position = "{352, 697}";
},
{
name = topleft;
position = "{2, 697}";
}
);
layerId = "957254E3-B7AD-4837-9092-D4428001DE8E";
paths = (
{
closed = 1;
nodes = (
"216 0 LINE",
"216 288 LINE",
"487 288 LINE",
"487 0 LINE",
"644 0 LINE",
"644 697 LINE",
"487 697 LINE",
"487 432 LINE",
"216 432 LINE",
"216 697 LINE",
"59 697 LINE",
"59 0 LINE"
);
}
);
width = 703;
},
{
anchors = (
{
name = bottom;
position = "{339, 0}";
},
{
name = center;
position = "{339, 545}";
},
{
name = top;
position = "{339, 697}";
},
{
name = topleft;
position = "{10, 697}";
}
);
layerId = m003;
paths = (
{
closed = 1;
nodes = (
"167 0 LINE",
"167 316 LINE",
"511 316 LINE",
"511 0 LINE",
"599 0 LINE",
"599 697 LINE",
"511 697 LINE",
"511 398 LINE",
"167 398 LINE",
"167 697 LINE",
"79 697 LINE",
"79 0 LINE"
);
}
);
width = 678;
}
);
leftKerningGroup = H;
leftMetricsKey = "=I";
note = H;
rightKerningGroup = H;
rightMetricsKey = "=I";
unicode = 0048;
},
{
color = 1;
glyphname = I;
lastChange = "2021-03-07 19:58:54 +0000";
layers = (
{
anchors = (
{
name = bottom;
position = "{104, 0}";
},
{
name = ogonek;
position = "{109, 0}";
},
{
name = top;
position = "{104, 697}";
},
{
name = topleft;
position = "{-10, 697}";
}
);
layerId = "F91D9E91-C1BC-4259-B0D8-112C0CBA2B8E";
paths = (
{
closed = 1;
nodes = (
"109 0 LINE",
"109 697 LINE",
"99 697 LINE",
"99 0 LINE"
);
}
);
width = 209;
},
{
anchors = (
{
name = bottom;
position = "{138, 0}";
},
{
name = ogonek;
position = "{216, 0}";
},
{
name = top;
position = "{138, 697}";
},
{
name = topleft;
position = "{2, 697}";
}
);
layerId = "957254E3-B7AD-4837-9092-D4428001DE8E";
paths = (
{
closed = 1;
nodes = (
"216 0 LINE",
"216 697 LINE",
"59 697 LINE",
"59 0 LINE"
);
}
);
width = 275;
},
{
anchors = (
{
name = bottom;
position = "{124, 0}";
},
{
name = ogonek;
position = "{167, 0}";
},
{
name = top;
position = "{124, 697}";
},
{
name = topleft;
position = "{-3, 697}";
}
);
layerId = m003;
paths = (
{
closed = 1;
nodes = (
"167 0 LINE",
"167 697 LINE",
"79 697 LINE",
"79 0 LINE"
);
}
);
width = 246;
}
);
leftKerningGroup = I;
note = I;
rightKerningGroup = H;
unicode = 0049;
},
{
color = 1;
glyphname = J;
lastChange = "2021-03-07 19:58:54 +0000";
layers = (
{
anchors = (
{
name = bottom;
position = "{279, 0}";
},
{
name = top;
position = "{299, 697}";
}
);
layerId = "F91D9E91-C1BC-4259-B0D8-112C0CBA2B8E";
paths = (
{
closed = 1;
nodes = (
"386 -5 OFFCURVE",
"456 85 OFFCURVE",
"456 257 CURVE SMOOTH",
"456 697 LINE",
"142 697 LINE",
"142 687 LINE",
"446 687 LINE",
"446 257 LINE SMOOTH",
"446 91 OFFCURVE",
"380 5 OFFCURVE",
"253 5 CURVE SMOOTH",
"138 5 OFFCURVE",
"62 75 OFFCURVE",
"54 190 CURVE",
"44 190 LINE",
"53 69 OFFCURVE",
"132 -5 OFFCURVE",
"253 -5 CURVE SMOOTH"
);
}
);
width = 549;
},
{
anchors = (
{
name = bottom;
position = "{290, 0}";
},
{
name = top;
position = "{300, 697}";
}
);
layerId = "957254E3-B7AD-4837-9092-D4428001DE8E";
paths = (
{
closed = 1;
nodes = (
"408 -18 OFFCURVE",
"504 81 OFFCURVE",
"504 238 CURVE SMOOTH",
"504 697 LINE",
"95 697 LINE",
"95 557 LINE",
"346 557 LINE",
"346 247 LINE SMOOTH",
"346 174 OFFCURVE",
"328 127 OFFCURVE",
"260 127 CURVE SMOOTH",
"202 127 OFFCURVE",
"176 158 OFFCURVE",
"171 242 CURVE",
"16 225 LINE",
"26 72 OFFCURVE",
"120 -18 OFFCURVE",
"260 -18 CURVE SMOOTH"
);
}
);
width = 558;
},
{
anchors = (
{
name = bottom;
position = "{284, 0}";
},
{
name = top;
position = "{298, 697}";
}
);
layerId = m003;
paths = (
{
closed = 1;
nodes = (
"397 -12 OFFCURVE",
"480 84 OFFCURVE",
"480 247 CURVE SMOOTH",
"480 697 LINE",
"116 697 LINE",
"116 618 LINE",
"392 618 LINE",
"392 252 LINE SMOOTH",
"392 135 OFFCURVE",
"351 70 OFFCURVE",
"256 70 CURVE SMOOTH",
"173 70 OFFCURVE",
"122 117 OFFCURVE",
"115 218 CURVE",
"28 209 LINE",
"37 71 OFFCURVE",
"126 -12 OFFCURVE",
"256 -12 CURVE SMOOTH"
);
}
);
width = 552;
}
);
leftKerningGroup = J;
note = J;
rightKerningGroup = J;
unicode = 004A;
},
{
color = 1;
glyphname = K;
lastChange = "2021-03-07 19:58:54 +0000";
layers = (
{
anchors = (
{
name = bottom;
position = "{289, 0}";
},
{
name = top;
position = "{289, 697}";
}
);
layerId = "F91D9E91-C1BC-4259-B0D8-112C0CBA2B8E";
paths = (
{
closed = 1;
nodes = (
"541 697 LINE",
"527 697 LINE",
"104 259 LINE",
"104 244 LINE"
);
},
{
closed = 1;
nodes = (
"109 0 LINE",
"109 697 LINE",
"99 697 LINE",
"99 0 LINE"
);
},
{
closed = 1;
nodes = (
"544 0 LINE",
"273 427 LINE",
"266 420 LINE",
"532 0 LINE"
);
}
);
width = 583;
},
{
anchors = (
{
name = bottom;
position = "{341, 0}";
},
{
name = top;
position = "{341, 697}";
}
);
layerId = "957254E3-B7AD-4837-9092-D4428001DE8E";
paths = (
{
closed = 1;
nodes = (
"675 697 LINE",
"464 697 LINE",
"185 400 LINE",
"185 202 LINE"
);
},
{
closed = 1;
nodes = (
"216 0 LINE",
"216 697 LINE",
"59 697 LINE",
"59 0 LINE"
);
},
{
closed = 1;
nodes = (
"677 0 LINE",
"398 444 LINE",
"281 335 LINE",
"491 0 LINE"
);
}
);
width = 682;
},
{
anchors = (
{
name = bottom;
position = "{318, 0}";
},
{
name = top;
position = "{318, 697}";
}
);
layerId = m003;
paths = (
{
closed = 1;
nodes = (
"613 697 LINE",
"495 697 LINE",
"148 334 LINE",
"148 222 LINE"
);
},
{
closed = 1;
nodes = (
"167 0 LINE",
"167 697 LINE",
"79 697 LINE",
"79 0 LINE"
);
},
{
closed = 1;
nodes = (
"615 0 LINE",
"341 436 LINE",
"275 375 LINE",
"512 0 LINE"
);
}
);
width = 634;
}
);
leftKerningGroup = K;
leftMetricsKey = "=I";
note = K;
rightKerningGroup = K;
unicode = 004B;
},
{
color = 1;
glyphname = L;
lastChange = "2021-03-07 19:58:54 +0000";
layers = (
{
anchors = (
{
name = bottom;
position = "{274, 0}";
},
{
name = center;
position = "{169, 379}";
},
{
name = top;
position = "{104, 697}";
},
{
name = topright;
position = "{385, 493}";
}
);
layerId = "F91D9E91-C1BC-4259-B0D8-112C0CBA2B8E";
paths = (
{
closed = 1;
nodes = (
"449 0 LINE",
"449 10 LINE",
"109 10 LINE",
"109 697 LINE",
"99 697 LINE",
"99 0 LINE"
);
}
);
width = 476;
},
{
anchors = (
{
name = bottom;
position = "{281, 0}";
},
{
name = center;
position = "{156, 323}";
},
{
name = top;
position = "{138, 697}";
},
{
name = topright;
position = "{432, 493}";
}
);
layerId = "957254E3-B7AD-4837-9092-D4428001DE8E";
paths = (
{
closed = 1;
nodes = (
"502 0 LINE",
"502 140 LINE",
"216 140 LINE",
"216 697 LINE",
"59 697 LINE",
"59 0 LINE"
);
}
);
width = 510;
},
{
anchors = (
{
name = bottom;
position = "{247, 0}";
},
{
name = center;
position = "{160, 349}";
},
{
name = top;
position = "{124, 697}";
},
{
name = topright;
position = "{411, 493}";
}
);
layerId = m003;
paths = (
{
closed = 1;
nodes = (
"479 0 LINE",
"479 79 LINE",
"167 79 LINE",
"167 697 LINE",
"79 697 LINE",
"79 0 LINE"
);
}
);
width = 495;
}
);
leftKerningGroup = L;
leftMetricsKey = "=I";
note = L;
rightKerningGroup = L;
unicode = 004C;
},
{
color = 1;
glyphname = M;
lastChange = "2021-03-07 19:58:54 +0000";
layers = (
{
anchors = (
{
name = bottom;
position = "{401, 0}";
},
{
name = top;
position = "{401, 697}";
}
);
layerId = "F91D9E91-C1BC-4259-B0D8-112C0CBA2B8E";
paths = (
{
closed = 1;
nodes = (
"109 0 LINE",
"109 687 LINE",
"111 687 LINE",
"395 54 LINE",
"406 54 LINE",
"690 687 LINE",
"692 687 LINE",
"692 0 LINE",
"702 0 LINE",
"702 697 LINE",
"684 697 LINE",
"399 61 LINE",
"403 61 LINE",
"117 697 LINE",
"99 697 LINE",
"99 0 LINE"
);
}
);
width = 802;
},
{
anchors = (
{
name = bottom;
position = "{434, 0}";
},
{
name = top;
position = "{434, 697}";
}
);
layerId = "957254E3-B7AD-4837-9092-D4428001DE8E";
paths = (
{
closed = 1;
nodes = (
"216 0 LINE",
"216 513 LINE",
"201 510 LINE",
"358 63 LINE",
"510 63 LINE",
"667 510 LINE",
"652 513 LINE",
"652 0 LINE",
"809 0 LINE",
"809 697 LINE",
"580 697 LINE",
"420 221 LINE",
"448 221 LINE",
"288 697 LINE",
"59 697 LINE",
"59 0 LINE"
);
}
);
width = 868;
},
{
anchors = (
{
name = bottom;
position = "{420, 0}";
},
{
name = top;
position = "{420, 697}";
}
);
layerId = m003;
paths = (
{
closed = 1;
nodes = (
"167 0 LINE",
"167 595 LINE",
"160 594 LINE",
"377 59 LINE",
"463 59 LINE",
"679 594 LINE",
"672 595 LINE",
"672 0 LINE",
"760 0 LINE",
"760 697 LINE",
"631 697 LINE",
"412 146 LINE",
"428 146 LINE",
"209 697 LINE",
"79 697 LINE",
"79 0 LINE"
);
}
);
width = 839;
}
);
leftKerningGroup = M;
leftMetricsKey = "=I";
note = M;
rightKerningGroup = H;
rightMetricsKey = "=I";
unicode = 004D;
},
{
color = 1;
glyphname = N;
lastChange = "2021-03-07 19:58:54 +0000";
layers = (
{
anchors = (
{
name = bottom;
position = "{314, 0}";
},
{
name = top;
position = "{314, 697}";
}
);
layerId = "F91D9E91-C1BC-4259-B0D8-112C0CBA2B8E";
paths = (
{
closed = 1;
nodes = (
"109 0 LINE",
"109 687 LINE",
"111 687 LINE",
"527 0 LINE",
"546 0 LINE",
"546 697 LINE",
"536 697 LINE",
"536 10 LINE",
"533 10 LINE",
"117 697 LINE",
"99 697 LINE",
"99 0 LINE"
);
}
);
width = 646;
},
{
anchors = (
{
name = bottom;
position = "{350, 0}";
},
{
name = top;
position = "{350, 697}";
}
);
layerId = "957254E3-B7AD-4837-9092-D4428001DE8E";
paths = (
{
closed = 1;
nodes = (
"216 0 LINE",
"216 492 LINE",
"176 492 LINE",
"478 0 LINE",
"639 0 LINE",
"639 697 LINE",
"482 697 LINE",
"482 206 LINE",
"523 206 LINE",
"219 697 LINE",
"59 697 LINE",
"59 0 LINE"
);
}
);
width = 698;
},
{
anchors = (
{
name = bottom;
position = "{334, 0}";
},
{
name = top;
position = "{334, 697}";
}
);
layerId = m003;
paths = (
{
closed = 1;
nodes = (
"167 0 LINE",
"167 584 LINE",
"147 584 LINE",
"502 0 LINE",
"597 0 LINE",
"597 697 LINE",
"509 697 LINE",
"509 114 LINE",
"529 114 LINE",
"172 697 LINE",
"79 697 LINE",
"79 0 LINE"
);
}
);
width = 676;
}
);
leftKerningGroup = N;
leftMetricsKey = "=I";
note = N;
rightKerningGroup = H;
rightMetricsKey = "=I";
unicode = 004E;
},
{
glyphname = Nhookleft;
lastChange = "2021-03-07 19:58:54 +0000";
layers = (
{
anchors = (
{
name = bottom;
position = "{314, 0}";
},
{
name = top;
position = "{314, 697}";
}
);
layerId = "F91D9E91-C1BC-4259-B0D8-112C0CBA2B8E";
paths = (
{
closed = 1;
nodes = (
"109 0 LINE",
"109 687 LINE",
"111 687 LINE",
"527 0 LINE",
"546 0 LINE",
"546 697 LINE",
"536 697 LINE",
"536 10 LINE",
"533 10 LINE",
"117 697 LINE",
"99 697 LINE",
"99 0 LINE"
);
},
{
closed = 1;
nodes = (
"71 -158 OFFCURVE",
"109 -109 OFFCURVE",
"109 -28 CURVE SMOOTH",
"109 0 LINE",
"99 0 LINE",
"99 -6 OFFCURVE",
"99 -14 OFFCURVE",
"99 -35 CURVE SMOOTH",
"99 -93 OFFCURVE",
"72 -147 OFFCURVE",
"-9 -147 CURVE",
"-9 -158 LINE"
);
}
);
width = 646;
},
{
anchors = (
{
name = bottom;
position = "{349, 0}";
},
{
name = top;
position = "{349, 697}";
}
);
layerId = "957254E3-B7AD-4837-9092-D4428001DE8E";
paths = (
{
closed = 1;
nodes = (
"216 0 LINE",
"216 475 LINE",
"180 475 LINE",
"478 0 LINE",
"639 0 LINE",
"639 697 LINE",
"482 697 LINE",
"482 225 LINE",
"518 225 LINE",
"219 697 LINE",
"59 697 LINE",
"59 0 LINE"
);
},
{
closed = 1;
nodes = (
"156 -189 OFFCURVE",
"216 -107 OFFCURVE",
"216 -26 CURVE SMOOTH",
"216 0 LINE",
"59 0 LINE",
"59 -16 OFFCURVE",
"59 -23 OFFCURVE",
"59 -31 CURVE SMOOTH",
"59 -54 OFFCURVE",
"43 -87 OFFCURVE",
"-9 -87 CURVE",
"-9 -189 LINE"
);
}
);
width = 698;
},
{
anchors = (
{
name = bottom;
position = "{334, 0}";
},
{
name = top;
position = "{334, 697}";
}
);
layerId = m003;
paths = (
{
closed = 1;
nodes = (
"167 0 LINE",
"167 575 LINE",
"149 575 LINE",
"502 0 LINE",
"597 0 LINE",
"597 697 LINE",
"509 697 LINE",
"509 124 LINE",
"526 124 LINE",
"172 697 LINE",
"79 697 LINE",
"79 0 LINE"
);
},
{
closed = 1;
nodes = (
"117 -175 OFFCURVE",
"167 -108 OFFCURVE",
"167 -27 CURVE SMOOTH",
"167 0 LINE",
"79 0 LINE",
"79 -12 OFFCURVE",
"79 -19 OFFCURVE",
"79 -33 CURVE SMOOTH",
"79 -73 OFFCURVE",
"58 -116 OFFCURVE",
"-8 -116 CURVE",
"-8 -175 LINE"
);
}
);
width = 676;
}
);
leftKerningGroup = N;
leftMetricsKey = "=I@200";
rightKerningGroup = H;
rightMetricsKey = "=I";
unicode = 019D;
},
{
color = 1;
glyphname = Eng;
lastChange = "2021-03-07 19:58:54 +0000";
layers = (
{
layerId = "F91D9E91-C1BC-4259-B0D8-112C0CBA2B8E";
paths = (
{
closed = 1;
nodes = (
"508 -158 OFFCURVE",
"546 -109 OFFCURVE",
"546 -28 CURVE SMOOTH",
"546 697 LINE",
"536 697 LINE",
"536 10 LINE",
"533 10 LINE",
"117 697 LINE",
"99 697 LINE",
"99 0 LINE",
"109 0 LINE",
"109 687 LINE",
"111 687 LINE",
"527 0 LINE SMOOTH",
"531 -7 OFFCURVE",
"536 -14 OFFCURVE",
"536 -35 CURVE SMOOTH",
"536 -93 OFFCURVE",
"509 -147 OFFCURVE",
"428 -147 CURVE SMOOTH",
"411 -147 OFFCURVE",
"381 -141 OFFCURVE",
"359 -132 CURVE",
"355 -142 LINE",
"377 -151 OFFCURVE",
"409 -158 OFFCURVE",
"428 -158 CURVE SMOOTH"
);
}
);
width = 646;
},
{
layerId = "957254E3-B7AD-4837-9092-D4428001DE8E";
paths = (
{
closed = 1;
nodes = (
"593 -189 OFFCURVE",
"639 -89 OFFCURVE",
"639 8 CURVE SMOOTH",
"639 697 LINE",
"482 697 LINE",
"482 225 LINE",
"518 225 LINE",
"219 697 LINE",
"59 697 LINE",
"59 0 LINE",
"216 0 LINE",
"216 475 LINE",
"180 475 LINE",
"478 0 LINE SMOOTH",
"488 -16 OFFCURVE",
"489 -31 OFFCURVE",
"489 -39 CURVE SMOOTH",
"489 -65 OFFCURVE",
"462 -87 OFFCURVE",
"410 -87 CURVE SMOOTH",
"401 -87 OFFCURVE",
"392 -87 OFFCURVE",
"383 -87 CURVE",
"383 -186 LINE",
"411 -189 OFFCURVE",
"431 -189 OFFCURVE",
"453 -189 CURVE SMOOTH"
);
}
);
width = 698;
},
{
layerId = m003;
paths = (
{
closed = 1;
nodes = (
"554 -175 OFFCURVE",
"597 -98 OFFCURVE",
"597 -9 CURVE SMOOTH",
"597 697 LINE",
"509 697 LINE",
"509 124 LINE",
"526 124 LINE",
"172 697 LINE",
"79 697 LINE",
"79 0 LINE",
"167 0 LINE",
"167 575 LINE",
"149 575 LINE",
"502 0 LINE SMOOTH",
"509 -12 OFFCURVE",
"512 -23 OFFCURVE",
"512 -37 CURVE SMOOTH",
"512 -79 OFFCURVE",
"485 -116 OFFCURVE",
"420 -116 CURVE SMOOTH",
"408 -116 OFFCURVE",
"388 -113 OFFCURVE",
"373 -108 CURVE",
"371 -166 LINE",
"397 -171 OFFCURVE",
"421 -175 OFFCURVE",
"443 -175 CURVE SMOOTH"
);
}
);
width = 676;
}
);
leftKerningGroup = N;
leftMetricsKey = "=I";
note = Eng;
rightKerningGroup = H;
rightMetricsKey = "=I";
unicode = 014A;
},
{
color = 1;
glyphname = O;
lastChange = "2021-03-07 19:58:54 +0000";
layers = (
{
anchors = (
{
name = bottom;
position = "{374, 0}";
},
{
name = center;
position = "{374, 349}";
},
{
name = ogonek;
position = "{432, 0}";
},
{
name = top;
position = "{374, 697}";
},
{
name = topleft;
position = "{5, 697}";
},
{
name = topright;
position = "{703, 493}";
}
);
layerId = "F91D9E91-C1BC-4259-B0D8-112C0CBA2B8E";
paths = (
{
closed = 1;
nodes = (
"558 -5 OFFCURVE",
"677 134 OFFCURVE",
"677 348 CURVE SMOOTH",
"677 562 OFFCURVE",
"557 702 OFFCURVE",
"373 702 CURVE SMOOTH",
"190 702 OFFCURVE",
"71 563 OFFCURVE",
"71 348 CURVE SMOOTH",
"71 134 OFFCURVE",
"190 -5 OFFCURVE",
"373 -5 CURVE SMOOTH"
);
},
{
closed = 1;
nodes = (
"194 5 OFFCURVE",
"81 138 OFFCURVE",
"81 348 CURVE SMOOTH",
"81 559 OFFCURVE",
"194 692 OFFCURVE",
"373 692 CURVE SMOOTH",
"553 692 OFFCURVE",
"667 559 OFFCURVE",
"667 348 CURVE SMOOTH",
"667 138 OFFCURVE",
"553 5 OFFCURVE",
"373 5 CURVE SMOOTH"
);
}
);
width = 747;
},
{
anchors = (
{
name = bottom;
position = "{374, 0}";
},
{
name = center;
position = "{374, 349}";
},
{
name = ogonek;
position = "{461, 0}";
},
{
name = top;
position = "{373, 697}";
},
{
name = topleft;
position = "{23, 697}";
},
{
name = topright;
position = "{684, 493}";
}
);
layerId = "957254E3-B7AD-4837-9092-D4428001DE8E";
paths = (
{
closed = 1;
nodes = (
"575 -18 OFFCURVE",
"715 128 OFFCURVE",
"715 348 CURVE SMOOTH",
"715 569 OFFCURVE",
"577 715 OFFCURVE",
"373 715 CURVE SMOOTH",
"171 715 OFFCURVE",
"32 568 OFFCURVE",
"32 348 CURVE SMOOTH",
"32 129 OFFCURVE",
"171 -18 OFFCURVE",
"373 -18 CURVE SMOOTH"
);
},
{
closed = 1;
nodes = (
"261 132 OFFCURVE",
"189 213 OFFCURVE",
"189 348 CURVE SMOOTH",
"189 484 OFFCURVE",
"261 565 OFFCURVE",
"373 565 CURVE SMOOTH",
"486 565 OFFCURVE",
"557 482 OFFCURVE",
"557 348 CURVE SMOOTH",
"557 215 OFFCURVE",
"486 132 OFFCURVE",
"373 132 CURVE SMOOTH"
);
}
);
width = 747;
},
{
anchors = (
{
name = bottom;
position = "{373, 0}";
},
{
name = center;
position = "{373, 349}";
},
{
name = ogonek;
position = "{448, 0}";
},
{
name = top;
position = "{373, 697}";
},
{
name = topleft;
position = "{10, 697}";
},
{
name = topright;
position = "{656, 493}";
}
);
guideLines = (
{
position = "{1394, 1394}";
}
);
layerId = m003;
paths = (
{
closed = 1;
nodes = (
"566 -12 OFFCURVE",
"697 131 OFFCURVE",
"697 348 CURVE SMOOTH",
"697 566 OFFCURVE",
"567 709 OFFCURVE",
"372 709 CURVE SMOOTH",
"180 709 OFFCURVE",
"50 566 OFFCURVE",
"50 348 CURVE SMOOTH",
"50 132 OFFCURVE",
"179 -12 OFFCURVE",
"372 -12 CURVE SMOOTH"
);
},
{
closed = 1;
nodes = (
"229 72 OFFCURVE",
"138 178 OFFCURVE",
"138 348 CURVE SMOOTH",
"138 519 OFFCURVE",
"229 625 OFFCURVE",
"372 625 CURVE SMOOTH",
"517 625 OFFCURVE",
"608 518 OFFCURVE",
"608 348 CURVE SMOOTH",
"608 179 OFFCURVE",
"517 72 OFFCURVE",
"372 72 CURVE SMOOTH"
);
}
);
width = 748;
}
);
leftKerningGroup = C;
leftMetricsKey = "=C";
note = O;
rightKerningGroup = O;
rightMetricsKey = "=D";
unicode = 004F;
},
{
color = 1;
glyphname = OE;
lastChange = "2021-03-07 19:58:54 +0000";
layers = (
{
anchors = (
{
name = bottom;
position = "{537, 0}";
},
{
name = top;
position = "{537, 697}";
}
);
layerId = "F91D9E91-C1BC-4259-B0D8-112C0CBA2B8E";
paths = (
{
closed = 1;
nodes = (
"1032 0 LINE",
"1032 10 LINE",
"594 10 LINE",
"594 346 LINE",
"977 346 LINE",
"977 356 LINE",
"594 356 LINE",
"594 687 LINE",
"1032 687 LINE",
"1032 697 LINE",
"420 697 LINE SMOOTH",
"198 697 OFFCURVE",
"71 568 OFFCURVE",
"71 343 CURVE SMOOTH",
"71 122 OFFCURVE",
"195 0 OFFCURVE",
"421 0 CURVE SMOOTH"
);
},
{
closed = 1;
nodes = (
"201 10 OFFCURVE",
"82 127 OFFCURVE",
"82 343 CURVE SMOOTH",
"82 563 OFFCURVE",
"204 687 OFFCURVE",
"420 687 CURVE SMOOTH",
"584 687 LINE",
"584 10 LINE",
"421 10 LINE SMOOTH"
);
}
);
width = 1075;
},
{
anchors = (
{
name = bottom;
position = "{449, 0}";
},
{
name = top;
position = "{449, 697}";
}
);
layerId = "957254E3-B7AD-4837-9092-D4428001DE8E";
paths = (
{
closed = 1;
nodes = (
"920 0 LINE",
"920 140 LINE",
"609 140 LINE",
"609 289 LINE",
"905 289 LINE",
"905 429 LINE",
"609 429 LINE",
"609 557 LINE",
"920 557 LINE",
"920 697 LINE",
"399 697 LINE SMOOTH",
"166 697 OFFCURVE",
"32 569 OFFCURVE",
"32 343 CURVE SMOOTH",
"32 121 OFFCURVE",
"162 0 OFFCURVE",
"400 0 CURVE SMOOTH"
);
},
{
closed = 1;
nodes = (
"274 144 OFFCURVE",
"190 181 OFFCURVE",
"190 349 CURVE SMOOTH",
"190 511 OFFCURVE",
"271 553 OFFCURVE",
"402 553 CURVE SMOOTH",
"452 553 LINE",
"452 144 LINE",
"416 144 LINE SMOOTH"
);
}
);
width = 966;
},
{
anchors = (
{
name = bottom;
position = "{631, 0}";
},
{
name = top;
position = "{631, 697}";
}
);
layerId = m003;
paths = (
{
closed = 1;
nodes = (
"972 0 LINE",
"972 79 LINE",
"601 79 LINE",
"601 316 LINE",
"938 316 LINE",
"938 395 LINE",
"601 395 LINE",
"601 618 LINE",
"972 618 LINE",
"972 697 LINE",
"408 697 LINE SMOOTH",
"180 697 OFFCURVE",
"50 568 OFFCURVE",
"50 343 CURVE SMOOTH",
"50 122 OFFCURVE",
"177 0 OFFCURVE",
"409 0 CURVE SMOOTH"
);
},
{
closed = 1;
nodes = (
"240 81 OFFCURVE",
"139 156 OFFCURVE",
"139 346 CURVE SMOOTH",
"139 535 OFFCURVE",
"239 616 OFFCURVE",
"410 616 CURVE SMOOTH",
"513 616 LINE",
"513 81 LINE",
"418 81 LINE SMOOTH"
);
}
);
width = 1019;
}
);
leftKerningGroup = C;
leftMetricsKey = O;
note = OE;
rightKerningGroup = E;
rightMetricsKey = E;
unicode = 0152;
},
{
color = 1;
glyphname = P;
lastChange = "2021-03-07 19:58:54 +0000";
layers = (
{
anchors = (
{
name = bottom;
position = "{263, 0}";
},
{
name = top;
position = "{263, 697}";
}
);
layerId = "F91D9E91-C1BC-4259-B0D8-112C0CBA2B8E";
paths = (
{
closed = 1;
nodes = (
"109 0 LINE",
"109 321 LINE",
"264 321 LINE SMOOTH",
"404 321 OFFCURVE",
"486 390 OFFCURVE",
"486 508 CURVE SMOOTH",
"486 627 OFFCURVE",
"403 697 OFFCURVE",
"264 697 CURVE SMOOTH",
"99 697 LINE",
"99 0 LINE"
);
},
{
closed = 1;
nodes = (
"109 687 LINE",
"264 687 LINE SMOOTH",
"398 687 OFFCURVE",
"476 621 OFFCURVE",
"476 508 CURVE SMOOTH",
"476 396 OFFCURVE",
"398 331 OFFCURVE",
"264 331 CURVE SMOOTH",
"109 331 LINE"
);
}
);
width = 539;
},
{
anchors = (
{
name = bottom;
position = "{268, 0}";
},
{
name = top;
position = "{268, 697}";
}
);
layerId = "957254E3-B7AD-4837-9092-D4428001DE8E";
paths = (
{
closed = 1;
nodes = (
"215 0 LINE",
"215 280 LINE",
"304 280 LINE SMOOTH",
"463 280 OFFCURVE",
"546 353 OFFCURVE",
"546 492 CURVE SMOOTH",
"546 630 OFFCURVE",
"465 697 OFFCURVE",
"304 697 CURVE SMOOTH",
"59 697 LINE",
"59 0 LINE"
);
},
{
closed = 1;
nodes = (
"215 557 LINE",
"288 557 LINE SMOOTH",
"357 557 OFFCURVE",
"389 543 OFFCURVE",
"389 490 CURVE SMOOTH",
"389 434 OFFCURVE",
"352 420 OFFCURVE",
"288 420 CURVE SMOOTH",
"215 420 LINE"
);
}
);
width = 567;
},
{
anchors = (
{
name = bottom;
position = "{267, 0}";
},
{
name = top;
position = "{267, 697}";
}
);
layerId = m003;
paths = (
{
closed = 1;
nodes = (
"166 0 LINE",
"166 300 LINE",
"287 300 LINE SMOOTH",
"436 300 OFFCURVE",
"519 371 OFFCURVE",
"519 500 CURVE SMOOTH",
"519 629 OFFCURVE",
"437 697 OFFCURVE",
"287 697 CURVE SMOOTH",
"79 697 LINE",
"79 0 LINE"
);
},
{
closed = 1;
nodes = (
"166 618 LINE",
"278 618 LINE SMOOTH",
"377 618 OFFCURVE",
"431 580 OFFCURVE",
"431 499 CURVE SMOOTH",
"431 416 OFFCURVE",
"374 378 OFFCURVE",
"278 378 CURVE SMOOTH",
"166 378 LINE"
);
}
);
width = 554;
}
);
leftKerningGroup = P;
note = P;
rightKerningGroup = P;
unicode = 0050;
},
{
color = 1;
glyphname = Thorn;
lastChange = "2021-03-07 19:58:54 +0000";
layers = (
{
anchors = (
{
name = bottom;
position = "{313, 0}";
},
{
name = top;
position = "{313, 697}";
}
);
layerId = "F91D9E91-C1BC-4259-B0D8-112C0CBA2B8E";
paths = (
{
closed = 1;
nodes = (
"159 0 LINE",
"159 216 LINE",
"314 216 LINE SMOOTH",
"454 216 OFFCURVE",
"536 285 OFFCURVE",
"536 403 CURVE SMOOTH",
"536 522 OFFCURVE",
"453 592 OFFCURVE",
"314 592 CURVE SMOOTH",
"159 592 LINE",
"159 697 LINE",
"149 697 LINE",
"149 0 LINE"
);
},
{
closed = 1;
nodes = (
"159 582 LINE",
"314 582 LINE SMOOTH",
"448 582 OFFCURVE",
"526 516 OFFCURVE",
"526 403 CURVE SMOOTH",
"526 291 OFFCURVE",
"448 226 OFFCURVE",
"314 226 CURVE SMOOTH",
"159 226 LINE"
);
}
);
width = 625;
},
{
anchors = (
{
name = bottom;
position = "{300, 0}";
},
{
name = top;
position = "{300, 697}";
}
);
layerId = "957254E3-B7AD-4837-9092-D4428001DE8E";
paths = (
{
closed = 1;
nodes = (
"241 0 LINE",
"241 191 LINE",
"324 191 LINE SMOOTH",
"480 191 OFFCURVE",
"571 270 OFFCURVE",
"571 404 CURVE SMOOTH",
"571 530 OFFCURVE",
"492 603 OFFCURVE",
"359 603 CURVE SMOOTH",
"241 603 LINE",
"241 697 LINE",
"98 697 LINE",
"98 0 LINE"
);
},
{
closed = 1;
nodes = (
"241 481 LINE",
"324 481 LINE SMOOTH",
"388 481 OFFCURVE",
"428 460 OFFCURVE",
"428 399 CURVE SMOOTH",
"428 340 OFFCURVE",
"388 321 OFFCURVE",
"324 321 CURVE SMOOTH",
"241 321 LINE"
);
}
);
width = 606;
},
{
anchors = (
{
name = bottom;
position = "{313, 0}";
},
{
name = top;
position = "{313, 697}";
}
);
layerId = m003;
paths = (
{
closed = 1;
nodes = (
"210 0 LINE",
"210 203 LINE",
"327 203 LINE SMOOTH",
"474 203 OFFCURVE",
"562 278 OFFCURVE",
"562 403 CURVE SMOOTH",
"562 526 OFFCURVE",
"481 598 OFFCURVE",
"345 598 CURVE SMOOTH",
"210 598 LINE",
"210 697 LINE",
"129 697 LINE",
"129 0 LINE"
);
},
{
closed = 1;
nodes = (
"210 529 LINE",
"327 529 LINE SMOOTH",
"423 529 OFFCURVE",
"481 486 OFFCURVE",
"481 401 CURVE SMOOTH",
"481 318 OFFCURVE",
"424 276 OFFCURVE",
"327 276 CURVE SMOOTH",
"210 276 LINE"
);
}
);
width = 631;
}
);
leftKerningGroup = B;
note = Thorn;
rightKerningGroup = Thorn;
unicode = 00DE;
},
{
color = 1;
glyphname = Q;
lastChange = "2021-03-07 19:58:54 +0000";
layers = (
{
anchors = (
{
name = bottom;
position = "{379, 0}";
},
{
name = top;
position = "{379, 697}";
}
);
layerId = "F91D9E91-C1BC-4259-B0D8-112C0CBA2B8E";
paths = (
{
closed = 1;
nodes = (
"558 -5 OFFCURVE",
"677 134 OFFCURVE",
"677 348 CURVE SMOOTH",
"677 562 OFFCURVE",
"557 702 OFFCURVE",
"373 702 CURVE SMOOTH",
"190 702 OFFCURVE",
"71 563 OFFCURVE",
"71 348 CURVE SMOOTH",
"71 134 OFFCURVE",
"190 -5 OFFCURVE",
"373 -5 CURVE SMOOTH"
);
},
{
closed = 1;
nodes = (
"682 -20 LINE",
"438 222 LINE",
"431 215 LINE",
"675 -27 LINE"
);
},
{
closed = 1;
nodes = (
"194 5 OFFCURVE",
"81 138 OFFCURVE",
"81 348 CURVE SMOOTH",
"81 559 OFFCURVE",
"194 692 OFFCURVE",
"373 692 CURVE SMOOTH",
"553 692 OFFCURVE",
"667 559 OFFCURVE",
"667 348 CURVE SMOOTH",
"667 138 OFFCURVE",
"553 5 OFFCURVE",
"373 5 CURVE SMOOTH"
);
}
);
width = 752;
},
{
anchors = (
{
name = bottom;
position = "{390, 0}";
},
{
name = top;
position = "{390, 697}";
}
);
layerId = "957254E3-B7AD-4837-9092-D4428001DE8E";
paths = (
{
closed = 1;
nodes = (
"575 -18 OFFCURVE",
"715 128 OFFCURVE",
"715 348 CURVE SMOOTH",
"715 569 OFFCURVE",
"577 715 OFFCURVE",
"373 715 CURVE SMOOTH",
"171 715 OFFCURVE",
"32 568 OFFCURVE",
"32 348 CURVE SMOOTH",
"32 128 OFFCURVE",
"172 -18 OFFCURVE",
"373 -18 CURVE SMOOTH"
);
},
{
closed = 1;
nodes = (
"761 29 LINE",
"464 318 LINE",
"373 221 LINE",
"667 -62 LINE"
);
},
{
closed = 1;
nodes = (
"261 132 OFFCURVE",
"189 213 OFFCURVE",
"189 348 CURVE SMOOTH",
"189 484 OFFCURVE",
"261 565 OFFCURVE",
"373 565 CURVE SMOOTH",
"486 565 OFFCURVE",
"557 482 OFFCURVE",
"557 348 CURVE SMOOTH",
"557 215 OFFCURVE",
"486 132 OFFCURVE",
"373 132 CURVE SMOOTH"
);
}
);
width = 778;
},
{
anchors = (
{
name = bottom;
position = "{384, 0}";
},
{
name = top;
position = "{384, 697}";
}
);
layerId = m003;
paths = (
{
closed = 1;
nodes = (
"566 -12 OFFCURVE",
"697 131 OFFCURVE",
"697 348 CURVE SMOOTH",
"697 566 OFFCURVE",
"567 709 OFFCURVE",
"372 709 CURVE SMOOTH",
"180 709 OFFCURVE",
"50 566 OFFCURVE",
"50 348 CURVE SMOOTH",
"50 132 OFFCURVE",
"180 -12 OFFCURVE",
"372 -12 CURVE SMOOTH"
);
},
{
closed = 1;
nodes = (
"723 6 LINE",
"451 273 LINE",
"399 218 LINE",
"670 -46 LINE"
);
},
{
closed = 1;
nodes = (
"229 72 OFFCURVE",
"138 178 OFFCURVE",
"138 348 CURVE SMOOTH",
"138 519 OFFCURVE",
"229 625 OFFCURVE",
"372 625 CURVE SMOOTH",
"517 625 OFFCURVE",
"608 518 OFFCURVE",
"608 348 CURVE SMOOTH",
"608 179 OFFCURVE",
"517 72 OFFCURVE",
"372 72 CURVE SMOOTH"
);
}
);
width = 764;
}
);
leftKerningGroup = C;
note = Q;
rightKerningGroup = Q;
unicode = 0051;
},
{
color = 1;
glyphname = R;
lastChange = "2021-03-07 19:58:54 +0000";
layers = (
{
anchors = (
{
name = bottom;
position = "{279, 0}";
},
{
name = top;
position = "{279, 697}";
}
);
layerId = "F91D9E91-C1BC-4259-B0D8-112C0CBA2B8E";
paths = (
{
closed = 1;
nodes = (
"109 0 LINE",
"109 331 LINE",
"264 331 LINE SMOOTH",
"284 331 OFFCURVE",
"303 332 OFFCURVE",
"320 334 CURVE",
"429 352 OFFCURVE",
"486 414 OFFCURVE",
"486 513 CURVE SMOOTH",
"486 631 OFFCURVE",
"406 697 OFFCURVE",
"264 697 CURVE SMOOTH",
"99 697 LINE",
"99 0 LINE"
);
},
{
closed = 1;
nodes = (
"520 0 LINE",
"327 338 LINE",
"316 336 LINE",
"509 0 LINE"
);
},
{
closed = 1;
nodes = (
"109 687 LINE",
"264 687 LINE SMOOTH",
"400 687 OFFCURVE",
"476 625 OFFCURVE",
"476 513 CURVE SMOOTH",
"476 402 OFFCURVE",
"401 341 OFFCURVE",
"264 341 CURVE SMOOTH",
"109 341 LINE"
);
}
);
width = 573;
},
{
anchors = (
{
name = bottom;
position = "{294, 0}";
},
{
name = top;
position = "{294, 697}";
}
);
layerId = "957254E3-B7AD-4837-9092-D4428001DE8E";
paths = (
{
closed = 1;
nodes = (
"216 0 LINE",
"216 277 LINE",
"230 277 LINE SMOOTH",
"250 277 OFFCURVE",
"288 277 OFFCURVE",
"325 277 CURVE",
"465 284 OFFCURVE",
"546 355 OFFCURVE",
"546 491 CURVE SMOOTH",
"546 615 OFFCURVE",
"480 697 OFFCURVE",
"304 697 CURVE SMOOTH",
"59 697 LINE",
"59 0 LINE"
);
},
{
closed = 1;
nodes = (
"612 0 LINE",
"420 313 LINE",
"259 294 LINE",
"430 0 LINE"
);
},
{
closed = 1;
nodes = (
"216 557 LINE",
"288 557 LINE SMOOTH",
"337 557 OFFCURVE",
"389 553 OFFCURVE",
"389 489 CURVE SMOOTH",
"389 424 OFFCURVE",
"338 417 OFFCURVE",
"288 417 CURVE SMOOTH",
"216 417 LINE"
);
}
);
width = 621;
},
{
anchors = (
{
name = bottom;
position = "{288, 0}";
},
{
name = top;
position = "{288, 697}";
}
);
layerId = m003;
paths = (
{
closed = 1;
nodes = (
"167 0 LINE",
"167 303 LINE",
"247 303 LINE SMOOTH",
"273 303 OFFCURVE",
"304 303 OFFCURVE",
"324 304 CURVE",
"451 316 OFFCURVE",
"519 385 OFFCURVE",
"519 501 CURVE SMOOTH",
"519 623 OFFCURVE",
"446 697 OFFCURVE",
"287 697 CURVE SMOOTH",
"79 697 LINE",
"79 0 LINE"
);
},
{
closed = 1;
nodes = (
"570 0 LINE",
"378 325 LINE",
"288 314 LINE",
"469 0 LINE"
);
},
{
closed = 1;
nodes = (
"167 618 LINE",
"278 618 LINE SMOOTH",
"367 618 OFFCURVE",
"431 587 OFFCURVE",
"431 500 CURVE SMOOTH",
"431 414 OFFCURVE",
"369 381 OFFCURVE",
"278 381 CURVE SMOOTH",
"167 381 LINE"
);
}
);
width = 598;
}
);
leftKerningGroup = R;
leftMetricsKey = I;
note = R;
rightKerningGroup = R;
unicode = 0052;
},
{
color = 1;
glyphname = S;
lastChange = "2021-03-07 19:58:54 +0000";
layers = (
{
anchors = (
{
name = bottom;
position = "{273, 0}";
},
{
name = top;
position = "{273, 697}";
}
);
layerId = "F91D9E91-C1BC-4259-B0D8-112C0CBA2B8E";
paths = (
{
closed = 1;
nodes = (
"397 -5 OFFCURVE",
"483 73 OFFCURVE",
"483 181 CURVE SMOOTH",
"483 298 OFFCURVE",
"382 336 OFFCURVE",
"284 373 CURVE SMOOTH",
"192 408 OFFCURVE",
"104 440 OFFCURVE",
"104 539 CURVE SMOOTH",
"104 626 OFFCURVE",
"173 692 OFFCURVE",
"278 692 CURVE SMOOTH",
"354 692 OFFCURVE",
"409 658 OFFCURVE",
"446 594 CURVE",
"454 600 LINE",
"416 666 OFFCURVE",
"357 702 OFFCURVE",
"278 702 CURVE SMOOTH",
"168 702 OFFCURVE",
"94 632 OFFCURVE",
"94 539 CURVE SMOOTH",
"94 437 OFFCURVE",
"183 401 OFFCURVE",
"275 366 CURVE SMOOTH",
"373 329 OFFCURVE",
"473 294 OFFCURVE",
"473 180 CURVE SMOOTH",
"473 79 OFFCURVE",
"392 5 OFFCURVE",
"284 5 CURVE SMOOTH",
"165 5 OFFCURVE",
"86 69 OFFCURVE",
"68 175 CURVE",
"58 173 LINE",
"77 63 OFFCURVE",
"160 -5 OFFCURVE",
"284 -5 CURVE SMOOTH"
);
}
);
width = 546;
},
{
anchors = (
{
name = bottom;
position = "{291, 0}";
},
{
name = top;
position = "{291, 697}";
}
);
layerId = "957254E3-B7AD-4837-9092-D4428001DE8E";
paths = (
{
closed = 1;
nodes = (
"453 -15 OFFCURVE",
"553 76 OFFCURVE",
"553 204 CURVE SMOOTH",
"553 313 OFFCURVE",
"488 373 OFFCURVE",
"355 423 CURVE SMOOTH",
"254 461 OFFCURVE",
"228 486 OFFCURVE",
"228 520 CURVE SMOOTH",
"228 553 OFFCURVE",
"258 576 OFFCURVE",
"294 576 CURVE SMOOTH",
"334 576 OFFCURVE",
"368 550 OFFCURVE",
"394 504 CURVE",
"519 580 LINE",
"474 670 OFFCURVE",
"396 715 OFFCURVE",
"299 715 CURVE SMOOTH",
"162 715 OFFCURVE",
"71 633 OFFCURVE",
"71 517 CURVE SMOOTH",
"71 410 OFFCURVE",
"131 346 OFFCURVE",
"274 291 CURVE SMOOTH",
"363 257 OFFCURVE",
"397 234 OFFCURVE",
"397 194 CURVE SMOOTH",
"397 149 OFFCURVE",
"357 124 OFFCURVE",
"306 124 CURVE SMOOTH",
"236 124 OFFCURVE",
"188 163 OFFCURVE",
"174 243 CURVE",
"21 205 LINE",
"42 72 OFFCURVE",
"146 -15 OFFCURVE",
"301 -15 CURVE SMOOTH"
);
}
);
width = 583;
},
{
anchors = (
{
name = bottom;
position = "{282, 0}";
},
{
name = top;
position = "{282, 697}";
}
);
layerId = m003;
paths = (
{
closed = 1;
nodes = (
"425 -11 OFFCURVE",
"519 75 OFFCURVE",
"519 193 CURVE SMOOTH",
"519 303 OFFCURVE",
"442 354 OFFCURVE",
"321 400 CURVE SMOOTH",
"224 436 OFFCURVE",
"169 464 OFFCURVE",
"169 529 CURVE SMOOTH",
"169 588 OFFCURVE",
"217 631 OFFCURVE",
"286 631 CURVE SMOOTH",
"343 631 OFFCURVE",
"387 601 OFFCURVE",
"418 547 CURVE",
"488 590 LINE",
"446 668 OFFCURVE",
"377 709 OFFCURVE",
"289 709 CURVE SMOOTH",
"164 709 OFFCURVE",
"81 632 OFFCURVE",
"81 527 CURVE SMOOTH",
"81 421 OFFCURVE",
"158 371 OFFCURVE",
"274 327 CURVE SMOOTH",
"367 291 OFFCURVE",
"432 262 OFFCURVE",
"432 188 CURVE SMOOTH",
"432 117 OFFCURVE",
"372 68 OFFCURVE",
"295 68 CURVE SMOOTH",
"205 68 OFFCURVE",
"139 117 OFFCURVE",
"124 211 CURVE",
"38 190 LINE",
"58 68 OFFCURVE",
"152 -11 OFFCURVE",
"292 -11 CURVE SMOOTH"
);
}
);
width = 564;
}
);
leftKerningGroup = S;
note = S;
rightKerningGroup = S;
unicode = 0053;
},
{
color = 1;
glyphname = Germandbls;
lastChange = "2021-03-07 19:58:54 +0000";
layers = (
{
anchors = (
{
name = bottom;
position = "{344, 0}";
},
{
name = top;
position = "{344, 697}";
}
);
layerId = "F91D9E91-C1BC-4259-B0D8-112C0CBA2B8E";
paths = (
{
closed = 1;
nodes = (
"109 0 LINE",
"109 687 LINE",
"597 687 LINE",
"597 697 LINE",
"99 697 LINE",
"99 0 LINE"
);
},
{
closed = 1;
nodes = (
"540 -5 OFFCURVE",
"626 73 OFFCURVE",
"626 181 CURVE SMOOTH",
"626 298 OFFCURVE",
"525 336 OFFCURVE",
"427 373 CURVE SMOOTH",
"335 408 OFFCURVE",
"247 440 OFFCURVE",
"247 539 CURVE SMOOTH",
"247 626 OFFCURVE",
"316 687 OFFCURVE",
"421 687 CURVE",
"421 697 LINE",
"311 697 OFFCURVE",
"237 632 OFFCURVE",
"237 539 CURVE SMOOTH",
"237 437 OFFCURVE",
"326 401 OFFCURVE",
"418 366 CURVE SMOOTH",
"516 329 OFFCURVE",
"616 294 OFFCURVE",
"616 180 CURVE SMOOTH",
"616 79 OFFCURVE",
"535 5 OFFCURVE",
"417 5 CURVE SMOOTH",
"308 5 OFFCURVE",
"229 69 OFFCURVE",
"211 175 CURVE",
"201 173 LINE",
"220 63 OFFCURVE",
"303 -5 OFFCURVE",
"417 -5 CURVE SMOOTH"
);
}
);
width = 689;
},
{
anchors = (
{
name = bottom;
position = "{413, 0}";
},
{
name = top;
position = "{413, 697}";
}
);
layerId = "957254E3-B7AD-4837-9092-D4428001DE8E";
paths = (
{
closed = 1;
nodes = (
"216 0 LINE",
"216 557 LINE",
"760 557 LINE",
"760 697 LINE",
"59 697 LINE",
"59 0 LINE"
);
},
{
closed = 1;
nodes = (
"685 -15 OFFCURVE",
"795 78 OFFCURVE",
"795 206 CURVE SMOOTH",
"795 315 OFFCURVE",
"730 363 OFFCURVE",
"597 423 CURVE SMOOTH",
"499 467 OFFCURVE",
"470 486 OFFCURVE",
"470 540 CURVE SMOOTH",
"470 557 OFFCURVE",
"470 573 OFFCURVE",
"470 590 CURVE",
"313 590 LINE",
"313 573 OFFCURVE",
"313 557 OFFCURVE",
"313 540 CURVE SMOOTH",
"313 410 OFFCURVE",
"369 358 OFFCURVE",
"516 295 CURVE SMOOTH",
"607 256 OFFCURVE",
"639 234 OFFCURVE",
"639 192 CURVE SMOOTH",
"639 149 OFFCURVE",
"597 124 OFFCURVE",
"546 124 CURVE SMOOTH",
"476 124 OFFCURVE",
"426 162 OFFCURVE",
"419 244 CURVE",
"263 205 LINE",
"284 72 OFFCURVE",
"398 -15 OFFCURVE",
"543 -15 CURVE SMOOTH"
);
}
);
width = 825;
},
{
anchors = (
{
name = bottom;
position = "{382, 0}";
},
{
name = top;
position = "{382, 697}";
}
);
layerId = m003;
paths = (
{
closed = 1;
nodes = (
"167 0 LINE",
"167 618 LINE",
"685 618 LINE",
"685 697 LINE",
"79 697 LINE",
"79 0 LINE"
);
},
{
closed = 1;
nodes = (
"617 -11 OFFCURVE",
"717 76 OFFCURVE",
"717 194 CURVE SMOOTH",
"717 309 OFFCURVE",
"632 352 OFFCURVE",
"518 400 CURVE SMOOTH",
"422 440 OFFCURVE",
"366 465 OFFCURVE",
"366 539 CURVE SMOOTH",
"366 589 OFFCURVE",
"399 627 OFFCURVE",
"448 636 CURVE",
"365 641 LINE",
"313 631 OFFCURVE",
"279 592 OFFCURVE",
"279 539 CURVE SMOOTH",
"279 420 OFFCURVE",
"354 377 OFFCURVE",
"471 329 CURVE SMOOTH",
"569 289 OFFCURVE",
"629 261 OFFCURVE",
"629 187 CURVE SMOOTH",
"629 117 OFFCURVE",
"569 68 OFFCURVE",
"487 68 CURVE SMOOTH",
"397 68 OFFCURVE",
"335 119 OFFCURVE",
"322 212 CURVE",
"235 190 LINE",
"254 72 OFFCURVE",
"351 -11 OFFCURVE",
"485 -11 CURVE SMOOTH"
);
}
);
width = 762;
}
);
leftMetricsKey = "=I";
rightKerningGroup = S;
rightMetricsKey = S;
unicode = 1E9E;
},
{
glyphname = Schwa;
lastChange = "2021-03-07 19:58:54 +0000";
layers = (
{
anchors = (
{
name = bottom;
position = "{355, 0}";
},
{
name = top;
position = "{355, 697}";
}
);
layerId = "F91D9E91-C1BC-4259-B0D8-112C0CBA2B8E";
paths = (
{
closed = 1;
nodes = (
"553 -5 OFFCURVE",
"659 124 OFFCURVE",
"659 351 CURVE SMOOTH",
"659 577 OFFCURVE",
"551 702 OFFCURVE",
"356 702 CURVE SMOOTH",
"224 702 OFFCURVE",
"139 645 OFFCURVE",
"93 525 CURVE",
"103 522 LINE",
"147 639 OFFCURVE",
"228 692 OFFCURVE",
"356 692 CURVE SMOOTH",
"547 692 OFFCURVE",
"649 571 OFFCURVE",
"649 351 CURVE SMOOTH",
"649 131 OFFCURVE",
"547 5 OFFCURVE",
"365 5 CURVE SMOOTH",
"183 5 OFFCURVE",
"81 131 OFFCURVE",
"81 351 CURVE",
"71 351 LINE",
"71 124 OFFCURVE",
"177 -5 OFFCURVE",
"365 -5 CURVE SMOOTH"
);
},
{
closed = 1;
nodes = (
"658 341 LINE",
"658 351 LINE",
"77 351 LINE",
"77 341 LINE"
);
}
);
width = 729;
},
{
anchors = (
{
name = bottom;
position = "{380, 0}";
},
{
name = top;
position = "{380, 697}";
}
);
layerId = "957254E3-B7AD-4837-9092-D4428001DE8E";
paths = (
{
closed = 1;
nodes = (
"594 -18 OFFCURVE",
"734 127 OFFCURVE",
"734 348 CURVE SMOOTH",
"734 571 OFFCURVE",
"595 717 OFFCURVE",
"386 717 CURVE SMOOTH",
"230 717 OFFCURVE",
"115 637 OFFCURVE",
"64 505 CURVE",
"209 448 LINE",
"236 527 OFFCURVE",
"301 567 OFFCURVE",
"386 567 CURVE SMOOTH",
"506 567 OFFCURVE",
"577 489 OFFCURVE",
"577 350 CURVE SMOOTH",
"577 211 OFFCURVE",
"504 132 OFFCURVE",
"383 132 CURVE SMOOTH",
"262 132 OFFCURVE",
"189 211 OFFCURVE",
"189 351 CURVE",
"32 351 LINE",
"32 127 OFFCURVE",
"172 -18 OFFCURVE",
"383 -18 CURVE SMOOTH"
);
},
{
closed = 1;
nodes = (
"693 231 LINE",
"693 351 LINE",
"112 351 LINE",
"112 231 LINE"
);
}
);
width = 766;
},
{
anchors = (
{
name = bottom;
position = "{367, 0}";
},
{
name = top;
position = "{367, 697}";
}
);
layerId = m003;
paths = (
{
closed = 1;
nodes = (
"574 -12 OFFCURVE",
"698 126 OFFCURVE",
"698 350 CURVE SMOOTH",
"698 574 OFFCURVE",
"573 710 OFFCURVE",
"372 710 CURVE SMOOTH",
"227 710 OFFCURVE",
"126 641 OFFCURVE",
"77 515 CURVE",
"158 483 LINE",
"194 582 OFFCURVE",
"268 626 OFFCURVE",
"372 626 CURVE SMOOTH",
"524 626 OFFCURVE",
"610 528 OFFCURVE",
"610 351 CURVE SMOOTH",
"610 174 OFFCURVE",
"524 72 OFFCURVE",
"374 72 CURVE SMOOTH",
"225 72 OFFCURVE",
"138 174 OFFCURVE",
"138 351 CURVE",
"50 351 LINE",
"50 126 OFFCURVE",
"174 -12 OFFCURVE",
"374 -12 CURVE SMOOTH"
);
},
{
closed = 1;
nodes = (
"676 283 LINE",
"676 351 LINE",
"95 351 LINE",
"95 283 LINE"
);
}
);
width = 749;
}
);
leftKerningGroup = C;
leftMetricsKey = O;
rightKerningGroup = D;
rightMetricsKey = O;
unicode = 018F;
},
{
color = 1;
glyphname = T;
lastChange = "2021-03-07 19:58:54 +0000";
layers = (
{
anchors = (
{
name = bottom;
position = "{300, 0}";
},
{
name = center;
position = "{300, 349}";
},
{
name = top;
position = "{300, 697}";
}
);
layerId = "F91D9E91-C1BC-4259-B0D8-112C0CBA2B8E";
paths = (
{
closed = 1;
nodes = (
"305 0 LINE",
"305 687 LINE",
"573 687 LINE",
"573 697 LINE",
"27 697 LINE",
"27 687 LINE",
"295 687 LINE",
"295 0 LINE"
);
}
);
width = 600;
},
{
anchors = (
{
name = bottom;
position = "{291, 0}";
},
{
name = center;
position = "{291, 349}";
},
{
name = top;
position = "{291, 697}";
}
);
layerId = "957254E3-B7AD-4837-9092-D4428001DE8E";
paths = (
{
closed = 1;
nodes = (
"371 0 LINE",
"371 557 LINE",
"574 557 LINE",
"574 697 LINE",
"8 697 LINE",
"8 557 LINE",
"212 557 LINE",
"212 0 LINE"
);
}
);
width = 582;
},
{
anchors = (
{
name = bottom;
position = "{293, 0}";
},
{
name = center;
position = "{293, 349}";
},
{
name = top;
position = "{293, 697}";
}
);
layerId = m003;
paths = (
{
closed = 1;
nodes = (
"338 0 LINE",
"338 618 LINE",
"571 618 LINE",
"571 697 LINE",
"15 697 LINE",
"15 618 LINE",
"249 618 LINE",
"249 0 LINE"
);
}
);
width = 587;
}
);
leftKerningGroup = T;
note = T;
rightKerningGroup = T;
unicode = 0054;
},
{
color = 1;
glyphname = U;
lastChange = "2021-03-07 19:58:54 +0000";
layers = (
{
anchors = (
{
name = bottom;
position = "{324, 0}";
},
{
name = ogonek;
position = "{377, 0}";
},
{
name = top;
position = "{324, 697}";
},
{
name = topright;
position = "{612, 493}";
}
);
layerId = "F91D9E91-C1BC-4259-B0D8-112C0CBA2B8E";
paths = (
{
closed = 1;
nodes = (
"473 -5 OFFCURVE",
"557 89 OFFCURVE",
"557 257 CURVE SMOOTH",
"557 697 LINE",
"547 697 LINE",
"547 257 LINE SMOOTH",
"547 95 OFFCURVE",
"467 5 OFFCURVE",
"323 5 CURVE SMOOTH",
"180 5 OFFCURVE",
"102 93 OFFCURVE",
"102 252 CURVE SMOOTH",
"102 697 LINE",
"92 697 LINE",
"92 252 LINE SMOOTH",
"92 87 OFFCURVE",
"175 -5 OFFCURVE",
"323 -5 CURVE SMOOTH"
);
}
);
width = 649;
},
{
anchors = (
{
name = bottom;
position = "{330, 0}";
},
{
name = ogonek;
position = "{425, 0}";
},
{
name = top;
position = "{330, 697}";
},
{
name = topright;
position = "{678, 493}";
}
);
layerId = "957254E3-B7AD-4837-9092-D4428001DE8E";
paths = (
{
closed = 1;
nodes = (
"511 -18 OFFCURVE",
"605 72 OFFCURVE",
"605 257 CURVE SMOOTH",
"605 697 LINE",
"448 697 LINE",
"448 268 LINE SMOOTH",
"448 174 OFFCURVE",
"429 126 OFFCURVE",
"329 126 CURVE SMOOTH",
"228 126 OFFCURVE",
"210 173 OFFCURVE",
"210 270 CURVE SMOOTH",
"210 697 LINE",
"53 697 LINE",
"53 252 LINE SMOOTH",
"53 70 OFFCURVE",
"146 -18 OFFCURVE",
"329 -18 CURVE SMOOTH"
);
}
);
width = 658;
},
{
anchors = (
{
name = bottom;
position = "{328, 0}";
},
{
name = ogonek;
position = "{403, 0}";
},
{
name = top;
position = "{328, 697}";
},
{
name = topright;
position = "{638, 493}";
}
);
layerId = m003;
paths = (
{
closed = 1;
nodes = (
"494 -12 OFFCURVE",
"583 81 OFFCURVE",
"583 257 CURVE SMOOTH",
"583 697 LINE",
"496 697 LINE",
"496 263 LINE SMOOTH",
"496 137 OFFCURVE",
"447 69 OFFCURVE",
"327 69 CURVE SMOOTH",
"206 69 OFFCURVE",
"160 136 OFFCURVE",
"160 262 CURVE SMOOTH",
"160 697 LINE",
"72 697 LINE",
"72 252 LINE SMOOTH",
"72 79 OFFCURVE",
"161 -12 OFFCURVE",
"327 -12 CURVE SMOOTH"
);
}
);
width = 656;
}
);
leftKerningGroup = U;
note = U;
rightKerningGroup = J;
unicode = 0055;
},
{
color = 1;
glyphname = V;
lastChange = "2021-03-07 19:58:54 +0000";
layers = (
{
anchors = (
{
name = bottom;
position = "{318, 0}";
},
{
name = top;
position = "{318, 697}";
}
);
layerId = "F91D9E91-C1BC-4259-B0D8-112C0CBA2B8E";
paths = (
{
closed = 1;
nodes = (
"326 0 LINE",
"599 697 LINE",
"588 697 LINE",
"320 10 LINE",
"316 10 LINE",
"48 697 LINE",
"37 697 LINE",
"310 0 LINE"
);
}
);
width = 636;
},
{
anchors = (
{
name = bottom;
position = "{342, 0}";
},
{
name = top;
position = "{342, 697}";
}
);
layerId = "957254E3-B7AD-4837-9092-D4428001DE8E";
paths = (
{
closed = 1;
nodes = (
"399 0 LINE",
"679 697 LINE",
"505 697 LINE",
"317 193 LINE",
"368 193 LINE",
"176 697 LINE",
"3 697 LINE",
"284 0 LINE"
);
}
);
width = 682;
},
{
anchors = (
{
name = bottom;
position = "{329, 0}";
},
{
name = top;
position = "{329, 697}";
}
);
layerId = m003;
paths = (
{
closed = 1;
nodes = (
"363 0 LINE",
"639 697 LINE",
"542 697 LINE",
"317 107 LINE",
"342 107 LINE",
"114 697 LINE",
"17 697 LINE",
"295 0 LINE"
);
}
);
width = 656;
}
);
leftKerningGroup = V;
note = V;
rightKerningGroup = V;
unicode = 0056;
},
{
color = 1;
glyphname = W;
lastChange = "2021-03-07 19:58:54 +0000";
layers = (
{
anchors = (
{
name = bottom;
position = "{461, 0}";
},
{
name = top;
position = "{461, 697}";
}
);
layerId = "F91D9E91-C1BC-4259-B0D8-112C0CBA2B8E";
paths = (
{
closed = 1;
nodes = (
"253 0 LINE",
"462 651 LINE",
"460 651 LINE",
"668 0 LINE",
"684 0 LINE",
"877 697 LINE",
"866 697 LINE",
"676 9 LINE",
"467 663 LINE",
"454 663 LINE",
"245 9 LINE",
"55 697 LINE",
"44 697 LINE",
"237 0 LINE"
);
}
);
width = 921;
},
{
anchors = (
{
name = bottom;
position = "{497, 0}";
},
{
name = top;
position = "{497, 697}";
}
);
layerId = "957254E3-B7AD-4837-9092-D4428001DE8E";
paths = (
{
closed = 1;
nodes = (
"371 0 LINE",
"510 468 LINE",
"484 468 LINE",
"623 0 LINE",
"774 0 LINE",
"987 697 LINE",
"823 697 LINE",
"689 242 LINE",
"574 655 LINE",
"420 655 LINE",
"305 242 LINE",
"171 697 LINE",
"7 697 LINE",
"220 0 LINE"
);
}
);
width = 994;
},
{
anchors = (
{
name = bottom;
position = "{479, 0}";
},
{
name = top;
position = "{479, 697}";
}
);
layerId = m003;
paths = (
{
closed = 1;
nodes = (
"315 0 LINE",
"486 554 LINE",
"472 554 LINE",
"643 0 LINE",
"730 0 LINE",
"934 697 LINE",
"842 697 LINE",
"682 133 LINE",
"523 659 LINE",
"435 659 LINE",
"276 133 LINE",
"115 697 LINE",
"23 697 LINE",
"227 0 LINE"
);
}
);
width = 957;
}
);
leftKerningGroup = W;
note = W;
rightKerningGroup = W;
unicode = 0057;
},
{
color = 1;
glyphname = X;
lastChange = "2021-03-07 19:58:54 +0000";
layers = (
{
anchors = (
{
name = bottom;
position = "{299, 0}";
},
{
name = top;
position = "{299, 697}";
}
);
layerId = "F91D9E91-C1BC-4259-B0D8-112C0CBA2B8E";
paths = (
{
closed = 1;
nodes = (
"51 0 LINE",
"298 345 LINE",
"546 0 LINE",
"558 0 LINE",
"304 355 LINE",
"550 697 LINE",
"538 697 LINE",
"298 363 LINE",
"59 697 LINE",
"47 697 LINE",
"292 355 LINE",
"39 0 LINE"
);
}
);
width = 597;
},
{
anchors = (
{
name = bottom;
position = "{345, 0}";
},
{
name = top;
position = "{345, 697}";
}
);
layerId = "957254E3-B7AD-4837-9092-D4428001DE8E";
paths = (
{
closed = 1;
nodes = (
"197 0 LINE",
"344 233 LINE",
"493 0 LINE",
"681 0 LINE",
"453 346 LINE",
"681 697 LINE",
"494 697 LINE",
"345 455 LINE",
"196 697 LINE",
"8 697 LINE",
"236 346 LINE",
"9 0 LINE"
);
}
);
width = 689;
},
{
anchors = (
{
name = bottom;
position = "{321, 0}";
},
{
name = top;
position = "{321, 697}";
}
);
layerId = m003;
paths = (
{
closed = 1;
nodes = (
"125 0 LINE",
"320 286 LINE",
"516 0 LINE",
"621 0 LINE",
"381 350 LINE",
"617 697 LINE",
"512 697 LINE",
"321 412 LINE",
"129 697 LINE",
"24 697 LINE",
"260 350 LINE",
"21 0 LINE"
);
}
);
width = 641;
}
);
leftKerningGroup = X;
note = X;
rightKerningGroup = X;
unicode = 0058;
},
{
color = 1;
glyphname = Y;
lastChange = "2021-03-07 19:58:54 +0000";
layers = (
{
anchors = (
{
name = bottom;
position = "{285, 0}";
},
{
name = top;
position = "{285, 697}";
},
{
name = topleft;
position = "{28, 697}";
}
);
layerId = "F91D9E91-C1BC-4259-B0D8-112C0CBA2B8E";
paths = (
{
closed = 1;
nodes = (
"290 0 LINE",
"290 261 LINE",
"538 697 LINE",
"526 697 LINE",
"285 273 LINE",
"44 697 LINE",
"32 697 LINE",
"280 261 LINE",
"280 0 LINE"
);
}
);
width = 570;
},
{
anchors = (
{
name = bottom;
position = "{321, 0}";
},
{
name = top;
position = "{321, 697}";
},
{
name = topleft;
position = "{22, 697}";
}
);
layerId = "957254E3-B7AD-4837-9092-D4428001DE8E";
paths = (
{
closed = 1;
nodes = (
"400 0 LINE",
"400 275 LINE",
"641 697 LINE",
"463 697 LINE",
"318 431 LINE",
"178 697 LINE",
"-2 697 LINE",
"243 275 LINE",
"243 0 LINE"
);
}
);
width = 640;
},
{
anchors = (
{
name = bottom;
position = "{302, 0}";
},
{
name = top;
position = "{302, 697}";
},
{
name = topleft;
position = "{22, 697}";
}
);
layerId = m003;
paths = (
{
closed = 1;
nodes = (
"346 0 LINE",
"346 269 LINE",
"590 697 LINE",
"490 697 LINE",
"299 357 LINE",
"112 697 LINE",
"12 697 LINE",
"258 269 LINE",
"258 0 LINE"
);
}
);
width = 602;
}
);
leftKerningGroup = Y;
note = Y;
rightKerningGroup = Y;
unicode = 0059;
},
{
color = 1;
glyphname = Z;
lastChange = "2021-03-07 19:58:54 +0000";
layers = (
{
anchors = (
{
name = bottom;
position = "{270, 0}";
},
{
name = center;
position = "{270, 349}";
},
{
name = top;
position = "{270, 697}";
}
);
layerId = "F91D9E91-C1BC-4259-B0D8-112C0CBA2B8E";
paths = (
{
closed = 1;
nodes = (
"498 0 LINE",
"498 10 LINE",
"49 10 LINE",
"49 12 LINE",
"489 682 LINE",
"489 697 LINE",
"64 697 LINE",
"64 687 LINE",
"480 687 LINE",
"480 686 LINE",
"40 16 LINE",
"40 0 LINE"
);
}
);
width = 537;
},
{
anchors = (
{
name = bottom;
position = "{314, 0}";
},
{
name = center;
position = "{314, 349}";
},
{
name = top;
position = "{314, 697}";
}
);
layerId = "957254E3-B7AD-4837-9092-D4428001DE8E";
paths = (
{
closed = 1;
nodes = (
"595 0 LINE",
"595 140 LINE",
"176 140 LINE",
"198 108 LINE",
"581 569 LINE",
"581 697 LINE",
"48 697 LINE",
"48 557 LINE",
"446 557 LINE",
"422 607 LINE",
"25 127 LINE",
"25 0 LINE"
);
}
);
width = 621;
},
{
anchors = (
{
name = bottom;
position = "{293, 0}";
},
{
name = center;
position = "{293, 349}";
},
{
name = top;
position = "{293, 697}";
}
);
layerId = m003;
paths = (
{
closed = 1;
nodes = (
"549 0 LINE",
"549 79 LINE",
"116 79 LINE",
"127 63 LINE",
"537 623 LINE",
"537 697 LINE",
"56 697 LINE",
"56 618 LINE",
"461 618 LINE",
"449 645 LINE",
"32 75 LINE",
"32 0 LINE"
);
}
);
width = 582;
}
);
leftKerningGroup = Z;
note = Z;
rightKerningGroup = Z;
unicode = 005A;
},
{
color = 1;
glyphname = a;
lastChange = "2021-03-07 19:58:54 +0000";
layers = (
{
anchors = (
{
name = bottom;
position = "{272, 0}";
},
{
name = ogonek;
position = "{443, 0}";
},
{
name = top;
position = "{272, 493}";
}
);
layerId = "F91D9E91-C1BC-4259-B0D8-112C0CBA2B8E";
paths = (
{
closed = 1;
nodes = (
"443 0 LINE",
"443 303 LINE SMOOTH",
"443 432 OFFCURVE",
"382 498 OFFCURVE",
"264 498 CURVE SMOOTH",
"187 498 OFFCURVE",
"134 470 OFFCURVE",
"86 403 CURVE",
"94 397 LINE",
"139 461 OFFCURVE",
"190 488 OFFCURVE",
"264 488 CURVE SMOOTH",
"377 488 OFFCURVE",
"433 426 OFFCURVE",
"433 303 CURVE SMOOTH",
"433 145 LINE",
"433 0 LINE"
);
},
{
closed = 1;
nodes = (
"347 -5 OFFCURVE",
"441 89 OFFCURVE",
"441 215 CURVE",
"433 218 LINE",
"433 96 OFFCURVE",
"342 5 OFFCURVE",
"232 5 CURVE SMOOTH",
"134 5 OFFCURVE",
"77 56 OFFCURVE",
"77 135 CURVE SMOOTH",
"77 180 OFFCURVE",
"94 210 OFFCURVE",
"123 232 CURVE SMOOTH",
"154 254 OFFCURVE",
"205 264 OFFCURVE",
"264 264 CURVE SMOOTH",
"437 264 LINE",
"437 274 LINE",
"264 274 LINE SMOOTH",
"205 274 OFFCURVE",
"152 265 OFFCURVE",
"116 239 CURVE SMOOTH",
"85 217 OFFCURVE",
"67 183 OFFCURVE",
"67 134 CURVE SMOOTH",
"67 49 OFFCURVE",
"126 -5 OFFCURVE",
"231 -5 CURVE SMOOTH"
);
}
);
width = 530;
},
{
anchors = (
{
name = bottom;
position = "{276, 0}";
},
{
name = ogonek;
position = "{502, 0}";
},
{
name = top;
position = "{276, 493}";
}
);
layerId = "957254E3-B7AD-4837-9092-D4428001DE8E";
paths = (
{
closed = 1;
nodes = (
"502 0 LINE",
"502 313 LINE SMOOTH",
"502 430 OFFCURVE",
"418 504 OFFCURVE",
"278 504 CURVE SMOOTH",
"192 504 OFFCURVE",
"101 476 OFFCURVE",
"39 411 CURVE",
"148 320 LINE",
"192 362 OFFCURVE",
"230 373 OFFCURVE",
"267 373 CURVE SMOOTH",
"322 373 OFFCURVE",
"352 348 OFFCURVE",
"352 313 CURVE SMOOTH",
"352 58 LINE",
"364 0 LINE"
);
},
{
closed = 1;
nodes = (
"276 -11 OFFCURVE",
"344 1 OFFCURVE",
"382 102 CURVE",
"352 199 LINE",
"352 147 OFFCURVE",
"305 110 OFFCURVE",
"249 110 CURVE SMOOTH",
"210 110 OFFCURVE",
"185 128 OFFCURVE",
"185 156 CURVE SMOOTH",
"185 168 OFFCURVE",
"190 178 OFFCURVE",
"200 185 CURVE SMOOTH",
"209 191 OFFCURVE",
"222 194 OFFCURVE",
"238 194 CURVE SMOOTH",
"364 194 LINE",
"364 305 LINE",
"216 305 LINE SMOOTH",
"172 305 OFFCURVE",
"133 297 OFFCURVE",
"102 280 CURVE SMOOTH",
"60 257 OFFCURVE",
"34 213 OFFCURVE",
"34 156 CURVE SMOOTH",
"34 55 OFFCURVE",
"119 -11 OFFCURVE",
"225 -11 CURVE SMOOTH"
);
}
);
width = 550;
},
{
anchors = (
{
name = bottom;
position = "{274, 0}";
},
{
name = ogonek;
position = "{474, 0}";
},
{
name = top;
position = "{274, 493}";
}
);
layerId = m003;
paths = (
{
closed = 1;
nodes = (
"474 0 LINE",
"474 309 LINE SMOOTH",
"474 431 OFFCURVE",
"400 501 OFFCURVE",
"271 501 CURVE SMOOTH",
"187 501 OFFCURVE",
"115 472 OFFCURVE",
"61 408 CURVE",
"122 356 LINE",
"166 408 OFFCURVE",
"211 428 OFFCURVE",
"265 428 CURVE SMOOTH",
"347 428 OFFCURVE",
"390 385 OFFCURVE",
"390 309 CURVE SMOOTH",
"390 99 LINE",
"396 0 LINE"
);
},
{
closed = 1;
nodes = (
"334 -8 OFFCURVE",
"407 49 OFFCURVE",
"423 156 CURVE",
"390 208 LINE",
"390 123 OFFCURVE",
"322 61 OFFCURVE",
"241 61 CURVE SMOOTH",
"175 61 OFFCURVE",
"134 94 OFFCURVE",
"134 146 CURVE SMOOTH",
"134 173 OFFCURVE",
"144 193 OFFCURVE",
"162 206 CURVE SMOOTH",
"186 223 OFFCURVE",
"220 227 OFFCURVE",
"250 227 CURVE SMOOTH",
"398 227 LINE",
"398 291 LINE",
"238 291 LINE SMOOTH",
"189 291 OFFCURVE",
"143 283 OFFCURVE",
"108 261 CURVE SMOOTH",
"73 239 OFFCURVE",
"49 202 OFFCURVE",
"49 147 CURVE SMOOTH",
"49 54 OFFCURVE",
"120 -8 OFFCURVE",
"233 -8 CURVE SMOOTH"
);
}
);
width = 540;
}
);
leftKerningGroup = a;
note = a;
rightKerningGroup = a;
unicode = 0061;
},
{
color = 1;
glyphname = ae;
lastChange = "2021-03-07 19:58:54 +0000";
layers = (
{
anchors = (
{
name = bottom;
position = "{462, 0}";
},
{
name = top;
position = "{462, 493}";
}
);
layerId = "F91D9E91-C1BC-4259-B0D8-112C0CBA2B8E";
paths = (
{
closed = 1;
nodes = (
"326 -5 OFFCURVE",
"412 36 OFFCURVE",
"444 192 CURVE",
"446 192 LINE",
"463 71 OFFCURVE",
"541 -5 OFFCURVE",
"653 -5 CURVE SMOOTH",
"729 -5 OFFCURVE",
"775 14 OFFCURVE",
"832 70 CURVE",
"824 78 LINE",
"770 23 OFFCURVE",
"727 5 OFFCURVE",
"653 5 CURVE SMOOTH",
"532 5 OFFCURVE",
"453 95 OFFCURVE",
"453 251 CURVE",
"841 251 LINE",
"843 259 OFFCURVE",
"844 278 OFFCURVE",
"844 291 CURVE SMOOTH",
"844 376 OFFCURVE",
"795 498 OFFCURVE",
"645 498 CURVE SMOOTH",
"549 498 OFFCURVE",
"478 431 OFFCURVE",
"452 327 CURVE",
"445 438 OFFCURVE",
"384 498 OFFCURVE",
"274 498 CURVE SMOOTH",
"196 498 OFFCURVE",
"144 471 OFFCURVE",
"96 403 CURVE",
"104 397 LINE",
"150 462 OFFCURVE",
"199 488 OFFCURVE",
"274 488 CURVE SMOOTH",
"386 488 OFFCURVE",
"443 425 OFFCURVE",
"443 303 CURVE SMOOTH",
"443 261 LINE",
"294 261 LINE SMOOTH",
"149 261 OFFCURVE",
"77 227 OFFCURVE",
"77 134 CURVE SMOOTH",
"77 48 OFFCURVE",
"139 -5 OFFCURVE",
"238 -5 CURVE SMOOTH"
);
},
{
closed = 1;
nodes = (
"144 5 OFFCURVE",
"87 55 OFFCURVE",
"87 134 CURVE SMOOTH",
"87 221 OFFCURVE",
"154 251 OFFCURVE",
"294 251 CURVE SMOOTH",
"443 251 LINE",
"443 243 LINE",
"423 62 OFFCURVE",
"332 5 OFFCURVE",
"238 5 CURVE SMOOTH"
);
},
{
closed = 1;
nodes = (
"459 396 OFFCURVE",
"536 488 OFFCURVE",
"645 488 CURVE SMOOTH",
"789 488 OFFCURVE",
"834 374 OFFCURVE",
"834 291 CURVE SMOOTH",
"834 282 OFFCURVE",
"833 270 OFFCURVE",
"832 261 CURVE",
"453 261 LINE"
);
}
);
width = 924;
},
{
anchors = (
{
name = bottom;
position = "{423, 0}";
},
{
name = top;
position = "{423, 493}";
}
);
layerId = "957254E3-B7AD-4837-9092-D4428001DE8E";
paths = (
{
closed = 1;
nodes = (
"287 -11 OFFCURVE",
"336 5 OFFCURVE",
"392 59 CURVE",
"408 59 LINE",
"447 11 OFFCURVE",
"499 -11 OFFCURVE",
"574 -11 CURVE SMOOTH",
"657 -11 OFFCURVE",
"722 3 OFFCURVE",
"788 81 CURVE",
"683 173 LINE",
"658 144 OFFCURVE",
"623 128 OFFCURVE",
"577 128 CURVE SMOOTH",
"518 128 OFFCURVE",
"502 155 OFFCURVE",
"494 194 CURVE",
"802 194 LINE",
"804 215 OFFCURVE",
"805 235 OFFCURVE",
"805 254 CURVE SMOOTH",
"805 403 OFFCURVE",
"742 498 OFFCURVE",
"581 498 CURVE SMOOTH",
"531 498 OFFCURVE",
"490 489 OFFCURVE",
"449 467 CURVE",
"413 490 OFFCURVE",
"358 504 OFFCURVE",
"288 504 CURVE SMOOTH",
"193 504 OFFCURVE",
"115 478 OFFCURVE",
"45 411 CURVE",
"154 320 LINE",
"192 363 OFFCURVE",
"240 373 OFFCURVE",
"272 373 CURVE SMOOTH",
"322 373 OFFCURVE",
"354 350 OFFCURVE",
"354 313 CURVE SMOOTH",
"354 299 LINE",
"263 299 LINE SMOOTH",
"224 299 OFFCURVE",
"33 314 OFFCURVE",
"33 154 CURVE SMOOTH",
"33 60 OFFCURVE",
"99 -11 OFFCURVE",
"225 -11 CURVE SMOOTH"
);
},
{
closed = 1;
nodes = (
"206 117 OFFCURVE",
"188 132 OFFCURVE",
"188 151 CURVE SMOOTH",
"188 167 OFFCURVE",
"202 191 OFFCURVE",
"272 191 CURVE SMOOTH",
"363 191 LINE",
"354 195 LINE",
"354 160 OFFCURVE",
"317 117 OFFCURVE",
"244 117 CURVE SMOOTH"
);
},
{
closed = 1;
nodes = (
"492 331 OFFCURVE",
"511 373 OFFCURVE",
"581 373 CURVE SMOOTH",
"609 373 OFFCURVE",
"633 367 OFFCURVE",
"649 351 CURVE SMOOTH",
"661 340 OFFCURVE",
"667 324 OFFCURVE",
"667 303 CURVE",
"492 303 LINE"
);
}
);
width = 843;
},
{
anchors = (
{
name = bottom;
position = "{444, 0}";
},
{
name = top;
position = "{444, 493}";
}
);
layerId = m003;
paths = (
{
closed = 1;
nodes = (
"321 -8 OFFCURVE",
"380 32 OFFCURVE",
"419 122 CURVE",
"429 122 LINE",
"457 40 OFFCURVE",
"522 -8 OFFCURVE",
"614 -8 CURVE SMOOTH",
"696 -8 OFFCURVE",
"751 10 OFFCURVE",
"812 76 CURVE",
"752 128 LINE",
"714 87 OFFCURVE",
"675 70 OFFCURVE",
"616 70 CURVE SMOOTH",
"528 70 OFFCURVE",
"482 127 OFFCURVE",
"478 221 CURVE",
"823 221 LINE",
"825 234 OFFCURVE",
"826 255 OFFCURVE",
"826 272 CURVE SMOOTH",
"826 390 OFFCURVE",
"770 498 OFFCURVE",
"614 498 CURVE SMOOTH",
"541 498 OFFCURVE",
"486 460 OFFCURVE",
"453 401 CURVE",
"431 466 OFFCURVE",
"373 501 OFFCURVE",
"285 501 CURVE SMOOTH",
"201 501 OFFCURVE",
"134 477 OFFCURVE",
"72 408 CURVE",
"134 356 LINE",
"174 409 OFFCURVE",
"223 428 OFFCURVE",
"276 428 CURVE SMOOTH",
"355 428 OFFCURVE",
"399 385 OFFCURVE",
"399 309 CURVE SMOOTH",
"399 287 LINE",
"280 287 LINE SMOOTH",
"227 287 OFFCURVE",
"57 287 OFFCURVE",
"57 145 CURVE SMOOTH",
"57 55 OFFCURVE",
"121 -8 OFFCURVE",
"234 -8 CURVE SMOOTH"
);
},
{
closed = 1;
nodes = (
"180 65 OFFCURVE",
"143 96 OFFCURVE",
"143 143 CURVE SMOOTH",
"143 193 OFFCURVE",
"183 226 OFFCURVE",
"286 226 CURVE SMOOTH",
"399 226 LINE",
"399 218 LINE",
"390 114 OFFCURVE",
"326 65 OFFCURVE",
"244 65 CURVE SMOOTH"
);
},
{
closed = 1;
nodes = (
"479 359 OFFCURVE",
"524 428 OFFCURVE",
"614 428 CURVE SMOOTH",
"690 428 OFFCURVE",
"727 380 OFFCURVE",
"741 324 CURVE SMOOTH",
"744 311 OFFCURVE",
"749 303 OFFCURVE",
"748 283 CURVE",
"477 283 LINE"
);
}
);
width = 886;
}
);
leftKerningGroup = a;
note = ae;
rightKerningGroup = e;
unicode = 00E6;
},
{
color = 1;
glyphname = b;
lastChange = "2021-03-07 20:17:18 +0000";
layers = (
{
anchors = (
{
name = bottom;
position = "{297, 0}";
},
{
name = center;
position = "{135, 608}";
},
{
name = top;
position = "{98, 697}";
},
{
name = topleft;
position = "{-13, 493}";
}
);
layerId = "F91D9E91-C1BC-4259-B0D8-112C0CBA2B8E";
paths = (
{
closed = 1;
nodes = (
"444 -5 OFFCURVE",
"542 104 OFFCURVE",
"542 247 CURVE SMOOTH",
"542 390 OFFCURVE",
"444 498 OFFCURVE",
"316 498 CURVE SMOOTH",
"211 498 OFFCURVE",
"128 426 OFFCURVE",
"102 322 CURVE",
"103 321 LINE",
"103 697 LINE",
"93 697 LINE",
"93 0 LINE",
"103 0 LINE",
"103 173 LINE",
"102 172 LINE",
"128 67 OFFCURVE",
"211 -5 OFFCURVE",
"316 -5 CURVE SMOOTH"
);
},
{
closed = 1;
nodes = (
"194 5 OFFCURVE",
"103 109 OFFCURVE",
"103 247 CURVE SMOOTH",
"103 385 OFFCURVE",
"194 488 OFFCURVE",
"316 488 CURVE SMOOTH",
"439 488 OFFCURVE",
"532 384 OFFCURVE",
"532 247 CURVE SMOOTH",
"532 110 OFFCURVE",
"439 5 OFFCURVE",
"316 5 CURVE SMOOTH"
);
}
);
width = 610;
},
{
anchors = (
{
name = bottom;
position = "{275, 0}";
},
{
name = center;
position = "{154, 589}";
},
{
name = top;
position = "{129, 697}";
},
{
name = topleft;
position = "{-83, 493}";
}
);
layerId = "957254E3-B7AD-4837-9092-D4428001DE8E";
paths = (
{
closed = 1;
nodes = (
"462 -11 OFFCURVE",
"535 99 OFFCURVE",
"535 247 CURVE SMOOTH",
"535 412 OFFCURVE",
"445 504 OFFCURVE",
"334 504 CURVE SMOOTH",
"265 504 OFFCURVE",
"193 464 OFFCURVE",
"177 347 CURVE",
"204 369 LINE",
"204 697 LINE",
"54 697 LINE",
"54 0 LINE",
"204 0 LINE",
"204 122 LINE",
"173 152 LINE",
"198 13 OFFCURVE",
"274 -11 OFFCURVE",
"334 -11 CURVE SMOOTH"
);
},
{
closed = 1;
nodes = (
"226 127 OFFCURVE",
"190 172 OFFCURVE",
"190 247 CURVE SMOOTH",
"190 321 OFFCURVE",
"226 366 OFFCURVE",
"287 366 CURVE SMOOTH",
"348 366 OFFCURVE",
"384 322 OFFCURVE",
"384 247 CURVE SMOOTH",
"384 171 OFFCURVE",
"348 127 OFFCURVE",
"287 127 CURVE SMOOTH"
);
}
);
width = 570;
},
{
anchors = (
{
name = bottom;
position = "{293, 0}";
},
{
name = center;
position = "{149, 608}";
},
{
name = top;
position = "{114, 697}";
},
{
name = topleft;
position = "{-50, 493}";
}
);
layerId = m003;
paths = (
{
closed = 1;
nodes = (
"448 -8 OFFCURVE",
"538 102 OFFCURVE",
"538 247 CURVE SMOOTH",
"538 402 OFFCURVE",
"438 501 OFFCURVE",
"314 501 CURVE SMOOTH",
"220 501 OFFCURVE",
"153 446 OFFCURVE",
"132 369 CURVE",
"156 346 LINE",
"156 697 LINE",
"72 697 LINE",
"72 0 LINE",
"156 0 LINE",
"156 147 LINE",
"129 128 LINE",
"155 42 OFFCURVE",
"220 -8 OFFCURVE",
"314 -8 CURVE SMOOTH"
);
},
{
closed = 1;
nodes = (
"211 70 OFFCURVE",
"149 143 OFFCURVE",
"149 247 CURVE SMOOTH",
"149 351 OFFCURVE",
"211 424 OFFCURVE",
"300 424 CURVE SMOOTH",
"390 424 OFFCURVE",
"453 351 OFFCURVE",
"453 247 CURVE SMOOTH",
"453 143 OFFCURVE",
"390 70 OFFCURVE",
"300 70 CURVE SMOOTH"
);
}
);
width = 587;
}
);
leftKerningGroup = b;
note = b;
rightKerningGroup = b;
unicode = 0062;
},
{
color = 1;
glyphname = c;
lastChange = "2021-03-07 19:58:54 +0000";
layers = (
{
anchors = (
{
name = bottom;
position = "{287, 0}";
},
{
name = top;
position = "{277, 493}";
}
);
layerId = "F91D9E91-C1BC-4259-B0D8-112C0CBA2B8E";
paths = (
{
closed = 1;
nodes = (
"360 -5 OFFCURVE",
"425 40 OFFCURVE",
"454 120 CURVE",
"443 124 LINE",
"417 48 OFFCURVE",
"356 5 OFFCURVE",
"276 5 CURVE SMOOTH",
"146 5 OFFCURVE",
"81 117 OFFCURVE",
"81 247 CURVE SMOOTH",
"81 376 OFFCURVE",
"146 488 OFFCURVE",
"276 488 CURVE SMOOTH",
"356 488 OFFCURVE",
"417 445 OFFCURVE",
"443 369 CURVE",
"454 373 LINE",
"425 453 OFFCURVE",
"360 498 OFFCURVE",
"276 498 CURVE SMOOTH",
"154 498 OFFCURVE",
"71 396 OFFCURVE",
"71 247 CURVE SMOOTH",
"71 97 OFFCURVE",
"154 -5 OFFCURVE",
"276 -5 CURVE SMOOTH"
);
}
);
width = 514;
},
{
anchors = (
{
name = bottom;
position = "{290, 0}";
},
{
name = top;
position = "{262, 493}";
}
);
layerId = "957254E3-B7AD-4837-9092-D4428001DE8E";
paths = (
{
closed = 1;
nodes = (
"384 -11 OFFCURVE",
"463 38 OFFCURVE",
"500 139 CURVE",
"369 191 LINE",
"355 150 OFFCURVE",
"330 120 OFFCURVE",
"280 120 CURVE SMOOTH",
"210 120 OFFCURVE",
"183 184 OFFCURVE",
"183 247 CURVE SMOOTH",
"183 309 OFFCURVE",
"210 373 OFFCURVE",
"280 373 CURVE SMOOTH",
"330 373 OFFCURVE",
"355 343 OFFCURVE",
"369 302 CURVE",
"500 354 LINE",
"463 455 OFFCURVE",
"384 504 OFFCURVE",
"280 504 CURVE SMOOTH",
"112 504 OFFCURVE",
"32 375 OFFCURVE",
"32 247 CURVE SMOOTH",
"32 118 OFFCURVE",
"112 -11 OFFCURVE",
"280 -11 CURVE SMOOTH"
);
}
);
width = 526;
},
{
anchors = (
{
name = bottom;
position = "{287, 0}";
},
{
name = top;
position = "{268, 493}";
}
);
layerId = m003;
paths = (
{
closed = 1;
nodes = (
"370 -8 OFFCURVE",
"443 38 OFFCURVE",
"477 131 CURVE",
"402 160 LINE",
"383 103 OFFCURVE",
"342 66 OFFCURVE",
"277 66 CURVE SMOOTH",
"178 66 OFFCURVE",
"133 153 OFFCURVE",
"133 247 CURVE SMOOTH",
"133 340 OFFCURVE",
"178 428 OFFCURVE",
"277 428 CURVE SMOOTH",
"342 428 OFFCURVE",
"383 390 OFFCURVE",
"402 334 CURVE",
"477 363 LINE",
"443 456 OFFCURVE",
"370 501 OFFCURVE",
"277 501 CURVE SMOOTH",
"130 501 OFFCURVE",
"49 384 OFFCURVE",
"49 247 CURVE SMOOTH",
"49 109 OFFCURVE",
"130 -8 OFFCURVE",
"277 -8 CURVE SMOOTH"
);
}
);
width = 518;
}
);
leftKerningGroup = c;
note = c;
rightKerningGroup = c;
unicode = 0063;
},
{
color = 1;
glyphname = d;
lastChange = "2021-03-07 20:17:53 +0000";
layers = (
{
anchors = (
{
name = bottom;
position = "{313, 0}";
},
{
name = center;
position = "{475, 608}";
},
{
name = top;
position = "{512, 697}";
},
{
name = topright;
position = "{623, 493}";
}
);
layerId = "F91D9E91-C1BC-4259-B0D8-112C0CBA2B8E";
paths = (
{
closed = 1;
nodes = (
"399 -5 OFFCURVE",
"482 67 OFFCURVE",
"508 172 CURVE",
"507 173 LINE",
"507 0 LINE",
"517 0 LINE",
"517 697 LINE",
"507 697 LINE",
"507 321 LINE",
"508 322 LINE",
"482 426 OFFCURVE",
"399 498 OFFCURVE",
"294 498 CURVE SMOOTH",
"166 498 OFFCURVE",
"68 390 OFFCURVE",
"68 247 CURVE SMOOTH",
"68 104 OFFCURVE",
"166 -5 OFFCURVE",
"294 -5 CURVE SMOOTH"
);
},
{
closed = 1;
nodes = (
"171 5 OFFCURVE",
"78 110 OFFCURVE",
"78 247 CURVE SMOOTH",
"78 384 OFFCURVE",
"171 488 OFFCURVE",
"294 488 CURVE SMOOTH",
"416 488 OFFCURVE",
"507 385 OFFCURVE",
"507 247 CURVE SMOOTH",
"507 109 OFFCURVE",
"416 5 OFFCURVE",
"294 5 CURVE SMOOTH"
);
}
);
width = 610;
},
{
anchors = (
{
name = bottom;
position = "{295, 0}";
},
{
name = center;
position = "{416, 589}";
},
{
name = top;
position = "{441, 697}";
},
{
name = topright;
position = "{653, 493}";
}
);
layerId = "957254E3-B7AD-4837-9092-D4428001DE8E";
paths = (
{
closed = 1;
nodes = (
"296 -11 OFFCURVE",
"372 13 OFFCURVE",
"397 152 CURVE",
"366 122 LINE",
"366 0 LINE",
"516 0 LINE",
"516 697 LINE",
"366 697 LINE",
"366 369 LINE",
"393 347 LINE",
"377 464 OFFCURVE",
"305 504 OFFCURVE",
"236 504 CURVE SMOOTH",
"125 504 OFFCURVE",
"35 412 OFFCURVE",
"35 247 CURVE SMOOTH",
"35 99 OFFCURVE",
"108 -11 OFFCURVE",
"236 -11 CURVE SMOOTH"
);
},
{
closed = 1;
nodes = (
"222 127 OFFCURVE",
"186 171 OFFCURVE",
"186 247 CURVE SMOOTH",
"186 322 OFFCURVE",
"222 366 OFFCURVE",
"283 366 CURVE SMOOTH",
"344 366 OFFCURVE",
"380 321 OFFCURVE",
"380 247 CURVE SMOOTH",
"380 172 OFFCURVE",
"344 127 OFFCURVE",
"283 127 CURVE SMOOTH"
);
}
);
width = 570;
},
{
anchors = (
{
name = bottom;
position = "{294, 0}";
},
{
name = center;
position = "{438, 608}";
},
{
name = top;
position = "{473, 697}";
},
{
name = topright;
position = "{637, 493}";
}
);
layerId = m003;
paths = (
{
closed = 1;
nodes = (
"367 -8 OFFCURVE",
"432 42 OFFCURVE",
"458 128 CURVE",
"431 147 LINE",
"431 0 LINE",
"515 0 LINE",
"515 697 LINE",
"431 697 LINE",
"431 346 LINE",
"455 369 LINE",
"434 446 OFFCURVE",
"367 501 OFFCURVE",
"273 501 CURVE SMOOTH",
"149 501 OFFCURVE",
"49 402 OFFCURVE",
"49 247 CURVE SMOOTH",
"49 102 OFFCURVE",
"139 -8 OFFCURVE",
"273 -8 CURVE SMOOTH"
);
},
{
closed = 1;
nodes = (
"197 70 OFFCURVE",
"134 143 OFFCURVE",
"134 247 CURVE SMOOTH",
"134 351 OFFCURVE",
"197 424 OFFCURVE",
"287 424 CURVE SMOOTH",
"376 424 OFFCURVE",
"438 351 OFFCURVE",
"438 247 CURVE SMOOTH",
"438 143 OFFCURVE",
"376 70 OFFCURVE",
"287 70 CURVE SMOOTH"
);
}
);
width = 587;
}
);
leftKerningGroup = c;
note = d;
rightKerningGroup = d;
unicode = 0064;
},
{
color = 1;
glyphname = eth;
lastChange = "2021-03-07 19:58:54 +0000";
layers = (
{
layerId = "F91D9E91-C1BC-4259-B0D8-112C0CBA2B8E";
paths = (
{
closed = 1;
nodes = (
"484 -5 OFFCURVE",
"564 180 OFFCURVE",
"564 360 CURVE SMOOTH",
"564 588 OFFCURVE",
"489 702 OFFCURVE",
"171 707 CURVE",
"171 697 LINE",
"467 692 OFFCURVE",
"578 594 OFFCURVE",
"550 290 CURVE",
"546 391 OFFCURVE",
"495 510 OFFCURVE",
"362 510 CURVE SMOOTH",
"197 510 OFFCURVE",
"84 388 OFFCURVE",
"84 210 CURVE SMOOTH",
"84 82 OFFCURVE",
"165 -5 OFFCURVE",
"285 -5 CURVE SMOOTH"
);
},
{
closed = 1;
nodes = (
"171 5 OFFCURVE",
"94 87 OFFCURVE",
"94 210 CURVE SMOOTH",
"94 383 OFFCURVE",
"202 500 OFFCURVE",
"362 500 CURVE SMOOTH",
"513 500 OFFCURVE",
"559 335 OFFCURVE",
"538 232 CURVE SMOOTH",
"512 105 OFFCURVE",
"430 5 OFFCURVE",
"285 5 CURVE SMOOTH"
);
},
{
closed = 1;
nodes = (
"618 672 LINE",
"615 680 LINE",
"316 571 LINE",
"319 563 LINE"
);
}
);
width = 657;
},
{
layerId = "957254E3-B7AD-4837-9092-D4428001DE8E";
paths = (
{
closed = 1;
nodes = (
"453 -11 OFFCURVE",
"569 127 OFFCURVE",
"569 375 CURVE SMOOTH",
"569 582 OFFCURVE",
"488 716 OFFCURVE",
"248 738 CURVE",
"236 638 LINE",
"385 632 OFFCURVE",
"443 527 OFFCURVE",
"443 426 CURVE",
"412 473 OFFCURVE",
"351 487 OFFCURVE",
"301 487 CURVE SMOOTH",
"164 487 OFFCURVE",
"35 379 OFFCURVE",
"35 218 CURVE SMOOTH",
"35 87 OFFCURVE",
"121 -11 OFFCURVE",
"273 -11 CURVE SMOOTH"
);
},
{
closed = 1;
nodes = (
"226 118 OFFCURVE",
"176 150 OFFCURVE",
"176 220 CURVE SMOOTH",
"176 278 OFFCURVE",
"211 364 OFFCURVE",
"317 364 CURVE SMOOTH",
"383 364 OFFCURVE",
"420 330 OFFCURVE",
"425 282 CURVE SMOOTH",
"433 206 OFFCURVE",
"374 118 OFFCURVE",
"282 118 CURVE SMOOTH"
);
},
{
closed = 1;
nodes = (
"573 607 LINE",
"559 667 LINE",
"194 581 LINE",
"209 521 LINE"
);
}
);
width = 591;
},
{
layerId = m003;
paths = (
{
closed = 1;
nodes = (
"474 -8 OFFCURVE",
"573 153 OFFCURVE",
"573 368 CURVE SMOOTH",
"573 584 OFFCURVE",
"495 710 OFFCURVE",
"217 724 CURVE",
"211 666 LINE",
"429 661 OFFCURVE",
"512 559 OFFCURVE",
"499 362 CURVE",
"481 435 OFFCURVE",
"425 498 OFFCURVE",
"336 498 CURVE SMOOTH",
"185 498 OFFCURVE",
"64 383 OFFCURVE",
"64 215 CURVE SMOOTH",
"64 85 OFFCURVE",
"148 -8 OFFCURVE",
"285 -8 CURVE SMOOTH"
);
},
{
closed = 1;
nodes = (
"207 65 OFFCURVE",
"144 121 OFFCURVE",
"144 216 CURVE SMOOTH",
"144 327 OFFCURVE",
"213 428 OFFCURVE",
"344 428 CURVE SMOOTH",
"451 428 OFFCURVE",
"491 332 OFFCURVE",
"485 259 CURVE SMOOTH",
"475 153 OFFCURVE",
"402 65 OFFCURVE",
"290 65 CURVE SMOOTH"
);
},
{
closed = 1;
nodes = (
"600 638 LINE",
"591 674 LINE",
"258 577 LINE",
"267 541 LINE"
);
}
);
width = 619;
}
);
leftKerningGroup = c;
note = eth;
rightKerningGroup = d;
unicode = 00F0;
},
{
color = 1;
glyphname = e;
lastChange = "2021-03-07 19:58:54 +0000";
layers = (
{
anchors = (
{
name = bottom;
position = "{281, 0}";
},
{
name = ogonek;
position = "{333, 0}";
},
{
name = top;
position = "{273, 493}";
}
);
layerId = "F91D9E91-C1BC-4259-B0D8-112C0CBA2B8E";
paths = (
{
closed = 1;
nodes = (
"357 -5 OFFCURVE",
"402 14 OFFCURVE",
"460 70 CURVE",
"451 78 LINE",
"397 23 OFFCURVE",
"355 5 OFFCURVE",
"281 5 CURVE SMOOTH",
"160 5 OFFCURVE",
"81 95 OFFCURVE",
"81 251 CURVE",
"470 251 LINE",
"471 259 OFFCURVE",
"472 278 OFFCURVE",
"472 291 CURVE SMOOTH",
"472 376 OFFCURVE",
"422 498 OFFCURVE",
"273 498 CURVE SMOOTH",
"153 498 OFFCURVE",
"71 394 OFFCURVE",
"71 243 CURVE SMOOTH",
"71 93 OFFCURVE",
"154 -5 OFFCURVE",
"281 -5 CURVE SMOOTH"
);
},
{
closed = 1;
nodes = (
"465 260 LINE",
"81 260 LINE",
"88 394 OFFCURVE",
"164 488 OFFCURVE",
"273 488 CURVE SMOOTH",
"416 488 OFFCURVE",
"462 374 OFFCURVE",
"462 291 CURVE SMOOTH",
"462 281 OFFCURVE",
"462 269 OFFCURVE",
"461 257 CURVE"
);
}
);
width = 540;
},
{
anchors = (
{
name = bottom;
position = "{284, 0}";
},
{
name = ogonek;
position = "{366, 0}";
},
{
name = top;
position = "{277, 493}";
}
);
layerId = "957254E3-B7AD-4837-9092-D4428001DE8E";
paths = (
{
closed = 1;
nodes = (
"371 -11 OFFCURVE",
"441 22 OFFCURVE",
"493 81 CURVE",
"389 173 LINE",
"361 139 OFFCURVE",
"322 125 OFFCURVE",
"285 125 CURVE SMOOTH",
"220 125 OFFCURVE",
"190 155 OFFCURVE",
"184 194 CURVE",
"508 194 LINE",
"510 215 OFFCURVE",
"511 228 OFFCURVE",
"511 242 CURVE SMOOTH",
"511 394 OFFCURVE",
"430 504 OFFCURVE",
"276 504 CURVE SMOOTH",
"100 504 OFFCURVE",
"33 367 OFFCURVE",
"33 244 CURVE SMOOTH",
"33 117 OFFCURVE",
"102 -11 OFFCURVE",
"284 -11 CURVE SMOOTH"
);
},
{
closed = 1;
nodes = (
"413 305 LINE",
"182 305 LINE",
"188 337 OFFCURVE",
"212 379 OFFCURVE",
"279 379 CURVE SMOOTH",
"326 379 OFFCURVE",
"368 350 OFFCURVE",
"368 300 CURVE SMOOTH",
"368 291 OFFCURVE",
"366 280 OFFCURVE",
"363 269 CURVE"
);
}
);
width = 544;
},
{
anchors = (
{
name = bottom;
position = "{281, 0}";
},
{
name = ogonek;
position = "{348, 0}";
},
{
name = top;
position = "{274, 493}";
}
);
layerId = m003;
paths = (
{
closed = 1;
nodes = (
"362 -8 OFFCURVE",
"421 18 OFFCURVE",
"476 76 CURVE",
"417 128 LINE",
"379 87 OFFCURVE",
"339 69 OFFCURVE",
"282 69 CURVE SMOOTH",
"192 69 OFFCURVE",
"138 125 OFFCURVE",
"134 221 CURVE",
"489 221 LINE",
"491 235 OFFCURVE",
"492 259 OFFCURVE",
"492 265 CURVE SMOOTH",
"492 385 OFFCURVE",
"425 501 OFFCURVE",
"273 501 CURVE SMOOTH",
"124 501 OFFCURVE",
"50 380 OFFCURVE",
"50 243 CURVE SMOOTH",
"50 106 OFFCURVE",
"126 -8 OFFCURVE",
"281 -8 CURVE SMOOTH"
);
},
{
closed = 1;
nodes = (
"436 284 LINE",
"133 284 LINE",
"139 364 OFFCURVE",
"188 430 OFFCURVE",
"275 430 CURVE SMOOTH",
"367 430 OFFCURVE",
"411 361 OFFCURVE",
"411 296 CURVE SMOOTH",
"411 285 OFFCURVE",
"410 274 OFFCURVE",
"408 264 CURVE"
);
}
);
width = 541;
}
);
leftKerningGroup = c;
note = e;
rightKerningGroup = e;
unicode = 0065;
},
{
color = 1;
glyphname = f;
lastChange = "2021-03-07 19:58:54 +0000";
layers = (
{
anchors = (
{
name = bottom;
position = "{167, 0}";
},
{
name = top;
position = "{196, 697}";
}
);
layerId = "F91D9E91-C1BC-4259-B0D8-112C0CBA2B8E";
paths = (
{
closed = 1;
nodes = (
"172 0 LINE",
"172 483 LINE",
"305 483 LINE",
"305 493 LINE",
"172 493 LINE",
"172 580 LINE SMOOTH",
"172 656 OFFCURVE",
"208 692 OFFCURVE",
"271 692 CURVE SMOOTH",
"297 692 OFFCURVE",
"317 687 OFFCURVE",
"337 677 CURVE",
"341 685 LINE",
"322 696 OFFCURVE",
"299 702 OFFCURVE",
"271 702 CURVE SMOOTH",
"202 702 OFFCURVE",
"162 662 OFFCURVE",
"162 580 CURVE SMOOTH",
"162 493 LINE",
"36 493 LINE",
"36 483 LINE",
"162 483 LINE",
"162 0 LINE"
);
}
);
width = 341;
},
{
anchors = (
{
name = bottom;
position = "{176, 0}";
},
{
name = top;
position = "{174, 697}";
}
);
layerId = "957254E3-B7AD-4837-9092-D4428001DE8E";
paths = (
{
closed = 1;
nodes = (
"252 0 LINE",
"252 376 LINE",
"350 376 LINE",
"350 493 LINE",
"252 493 LINE",
"252 536 LINE SMOOTH",
"252 562 OFFCURVE",
"258 583 OFFCURVE",
"283 583 CURVE SMOOTH",
"296 583 OFFCURVE",
"309 577 OFFCURVE",
"321 571 CURVE",
"369 686 LINE",
"339 699 OFFCURVE",
"310 708 OFFCURVE",
"266 708 CURVE SMOOTH",
"179 708 OFFCURVE",
"102 674 OFFCURVE",
"102 537 CURVE SMOOTH",
"102 493 LINE",
"20 493 LINE",
"20 376 LINE",
"101 376 LINE",
"101 0 LINE"
);
}
);
width = 367;
},
{
anchors = (
{
name = bottom;
position = "{167, 0}";
},
{
name = top;
position = "{180, 697}";
}
);
layerId = m003;
paths = (
{
closed = 1;
nodes = (
"210 0 LINE",
"210 427 LINE",
"325 427 LINE",
"325 493 LINE",
"210 493 LINE",
"210 557 LINE SMOOTH",
"210 606 OFFCURVE",
"230 634 OFFCURVE",
"273 634 CURVE SMOOTH",
"291 634 OFFCURVE",
"309 629 OFFCURVE",
"324 621 CURVE",
"352 685 LINE",
"327 698 OFFCURVE",
"300 705 OFFCURVE",
"264 705 CURVE SMOOTH",
"186 705 OFFCURVE",
"126 669 OFFCURVE",
"126 557 CURVE SMOOTH",
"126 493 LINE",
"23 493 LINE",
"23 427 LINE",
"125 427 LINE",
"125 0 LINE"
);
}
);
width = 348;
}
);
leftKerningGroup = f;
note = f;
rightKerningGroup = f;
unicode = 0066;
},
{
color = 1;
glyphname = g;
lastChange = "2021-03-07 19:58:54 +0000";
layers = (
{
anchors = (
{
name = bottom;
position = "{279, -210}";
},
{
name = top;
position = "{255, 493}";
}
);
layerId = "F91D9E91-C1BC-4259-B0D8-112C0CBA2B8E";
paths = (
{
closed = 1;
nodes = (
"378 -210 OFFCURVE",
"454 -167 OFFCURVE",
"454 -85 CURVE SMOOTH",
"454 13 OFFCURVE",
"335 25 OFFCURVE",
"230 42 CURVE SMOOTH",
"149 56 OFFCURVE",
"83 72 OFFCURVE",
"83 139 CURVE SMOOTH",
"83 175 OFFCURVE",
"103 200 OFFCURVE",
"147 220 CURVE",
"143 230 LINE",
"95 208 OFFCURVE",
"73 180 OFFCURVE",
"73 139 CURVE SMOOTH",
"73 65 OFFCURVE",
"145 46 OFFCURVE",
"231 32 CURVE SMOOTH",
"333 15 OFFCURVE",
"444 4 OFFCURVE",
"444 -85 CURVE SMOOTH",
"444 -161 OFFCURVE",
"372 -200 OFFCURVE",
"271 -200 CURVE SMOOTH",
"141 -200 OFFCURVE",
"64 -151 OFFCURVE",
"64 -63 CURVE SMOOTH",
"64 -57 OFFCURVE",
"64 -51 OFFCURVE",
"65 -44 CURVE",
"159 49 LINE",
"148 53 LINE",
"55 -40 LINE",
"54 -48 OFFCURVE",
"54 -57 OFFCURVE",
"54 -63 CURVE SMOOTH",
"54 -157 OFFCURVE",
"136 -210 OFFCURVE",
"271 -210 CURVE SMOOTH"
);
},
{
closed = 1;
nodes = (
"350 184 OFFCURVE",
"418 246 OFFCURVE",
"418 338 CURVE SMOOTH",
"418 432 OFFCURVE",
"350 498 OFFCURVE",
"254 498 CURVE SMOOTH",
"156 498 OFFCURVE",
"86 432 OFFCURVE",
"86 339 CURVE SMOOTH",
"86 247 OFFCURVE",
"155 184 OFFCURVE",
"253 184 CURVE SMOOTH"
);
},
{
closed = 1;
nodes = (
"160 194 OFFCURVE",
"96 254 OFFCURVE",
"96 339 CURVE SMOOTH",
"96 426 OFFCURVE",
"162 488 OFFCURVE",
"254 488 CURVE SMOOTH",
"345 488 OFFCURVE",
"408 427 OFFCURVE",
"408 338 CURVE SMOOTH",
"408 253 OFFCURVE",
"345 194 OFFCURVE",
"253 194 CURVE SMOOTH"
);
},
{
closed = 1;
nodes = (
"472 501 LINE",
"466 509 LINE",
"382 431 LINE",
"389 424 LINE"
);
}
);
width = 492;
},
{
anchors = (
{
name = bottom;
position = "{268, -215}";
},
{
name = top;
position = "{260, 493}";
}
);
layerId = "957254E3-B7AD-4837-9092-D4428001DE8E";
paths = (
{
closed = 1;
nodes = (
"420 -215 OFFCURVE",
"502 -160 OFFCURVE",
"502 -59 CURVE SMOOTH",
"502 51 OFFCURVE",
"406 67 OFFCURVE",
"262 84 CURVE SMOOTH",
"201 91 OFFCURVE",
"162 97 OFFCURVE",
"162 126 CURVE SMOOTH",
"162 147 OFFCURVE",
"181 165 OFFCURVE",
"207 168 CURVE",
"135 240 LINE",
"77 208 OFFCURVE",
"40 168 OFFCURVE",
"40 102 CURVE SMOOTH",
"40 -9 OFFCURVE",
"144 -32 OFFCURVE",
"236 -42 CURVE SMOOTH",
"333 -53 OFFCURVE",
"352 -59 OFFCURVE",
"352 -79 CURVE SMOOTH",
"352 -101 OFFCURVE",
"326 -116 OFFCURVE",
"268 -116 CURVE SMOOTH",
"195 -116 OFFCURVE",
"152 -98 OFFCURVE",
"152 -73 CURVE SMOOTH",
"152 -71 OFFCURVE",
"152 -69 OFFCURVE",
"153 -66 CURVE",
"211 5 LINE",
"179 49 LINE",
"30 -35 LINE",
"27 -47 OFFCURVE",
"26 -59 OFFCURVE",
"26 -68 CURVE SMOOTH",
"26 -159 OFFCURVE",
"117 -215 OFFCURVE",
"268 -215 CURVE SMOOTH"
);
},
{
closed = 1;
nodes = (
"383 127 OFFCURVE",
"467 199 OFFCURVE",
"467 309 CURVE SMOOTH",
"467 429 OFFCURVE",
"366 504 OFFCURVE",
"254 504 CURVE SMOOTH",
"141 504 OFFCURVE",
"43 429 OFFCURVE",
"43 314 CURVE SMOOTH",
"43 206 OFFCURVE",
"129 127 OFFCURVE",
"259 127 CURVE SMOOTH"
);
},
{
closed = 1;
nodes = (
"211 245 OFFCURVE",
"194 277 OFFCURVE",
"194 314 CURVE SMOOTH",
"194 352 OFFCURVE",
"216 379 OFFCURVE",
"256 379 CURVE SMOOTH",
"295 379 OFFCURVE",
"317 353 OFFCURVE",
"317 314 CURVE SMOOTH",
"317 277 OFFCURVE",
"300 245 OFFCURVE",
"256 245 CURVE SMOOTH"
);
},
{
closed = 1;
nodes = (
"522 452 LINE",
"445 545 LINE",
"324 450 LINE",
"433 381 LINE"
);
}
);
width = 528;
},
{
anchors = (
{
name = bottom;
position = "{275, -213}";
},
{
name = top;
position = "{260, 493}";
}
);
layerId = m003;
paths = (
{
closed = 1;
nodes = (
"402 -213 OFFCURVE",
"481 -163 OFFCURVE",
"481 -72 CURVE SMOOTH",
"481 32 OFFCURVE",
"376 50 OFFCURVE",
"248 68 CURVE SMOOTH",
"176 78 OFFCURVE",
"134 90 OFFCURVE",
"134 133 CURVE SMOOTH",
"134 160 OFFCURVE",
"151 182 OFFCURVE",
"196 193 CURVE",
"141 236 LINE",
"88 208 OFFCURVE",
"53 174 OFFCURVE",
"53 120 CURVE SMOOTH",
"53 26 OFFCURVE",
"147 5 OFFCURVE",
"237 -8 CURVE SMOOTH",
"333 -21 OFFCURVE",
"398 -29 OFFCURVE",
"398 -82 CURVE SMOOTH",
"398 -129 OFFCURVE",
"344 -148 OFFCURVE",
"271 -148 CURVE SMOOTH",
"188 -148 OFFCURVE",
"125 -123 OFFCURVE",
"125 -69 CURVE SMOOTH",
"125 -65 OFFCURVE",
"125 -61 OFFCURVE",
"126 -56 CURVE",
"196 31 LINE",
"167 51 LINE",
"44 -38 LINE",
"41 -48 OFFCURVE",
"41 -59 OFFCURVE",
"41 -66 CURVE SMOOTH",
"41 -158 OFFCURVE",
"129 -213 OFFCURVE",
"271 -213 CURVE SMOOTH"
);
},
{
closed = 1;
nodes = (
"369 154 OFFCURVE",
"446 221 OFFCURVE",
"446 323 CURVE SMOOTH",
"446 431 OFFCURVE",
"360 501 OFFCURVE",
"256 501 CURVE SMOOTH",
"150 501 OFFCURVE",
"65 430 OFFCURVE",
"65 326 CURVE SMOOTH",
"65 226 OFFCURVE",
"144 154 OFFCURVE",
"259 154 CURVE SMOOTH"
);
},
{
closed = 1;
nodes = (
"190 223 OFFCURVE",
"149 269 OFFCURVE",
"149 329 CURVE SMOOTH",
"149 389 OFFCURVE",
"193 433 OFFCURVE",
"257 433 CURVE SMOOTH",
"320 433 OFFCURVE",
"362 390 OFFCURVE",
"362 328 CURVE SMOOTH",
"362 269 OFFCURVE",
"323 223 OFFCURVE",
"257 223 CURVE SMOOTH"
);
},
{
closed = 1;
nodes = (
"500 475 LINE",
"457 528 LINE",
"353 442 LINE",
"414 401 LINE"
);
}
);
width = 514;
}
);
leftKerningGroup = g;
note = g;
rightKerningGroup = g;
unicode = 0067;
},
{
color = 1;
glyphname = h;
lastChange = "2021-03-07 19:58:54 +0000";
layers = (
{
anchors = (
{
name = bottom;
position = "{259, 0}";
},
{
name = center;
position = "{135, 608}";
},
{
name = top;
position = "{96, 697}";
}
);
layerId = "F91D9E91-C1BC-4259-B0D8-112C0CBA2B8E";
paths = (
{
closed = 1;
nodes = (
"101 0 LINE",
"101 263 LINE SMOOTH",
"101 410 OFFCURVE",
"159 488 OFFCURVE",
"268 488 CURVE SMOOTH",
"368 488 OFFCURVE",
"417 423 OFFCURVE",
"417 293 CURVE SMOOTH",
"417 0 LINE",
"427 0 LINE",
"427 295 LINE SMOOTH",
"427 429 OFFCURVE",
"372 498 OFFCURVE",
"265 498 CURVE SMOOTH",
"176 498 OFFCURVE",
"120 450 OFFCURVE",
"100 355 CURVE",
"101 355 LINE",
"101 697 LINE",
"91 697 LINE",
"91 0 LINE"
);
}
);
width = 512;
},
{
anchors = (
{
name = bottom;
position = "{296, 0}";
},
{
name = center;
position = "{185, 589}";
},
{
name = top;
position = "{131, 697}";
}
);
layerId = "957254E3-B7AD-4837-9092-D4428001DE8E";
paths = (
{
closed = 1;
nodes = (
"205 0 LINE",
"205 230 LINE SMOOTH",
"205 329 OFFCURVE",
"234 373 OFFCURVE",
"298 373 CURVE SMOOTH",
"352 373 OFFCURVE",
"376 342 OFFCURVE",
"376 272 CURVE SMOOTH",
"376 0 LINE",
"527 0 LINE",
"527 328 LINE SMOOTH",
"527 436 OFFCURVE",
"459 504 OFFCURVE",
"345 504 CURVE SMOOTH",
"283 504 OFFCURVE",
"208 477 OFFCURVE",
"185 377 CURVE",
"205 377 LINE",
"205 697 LINE",
"54 697 LINE",
"54 0 LINE"
);
}
);
width = 576;
},
{
anchors = (
{
name = bottom;
position = "{280, 0}";
},
{
name = center;
position = "{162, 598}";
},
{
name = top;
position = "{115, 697}";
}
);
layerId = m003;
paths = (
{
closed = 1;
nodes = (
"157 0 LINE",
"157 246 LINE SMOOTH",
"157 372 OFFCURVE",
"203 428 OFFCURVE",
"285 428 CURVE SMOOTH",
"359 428 OFFCURVE",
"396 382 OFFCURVE",
"396 282 CURVE SMOOTH",
"396 0 LINE",
"481 0 LINE",
"481 313 LINE SMOOTH",
"481 437 OFFCURVE",
"416 501 OFFCURVE",
"308 501 CURVE SMOOTH",
"228 501 OFFCURVE",
"163 463 OFFCURVE",
"136 388 CURVE",
"157 388 LINE",
"157 697 LINE",
"72 697 LINE",
"72 0 LINE"
);
}
);
width = 547;
}
);
leftKerningGroup = h;
note = h;
rightKerningGroup = h;
unicode = 0068;
},
{
color = 1;
glyphname = idotless;
lastChange = "2021-03-07 19:58:54 +0000";
layers = (
{
anchors = (
{
name = bottom;
position = "{98, 0}";
},
{
name = ogonek;
position = "{103, 0}";
},
{
name = top;
position = "{98, 493}";
}
);
layerId = "F91D9E91-C1BC-4259-B0D8-112C0CBA2B8E";
paths = (
{
closed = 1;
nodes = (
"103 0 LINE",
"103 493 LINE",
"93 493 LINE",
"93 0 LINE"
);
}
);
width = 196;
},
{
anchors = (
{
name = bottom;
position = "{129, 0}";
},
{
name = ogonek;
position = "{204, 0}";
},
{
name = top;
position = "{129, 493}";
}
);
layerId = "957254E3-B7AD-4837-9092-D4428001DE8E";
paths = (
{
closed = 1;
nodes = (
"204 0 LINE",
"204 493 LINE",
"53 493 LINE",
"53 0 LINE"
);
}
);
width = 258;
},
{
anchors = (
{
name = bottom;
position = "{113, 0}";
},
{
name = ogonek;
position = "{155, 0}";
},
{
name = top;
position = "{113, 493}";
}
);
layerId = m003;
paths = (
{
closed = 1;
nodes = (
"155 0 LINE",
"155 493 LINE",
"71 493 LINE",
"71 0 LINE"
);
}
);
width = 226;
}
);
note = dotlessi;
unicode = 0131;
},
{
color = 1;
glyphname = jdotless;
lastChange = "2021-03-07 19:58:54 +0000";
layers = (
{
anchors = (
{
name = bottom;
position = "{98, -254}";
},
{
name = top;
position = "{98, 493}";
}
);
guideLines = (
{
position = "{511, -204}";
}
);
layerId = "F91D9E91-C1BC-4259-B0D8-112C0CBA2B8E";
paths = (
{
closed = 1;
nodes = (
"80 -209 OFFCURVE",
"103 -180 OFFCURVE",
"103 -114 CURVE SMOOTH",
"103 493 LINE",
"93 493 LINE",
"93 -114 LINE SMOOTH",
"93 -174 OFFCURVE",
"73 -200 OFFCURVE",
"33 -200 CURVE SMOOTH",
"18 -200 OFFCURVE",
"-1 -196 OFFCURVE",
"-22 -188 CURVE",
"-22 -199 LINE",
"-1 -205 OFFCURVE",
"19 -209 OFFCURVE",
"34 -209 CURVE SMOOTH"
);
}
);
width = 196;
},
{
anchors = (
{
name = bottom;
position = "{129, -254}";
},
{
name = top;
position = "{129, 493}";
}
);
guideLines = (
{
position = "{373, -204}";
}
);
layerId = "957254E3-B7AD-4837-9092-D4428001DE8E";
paths = (
{
closed = 1;
nodes = (
"149 -215 OFFCURVE",
"204 -172 OFFCURVE",
"204 -78 CURVE SMOOTH",
"204 493 LINE",
"53 493 LINE",
"53 -36 LINE SMOOTH",
"53 -70 OFFCURVE",
"39 -74 OFFCURVE",
"15 -74 CURVE SMOOTH",
"4 -74 OFFCURVE",
"-10 -72 OFFCURVE",
"-25 -69 CURVE",
"-25 -199 LINE",
"6 -209 OFFCURVE",
"42 -215 OFFCURVE",
"71 -215 CURVE SMOOTH"
);
}
);
width = 258;
},
{
anchors = (
{
name = bottom;
position = "{114, -254}";
},
{
name = top;
position = "{114, 493}";
}
);
guideLines = (
{
position = "{366, -204}";
}
);
layerId = m003;
paths = (
{
closed = 1;
nodes = (
"115 -212 OFFCURVE",
"155 -176 OFFCURVE",
"155 -95 CURVE SMOOTH",
"155 493 LINE",
"71 493 LINE",
"71 -73 LINE SMOOTH",
"71 -119 OFFCURVE",
"54 -134 OFFCURVE",
"22 -134 CURVE SMOOTH",
"12 -134 OFFCURVE",
"-4 -132 OFFCURVE",
"-25 -125 CURVE",
"-25 -199 LINE",
"2 -207 OFFCURVE",
"29 -212 OFFCURVE",
"52 -212 CURVE SMOOTH"
);
}
);
width = 226;
}
);
leftMetricsKey = "=i@200";
note = uni0237;
rightMetricsKey = "=i@200";
unicode = 0237;
},
{
color = 1;
glyphname = k;
lastChange = "2021-03-07 19:58:54 +0000";
layers = (
{
anchors = (
{
name = bottom;
position = "{242, 0}";
},
{
name = top;
position = "{96, 697}";
}
);
layerId = "F91D9E91-C1BC-4259-B0D8-112C0CBA2B8E";
paths = (
{
closed = 1;
nodes = (
"444 0 LINE",
"234 315 LINE",
"407 493 LINE",
"393 493 LINE",
"93 184 LINE",
"93 170 LINE",
"227 307 LINE",
"432 0 LINE"
);
},
{
closed = 1;
nodes = (
"101 0 LINE",
"101 697 LINE",
"91 697 LINE",
"91 0 LINE"
);
}
);
width = 486;
},
{
anchors = (
{
name = bottom;
position = "{295, 0}";
},
{
name = top;
position = "{130, 697}";
}
);
layerId = "957254E3-B7AD-4837-9092-D4428001DE8E";
paths = (
{
closed = 1;
nodes = (
"565 0 LINE",
"368 307 LINE",
"548 493 LINE",
"357 493 LINE",
"194 318 LINE",
"194 131 LINE",
"258 206 LINE",
"386 0 LINE"
);
},
{
closed = 1;
nodes = (
"205 0 LINE",
"205 697 LINE",
"54 697 LINE",
"54 0 LINE"
);
}
);
width = 578;
},
{
anchors = (
{
name = bottom;
position = "{270, 0}";
},
{
name = top;
position = "{114, 697}";
}
);
layerId = m003;
paths = (
{
closed = 1;
nodes = (
"508 0 LINE",
"305 311 LINE",
"482 493 LINE",
"373 493 LINE",
"146 259 LINE",
"146 150 LINE",
"243 254 LINE",
"407 0 LINE"
);
},
{
closed = 1;
nodes = (
"156 0 LINE",
"156 697 LINE",
"71 697 LINE",
"71 0 LINE"
);
}
);
width = 531;
}
);
leftKerningGroup = k;
note = k;
rightKerningGroup = k;
unicode = 006B;
},
{
color = 1;
glyphname = kgreenlandic;
lastChange = "2021-03-07 19:58:54 +0000";
layers = (
{
anchors = (
{
name = bottom;
position = "{242, 0}";
},
{
name = top;
position = "{242, 493}";
}
);
layerId = "F91D9E91-C1BC-4259-B0D8-112C0CBA2B8E";
paths = (
{
closed = 1;
nodes = (
"444 0 LINE",
"234 315 LINE",
"407 493 LINE",
"393 493 LINE",
"93 184 LINE",
"93 170 LINE",
"227 307 LINE",
"432 0 LINE"
);
},
{
closed = 1;
nodes = (
"101 0 LINE",
"101 493 LINE",
"91 493 LINE",
"91 0 LINE"
);
}
);
width = 502;
},
{
anchors = (
{
name = bottom;
position = "{295, 0}";
},
{
name = top;
position = "{288, 493}";
}
);
layerId = "957254E3-B7AD-4837-9092-D4428001DE8E";
paths = (
{
closed = 1;
nodes = (
"565 0 LINE",
"368 307 LINE",
"548 493 LINE",
"357 493 LINE",
"194 318 LINE",
"194 131 LINE",
"258 206 LINE",
"386 0 LINE"
);
},
{
closed = 1;
nodes = (
"205 0 LINE",
"205 493 LINE",
"54 493 LINE",
"54 0 LINE"
);
}
);
width = 589;
},
{
anchors = (
{
name = bottom;
position = "{271, 0}";
},
{
name = top;
position = "{267, 493}";
}
);
layerId = m003;
paths = (
{
closed = 1;
nodes = (
"508 0 LINE",
"305 311 LINE",
"482 493 LINE",
"373 493 LINE",
"146 259 LINE",
"146 150 LINE",
"243 254 LINE",
"407 0 LINE"
);
},
{
closed = 1;
nodes = (
"157 0 LINE",
"157 493 LINE",
"72 493 LINE",
"72 0 LINE"
);
}
);
width = 547;
}
);
leftKerningGroup = m;
leftMetricsKey = m;
note = kgreenlandic;
rightKerningGroup = k;
unicode = 0138;
},
{
color = 1;
glyphname = l;
lastChange = "2021-03-07 19:58:54 +0000";
layers = (
{
anchors = (
{
name = bottom;
position = "{138, 0}";
},
{
name = center;
position = "{118, 417}";
},
{
name = top;
position = "{96, 697}";
},
{
name = topright;
position = "{214, 493}";
}
);
layerId = "F91D9E91-C1BC-4259-B0D8-112C0CBA2B8E";
paths = (
{
closed = 1;
nodes = (
"176 -5 OFFCURVE",
"195 -1 OFFCURVE",
"216 6 CURVE",
"216 16 LINE",
"195 8 OFFCURVE",
"176 5 OFFCURVE",
"161 5 CURVE SMOOTH",
"122 5 OFFCURVE",
"101 30 OFFCURVE",
"101 90 CURVE SMOOTH",
"101 697 LINE",
"91 697 LINE",
"91 90 LINE SMOOTH",
"91 24 OFFCURVE",
"114 -5 OFFCURVE",
"160 -5 CURVE SMOOTH"
);
}
);
width = 268;
},
{
anchors = (
{
name = bottom;
position = "{139, 0}";
},
{
name = center;
position = "{129, 343}";
},
{
name = top;
position = "{126, 697}";
},
{
name = topright;
position = "{344, 493}";
}
);
layerId = "957254E3-B7AD-4837-9092-D4428001DE8E";
paths = (
{
closed = 1;
nodes = (
"201 -11 OFFCURVE",
"231 -7 OFFCURVE",
"262 5 CURVE",
"262 133 LINE",
"251 130 OFFCURVE",
"241 128 OFFCURVE",
"231 128 CURVE SMOOTH",
"214 128 OFFCURVE",
"201 135 OFFCURVE",
"201 155 CURVE SMOOTH",
"201 697 LINE",
"51 697 LINE",
"51 125 LINE SMOOTH",
"51 30 OFFCURVE",
"107 -11 OFFCURVE",
"179 -11 CURVE SMOOTH"
);
}
);
width = 290;
},
{
anchors = (
{
name = bottom;
position = "{139, 0}";
},
{
name = center;
position = "{130, 378}";
},
{
name = top;
position = "{112, 697}";
},
{
name = topright;
position = "{283, 493}";
}
);
layerId = m003;
paths = (
{
closed = 1;
nodes = (
"191 -8 OFFCURVE",
"218 -3 OFFCURVE",
"241 6 CURVE",
"241 78 LINE",
"225 73 OFFCURVE",
"210 70 OFFCURVE",
"198 70 CURVE SMOOTH",
"171 70 OFFCURVE",
"154 86 OFFCURVE",
"154 125 CURVE SMOOTH",
"154 697 LINE",
"70 697 LINE",
"70 109 LINE SMOOTH",
"70 28 OFFCURVE",
"111 -8 OFFCURVE",
"171 -8 CURVE SMOOTH"
);
}
);
width = 270;
}
);
leftKerningGroup = l;
note = l;
rightKerningGroup = l;
unicode = 006C;
},
{
color = 1;
glyphname = m;
lastChange = "2021-03-07 19:58:54 +0000";
layers = (
{
anchors = (
{
name = bottom;
position = "{397, 0}";
},
{
name = top;
position = "{397, 493}";
}
);
layerId = "F91D9E91-C1BC-4259-B0D8-112C0CBA2B8E";
paths = (
{
closed = 1;
nodes = (
"102 0 LINE",
"102 293 LINE SMOOTH",
"102 419 OFFCURVE",
"163 488 OFFCURVE",
"255 488 CURVE SMOOTH",
"349 488 OFFCURVE",
"397 427 OFFCURVE",
"397 293 CURVE SMOOTH",
"397 0 LINE",
"408 0 LINE",
"408 293 LINE SMOOTH",
"408 419 OFFCURVE",
"469 488 OFFCURVE",
"561 488 CURVE SMOOTH",
"672 488 OFFCURVE",
"704 403 OFFCURVE",
"704 280 CURVE SMOOTH",
"704 0 LINE",
"715 0 LINE",
"715 280 LINE SMOOTH",
"715 413 OFFCURVE",
"676 498 OFFCURVE",
"562 498 CURVE SMOOTH",
"479 498 OFFCURVE",
"421 446 OFFCURVE",
"402 350 CURVE",
"404 350 LINE",
"390 453 OFFCURVE",
"339 498 OFFCURVE",
"255 498 CURVE SMOOTH",
"178 498 OFFCURVE",
"120 454 OFFCURVE",
"100 367 CURVE",
"101 367 LINE",
"101 493 LINE",
"91 493 LINE",
"91 0 LINE"
);
}
);
width = 800;
},
{
anchors = (
{
name = bottom;
position = "{427, 0}";
},
{
name = top;
position = "{427, 493}";
}
);
layerId = "957254E3-B7AD-4837-9092-D4428001DE8E";
paths = (
{
closed = 1;
nodes = (
"205 0 LINE",
"205 239 LINE SMOOTH",
"205 330 OFFCURVE",
"231 373 OFFCURVE",
"288 373 CURVE SMOOTH",
"329 373 OFFCURVE",
"354 342 OFFCURVE",
"354 281 CURVE SMOOTH",
"354 0 LINE",
"504 0 LINE",
"504 239 LINE SMOOTH",
"504 331 OFFCURVE",
"529 373 OFFCURVE",
"583 373 CURVE SMOOTH",
"627 373 OFFCURVE",
"653 345 OFFCURVE",
"653 281 CURVE SMOOTH",
"653 0 LINE",
"804 0 LINE",
"804 318 LINE SMOOTH",
"804 407 OFFCURVE",
"748 504 OFFCURVE",
"619 504 CURVE SMOOTH",
"545 504 OFFCURVE",
"453 464 OFFCURVE",
"423 299 CURVE",
"514 341 LINE",
"491 475 OFFCURVE",
"408 504 OFFCURVE",
"340 504 CURVE SMOOTH",
"277 504 OFFCURVE",
"189 476 OFFCURVE",
"171 329 CURVE",
"205 364 LINE",
"205 493 LINE",
"54 493 LINE",
"54 0 LINE"
);
}
);
width = 852;
},
{
anchors = (
{
name = bottom;
position = "{414, 0}";
},
{
name = top;
position = "{414, 493}";
}
);
layerId = m003;
paths = (
{
closed = 1;
nodes = (
"157 0 LINE",
"157 265 LINE SMOOTH",
"157 372 OFFCURVE",
"200 428 OFFCURVE",
"273 428 CURVE SMOOTH",
"339 428 OFFCURVE",
"375 382 OFFCURVE",
"375 287 CURVE SMOOTH",
"375 0 LINE",
"460 0 LINE",
"460 265 LINE SMOOTH",
"460 373 OFFCURVE",
"502 428 OFFCURVE",
"574 428 CURVE SMOOTH",
"649 428 OFFCURVE",
"678 372 OFFCURVE",
"678 280 CURVE SMOOTH",
"678 0 LINE",
"762 0 LINE",
"762 300 LINE SMOOTH",
"762 409 OFFCURVE",
"715 501 OFFCURVE",
"593 501 CURVE SMOOTH",
"503 501 OFFCURVE",
"443 451 OFFCURVE",
"414 350 CURVE",
"463 345 LINE",
"447 450 OFFCURVE",
"388 501 OFFCURVE",
"298 501 CURVE SMOOTH",
"232 501 OFFCURVE",
"163 468 OFFCURVE",
"139 374 CURVE",
"157 366 LINE",
"157 493 LINE",
"72 493 LINE",
"72 0 LINE"
);
}
);
width = 828;
}
);
leftKerningGroup = m;
note = m;
rightKerningGroup = a;
unicode = 006D;
},
{
color = 1;
glyphname = n;
lastChange = "2021-03-07 19:58:54 +0000";
layers = (
{
anchors = (
{
name = bottom;
position = "{259, 0}";
},
{
name = top;
position = "{254, 493}";
}
);
layerId = "F91D9E91-C1BC-4259-B0D8-112C0CBA2B8E";
paths = (
{
closed = 1;
nodes = (
"101 0 LINE",
"101 263 LINE SMOOTH",
"101 419 OFFCURVE",
"165 488 OFFCURVE",
"268 488 CURVE SMOOTH",
"365 488 OFFCURVE",
"417 427 OFFCURVE",
"417 293 CURVE SMOOTH",
"417 0 LINE",
"427 0 LINE",
"427 295 LINE SMOOTH",
"427 438 OFFCURVE",
"366 498 OFFCURVE",
"265 498 CURVE SMOOTH",
"182 498 OFFCURVE",
"121 451 OFFCURVE",
"100 355 CURVE",
"101 355 LINE",
"101 493 LINE",
"91 493 LINE",
"91 0 LINE"
);
}
);
width = 513;
},
{
anchors = (
{
name = bottom;
position = "{280, 0}";
},
{
name = top;
position = "{280, 493}";
}
);
layerId = "957254E3-B7AD-4837-9092-D4428001DE8E";
paths = (
{
closed = 1;
nodes = (
"205 0 LINE",
"205 230 LINE SMOOTH",
"205 329 OFFCURVE",
"234 373 OFFCURVE",
"298 373 CURVE SMOOTH",
"352 373 OFFCURVE",
"376 342 OFFCURVE",
"376 272 CURVE SMOOTH",
"376 0 LINE",
"527 0 LINE",
"527 328 LINE SMOOTH",
"527 436 OFFCURVE",
"459 504 OFFCURVE",
"345 504 CURVE SMOOTH",
"283 504 OFFCURVE",
"208 477 OFFCURVE",
"185 377 CURVE",
"205 377 LINE",
"205 493 LINE",
"54 493 LINE",
"54 0 LINE"
);
}
);
width = 576;
},
{
anchors = (
{
name = bottom;
position = "{271, 0}";
},
{
name = top;
position = "{268, 493}";
}
);
layerId = m003;
paths = (
{
closed = 1;
nodes = (
"157 0 LINE",
"157 246 LINE SMOOTH",
"157 372 OFFCURVE",
"203 428 OFFCURVE",
"285 428 CURVE SMOOTH",
"359 428 OFFCURVE",
"396 382 OFFCURVE",
"396 282 CURVE SMOOTH",
"396 0 LINE",
"481 0 LINE",
"481 313 LINE SMOOTH",
"481 437 OFFCURVE",
"416 501 OFFCURVE",
"308 501 CURVE SMOOTH",
"228 501 OFFCURVE",
"163 463 OFFCURVE",
"136 388 CURVE",
"157 388 LINE",
"157 493 LINE",
"72 493 LINE",
"72 0 LINE"
);
}
);
width = 547;
}
);
leftKerningGroup = m;
note = n;
rightKerningGroup = a;
unicode = 006E;
},
{
glyphname = nhookleft;
lastChange = "2021-03-07 19:58:54 +0000";
layers = (
{
layerId = "F91D9E91-C1BC-4259-B0D8-112C0CBA2B8E";
paths = (
{
closed = 1;
nodes = (
"133 0 LINE",
"133 313 LINE SMOOTH",
"133 419 OFFCURVE",
"198 488 OFFCURVE",
"297 488 CURVE SMOOTH",
"397 488 OFFCURVE",
"449 428 OFFCURVE",
"449 313 CURVE SMOOTH",
"449 0 LINE",
"459 0 LINE",
"459 328 LINE SMOOTH",
"459 438 OFFCURVE",
"398 498 OFFCURVE",
"297 498 CURVE SMOOTH",
"214 498 OFFCURVE",
"153 454 OFFCURVE",
"132 380 CURVE",
"133 379 LINE",
"133 493 LINE",
"123 493 LINE",
"123 0 LINE"
);
},
{
closed = 1;
nodes = (
"110 -209 OFFCURVE",
"133 -180 OFFCURVE",
"133 -114 CURVE SMOOTH",
"133 0 LINE",
"123 0 LINE",
"123 -114 LINE SMOOTH",
"123 -174 OFFCURVE",
"103 -200 OFFCURVE",
"63 -200 CURVE SMOOTH",
"48 -200 OFFCURVE",
"29 -196 OFFCURVE",
"8 -188 CURVE",
"8 -199 LINE",
"29 -205 OFFCURVE",
"49 -209 OFFCURVE",
"64 -209 CURVE SMOOTH"
);
}
);
width = 544;
},
{
layerId = "957254E3-B7AD-4837-9092-D4428001DE8E";
paths = (
{
closed = 1;
nodes = (
"204 0 LINE",
"204 179 LINE SMOOTH",
"204 242 OFFCURVE",
"174 373 OFFCURVE",
"295 373 CURVE SMOOTH",
"384 373 OFFCURVE",
"375 296 OFFCURVE",
"375 290 CURVE SMOOTH",
"375 0 LINE",
"526 0 LINE",
"526 328 LINE SMOOTH",
"526 441 OFFCURVE",
"455 504 OFFCURVE",
"344 504 CURVE SMOOTH",
"267 504 OFFCURVE",
"203 474 OFFCURVE",
"173 392 CURVE",
"204 360 LINE",
"204 493 LINE",
"53 493 LINE",
"53 0 LINE"
);
},
{
closed = 1;
nodes = (
"150 -215 OFFCURVE",
"204 -172 OFFCURVE",
"204 -78 CURVE SMOOTH",
"204 0 LINE",
"53 0 LINE",
"53 -57 LINE SMOOTH",
"53 -80 OFFCURVE",
"43 -84 OFFCURVE",
"25 -84 CURVE SMOOTH",
"17 -84 OFFCURVE",
"8 -83 OFFCURVE",
"-8 -79 CURVE",
"-8 -199 LINE",
"22 -210 OFFCURVE",
"50 -215 OFFCURVE",
"77 -215 CURVE SMOOTH"
);
}
);
width = 575;
},
{
layerId = m003;
paths = (
{
closed = 1;
nodes = (
"159 0 LINE",
"159 242 LINE SMOOTH",
"159 324 OFFCURVE",
"174 428 OFFCURVE",
"285 428 CURVE SMOOTH",
"379 428 OFFCURVE",
"398 358 OFFCURVE",
"398 301 CURVE SMOOTH",
"398 0 LINE",
"483 0 LINE",
"483 328 LINE SMOOTH",
"483 439 OFFCURVE",
"417 501 OFFCURVE",
"310 501 CURVE SMOOTH",
"232 501 OFFCURVE",
"168 465 OFFCURVE",
"143 387 CURVE",
"159 369 LINE",
"159 493 LINE",
"75 493 LINE",
"75 0 LINE"
);
},
{
closed = 1;
nodes = (
"120 -212 OFFCURVE",
"159 -176 OFFCURVE",
"159 -95 CURVE SMOOTH",
"159 0 LINE",
"75 0 LINE",
"75 -84 LINE SMOOTH",
"75 -124 OFFCURVE",
"60 -139 OFFCURVE",
"31 -139 CURVE SMOOTH",
"22 -139 OFFCURVE",
"7 -137 OFFCURVE",
"-12 -130 CURVE",
"-12 -199 LINE",
"14 -208 OFFCURVE",
"38 -212 OFFCURVE",
"59 -212 CURVE SMOOTH"
);
}
);
width = 549;
}
);
leftKerningGroup = m;
rightKerningGroup = a;
rightMetricsKey = h;
unicode = 0272;
},
{
color = 1;
glyphname = eng;
lastChange = "2021-03-07 19:58:54 +0000";
layers = (
{
guideLines = (
{
position = "{541, -204}";
}
);
layerId = "F91D9E91-C1BC-4259-B0D8-112C0CBA2B8E";
paths = (
{
closed = 1;
nodes = (
"436 -209 OFFCURVE",
"459 -180 OFFCURVE",
"459 -114 CURVE SMOOTH",
"459 328 LINE SMOOTH",
"459 438 OFFCURVE",
"398 498 OFFCURVE",
"297 498 CURVE SMOOTH",
"214 498 OFFCURVE",
"153 454 OFFCURVE",
"132 380 CURVE",
"133 379 LINE",
"133 493 LINE",
"123 493 LINE",
"123 0 LINE",
"133 0 LINE",
"133 313 LINE SMOOTH",
"133 419 OFFCURVE",
"198 488 OFFCURVE",
"297 488 CURVE SMOOTH",
"397 488 OFFCURVE",
"449 428 OFFCURVE",
"449 313 CURVE SMOOTH",
"449 -114 LINE SMOOTH",
"449 -174 OFFCURVE",
"429 -200 OFFCURVE",
"389 -200 CURVE SMOOTH",
"374 -200 OFFCURVE",
"355 -196 OFFCURVE",
"334 -188 CURVE",
"334 -199 LINE",
"355 -205 OFFCURVE",
"375 -209 OFFCURVE",
"390 -209 CURVE SMOOTH"
);
}
);
width = 572;
},
{
guideLines = (
{
position = "{424, -204}";
}
);
layerId = "957254E3-B7AD-4837-9092-D4428001DE8E";
paths = (
{
closed = 1;
nodes = (
"497 -215 OFFCURVE",
"551 -172 OFFCURVE",
"551 -78 CURVE SMOOTH",
"551 328 LINE SMOOTH",
"551 441 OFFCURVE",
"480 504 OFFCURVE",
"369 504 CURVE SMOOTH",
"292 504 OFFCURVE",
"228 474 OFFCURVE",
"198 392 CURVE",
"229 360 LINE",
"229 493 LINE",
"78 493 LINE",
"78 0 LINE",
"229 0 LINE",
"229 179 LINE SMOOTH",
"229 242 OFFCURVE",
"199 373 OFFCURVE",
"320 373 CURVE SMOOTH",
"409 373 OFFCURVE",
"400 296 OFFCURVE",
"400 290 CURVE SMOOTH",
"400 -57 LINE SMOOTH",
"400 -80 OFFCURVE",
"390 -84 OFFCURVE",
"372 -84 CURVE SMOOTH",
"364 -84 OFFCURVE",
"355 -83 OFFCURVE",
"339 -79 CURVE",
"339 -199 LINE",
"369 -210 OFFCURVE",
"397 -215 OFFCURVE",
"424 -215 CURVE SMOOTH"
);
}
);
width = 619;
},
{
guideLines = (
{
position = "{406, -204}";
}
);
layerId = m003;
paths = (
{
closed = 1;
nodes = (
"472 -212 OFFCURVE",
"512 -176 OFFCURVE",
"512 -95 CURVE SMOOTH",
"512 328 LINE SMOOTH",
"512 440 OFFCURVE",
"445 501 OFFCURVE",
"339 501 CURVE SMOOTH",
"262 501 OFFCURVE",
"198 467 OFFCURVE",
"171 387 CURVE",
"188 369 LINE",
"188 493 LINE",
"103 493 LINE",
"103 0 LINE",
"188 0 LINE",
"188 242 LINE SMOOTH",
"188 326 OFFCURVE",
"203 428 OFFCURVE",
"313 428 CURVE SMOOTH",
"408 428 OFFCURVE",
"427 357 OFFCURVE",
"427 301 CURVE SMOOTH",
"427 -84 LINE SMOOTH",
"427 -124 OFFCURVE",
"412 -139 OFFCURVE",
"384 -139 CURVE SMOOTH",
"375 -139 OFFCURVE",
"359 -137 OFFCURVE",
"341 -130 CURVE",
"341 -199 LINE",
"367 -208 OFFCURVE",
"389 -212 OFFCURVE",
"412 -212 CURVE SMOOTH"
);
}
);
width = 605;
}
);
leftKerningGroup = m;
note = eng;
rightKerningGroup = a;
unicode = 014B;
},
{
color = 1;
glyphname = o;
lastChange = "2021-03-07 19:58:54 +0000";
layers = (
{
anchors = (
{
name = bottom;
position = "{293, 0}";
},
{
name = center;
position = "{293, 247}";
},
{
name = ogonek;
position = "{341, 0}";
},
{
name = top;
position = "{293, 493}";
},
{
name = topright;
position = "{526, 390}";
}
);
layerId = "F91D9E91-C1BC-4259-B0D8-112C0CBA2B8E";
paths = (
{
closed = 1;
nodes = (
"426 -5 OFFCURVE",
"517 98 OFFCURVE",
"517 247 CURVE SMOOTH",
"517 395 OFFCURVE",
"426 498 OFFCURVE",
"293 498 CURVE SMOOTH",
"160 498 OFFCURVE",
"69 395 OFFCURVE",
"69 247 CURVE SMOOTH",
"69 98 OFFCURVE",
"160 -5 OFFCURVE",
"293 -5 CURVE SMOOTH"
);
},
{
closed = 1;
nodes = (
"166 5 OFFCURVE",
"79 104 OFFCURVE",
"79 247 CURVE SMOOTH",
"79 389 OFFCURVE",
"166 488 OFFCURVE",
"293 488 CURVE SMOOTH",
"420 488 OFFCURVE",
"507 389 OFFCURVE",
"507 247 CURVE SMOOTH",
"507 104 OFFCURVE",
"420 5 OFFCURVE",
"293 5 CURVE SMOOTH"
);
}
);
width = 586;
},
{
anchors = (
{
name = bottom;
position = "{285, 0}";
},
{
name = center;
position = "{285, 247}";
},
{
name = ogonek;
position = "{361, 0}";
},
{
name = top;
position = "{285, 493}";
},
{
name = topright;
position = "{506, 326}";
}
);
layerId = "957254E3-B7AD-4837-9092-D4428001DE8E";
paths = (
{
closed = 1;
nodes = (
"430 -11 OFFCURVE",
"538 99 OFFCURVE",
"538 247 CURVE SMOOTH",
"538 396 OFFCURVE",
"431 504 OFFCURVE",
"285 504 CURVE SMOOTH",
"138 504 OFFCURVE",
"31 396 OFFCURVE",
"31 247 CURVE SMOOTH",
"31 98 OFFCURVE",
"139 -11 OFFCURVE",
"285 -11 CURVE SMOOTH"
);
},
{
closed = 1;
nodes = (
"219 121 OFFCURVE",
"182 166 OFFCURVE",
"182 247 CURVE SMOOTH",
"182 328 OFFCURVE",
"218 372 OFFCURVE",
"285 372 CURVE SMOOTH",
"351 372 OFFCURVE",
"387 328 OFFCURVE",
"387 247 CURVE SMOOTH",
"387 166 OFFCURVE",
"351 121 OFFCURVE",
"285 121 CURVE SMOOTH"
);
}
);
width = 569;
},
{
anchors = (
{
name = bottom;
position = "{288, 0}";
},
{
name = center;
position = "{288, 247}";
},
{
name = ogonek;
position = "{351, 0}";
},
{
name = top;
position = "{288, 493}";
},
{
name = topright;
position = "{514, 357}";
}
);
layerId = m003;
paths = (
{
closed = 1;
nodes = (
"426 -8 OFFCURVE",
"527 99 OFFCURVE",
"527 247 CURVE SMOOTH",
"527 395 OFFCURVE",
"427 501 OFFCURVE",
"288 501 CURVE SMOOTH",
"147 501 OFFCURVE",
"48 395 OFFCURVE",
"48 247 CURVE SMOOTH",
"48 98 OFFCURVE",
"149 -8 OFFCURVE",
"288 -8 CURVE SMOOTH"
);
},
{
closed = 1;
nodes = (
"193 67 OFFCURVE",
"132 138 OFFCURVE",
"132 247 CURVE SMOOTH",
"132 356 OFFCURVE",
"193 427 OFFCURVE",
"288 427 CURVE SMOOTH",
"382 427 OFFCURVE",
"442 357 OFFCURVE",
"442 247 CURVE SMOOTH",
"442 138 OFFCURVE",
"382 67 OFFCURVE",
"288 67 CURVE SMOOTH"
);
}
);
width = 576;
}
);
leftKerningGroup = c;
note = o;
rightKerningGroup = o;
unicode = 006F;
},
{
color = 1;
glyphname = p;
lastChange = "2021-03-07 20:17:35 +0000";
layers = (
{
anchors = (
{
name = bottom;
position = "{98, -204}";
},
{
name = bottomleft;
position = "{-13, 0}";
},
{
name = center;
position = "{135, -115}";
},
{
name = top;
position = "{297, 493}";
}
);
guideLines = (
{
position = "{350, -204}";
}
);
layerId = "F91D9E91-C1BC-4259-B0D8-112C0CBA2B8E";
paths = (
{
closed = 1;
nodes = (
"103 -204 LINE",
"103 172 LINE",
"102 171 LINE",
"128 67 OFFCURVE",
"211 -5 OFFCURVE",
"316 -5 CURVE SMOOTH",
"444 -5 OFFCURVE",
"542 103 OFFCURVE",
"542 246 CURVE SMOOTH",
"542 389 OFFCURVE",
"444 498 OFFCURVE",
"316 498 CURVE SMOOTH",
"211 498 OFFCURVE",
"128 426 OFFCURVE",
"102 321 CURVE",
"103 320 LINE",
"103 493 LINE",
"93 493 LINE",
"93 -204 LINE"
);
},
{
closed = 1;
nodes = (
"194 5 OFFCURVE",
"103 108 OFFCURVE",
"103 246 CURVE SMOOTH",
"103 384 OFFCURVE",
"194 488 OFFCURVE",
"316 488 CURVE SMOOTH",
"439 488 OFFCURVE",
"532 383 OFFCURVE",
"532 246 CURVE SMOOTH",
"532 109 OFFCURVE",
"439 5 OFFCURVE",
"316 5 CURVE SMOOTH"
);
}
);
width = 610;
},
{
anchors = (
{
name = bottom;
position = "{129, -204}";
},
{
name = bottomleft;
position = "{-83, 0}";
},
{
name = center;
position = "{154, -96}";
},
{
name = top;
position = "{275, 493}";
}
);
guideLines = (
{
position = "{391, -204}";
}
);
layerId = "957254E3-B7AD-4837-9092-D4428001DE8E";
paths = (
{
closed = 1;
nodes = (
"204 -204 LINE",
"204 124 LINE",
"177 146 LINE",
"193 29 OFFCURVE",
"265 -11 OFFCURVE",
"334 -11 CURVE SMOOTH",
"445 -11 OFFCURVE",
"535 81 OFFCURVE",
"535 246 CURVE SMOOTH",
"535 394 OFFCURVE",
"462 504 OFFCURVE",
"334 504 CURVE SMOOTH",
"274 504 OFFCURVE",
"198 480 OFFCURVE",
"173 341 CURVE",
"204 371 LINE",
"204 493 LINE",
"54 493 LINE",
"54 -204 LINE"
);
},
{
closed = 1;
nodes = (
"226 127 OFFCURVE",
"190 172 OFFCURVE",
"190 246 CURVE SMOOTH",
"190 321 OFFCURVE",
"226 366 OFFCURVE",
"287 366 CURVE SMOOTH",
"348 366 OFFCURVE",
"384 322 OFFCURVE",
"384 246 CURVE SMOOTH",
"384 171 OFFCURVE",
"348 127 OFFCURVE",
"287 127 CURVE SMOOTH"
);
}
);
width = 570;
},
{
anchors = (
{
name = bottom;
position = "{114, -204}";
},
{
name = bottomleft;
position = "{-50, 0}";
},
{
name = center;
position = "{149, -115}";
},
{
name = top;
position = "{293, 493}";
}
);
guideLines = (
{
position = "{367, -204}";
}
);
layerId = m003;
paths = (
{
closed = 1;
nodes = (
"156 -204 LINE",
"156 147 LINE",
"132 124 LINE",
"153 47 OFFCURVE",
"220 -8 OFFCURVE",
"314 -8 CURVE SMOOTH",
"438 -8 OFFCURVE",
"538 91 OFFCURVE",
"538 246 CURVE SMOOTH",
"538 391 OFFCURVE",
"448 501 OFFCURVE",
"314 501 CURVE SMOOTH",
"220 501 OFFCURVE",
"155 451 OFFCURVE",
"129 365 CURVE",
"156 346 LINE",
"156 493 LINE",
"72 493 LINE",
"72 -204 LINE"
);
},
{
closed = 1;
nodes = (
"211 69 OFFCURVE",
"149 142 OFFCURVE",
"149 246 CURVE SMOOTH",
"149 350 OFFCURVE",
"211 423 OFFCURVE",
"300 423 CURVE SMOOTH",
"390 423 OFFCURVE",
"453 350 OFFCURVE",
"453 246 CURVE SMOOTH",
"453 142 OFFCURVE",
"390 69 OFFCURVE",
"300 69 CURVE SMOOTH"
);
}
);
width = 587;
}
);
leftKerningGroup = m;
note = p;
rightKerningGroup = p;
unicode = 0070;
},
{
color = 1;
glyphname = thorn;
lastChange = "2021-03-07 19:58:54 +0000";
layers = (
{
anchors = (
{
name = bottom;
position = "{320, 0}";
},
{
name = top;
position = "{320, 493}";
}
);
guideLines = (
{
position = "{541, -204}";
}
);
layerId = "F91D9E91-C1BC-4259-B0D8-112C0CBA2B8E";
paths = (
{
closed = 1;
nodes = (
"134 -204 LINE",
"134 172 LINE",
"133 171 LINE",
"159 67 OFFCURVE",
"242 -5 OFFCURVE",
"347 -5 CURVE SMOOTH",
"476 -5 OFFCURVE",
"553 103 OFFCURVE",
"553 245 CURVE SMOOTH",
"553 389 OFFCURVE",
"476 498 OFFCURVE",
"347 498 CURVE SMOOTH",
"242 498 OFFCURVE",
"159 426 OFFCURVE",
"133 321 CURVE",
"134 320 LINE",
"134 697 LINE",
"124 697 LINE",
"124 -204 LINE"
);
},
{
closed = 1;
nodes = (
"225 5 OFFCURVE",
"134 108 OFFCURVE",
"134 245 CURVE SMOOTH",
"134 384 OFFCURVE",
"225 488 OFFCURVE",
"347 488 CURVE SMOOTH",
"471 488 OFFCURVE",
"543 383 OFFCURVE",
"543 245 CURVE SMOOTH",
"543 109 OFFCURVE",
"471 5 OFFCURVE",
"347 5 CURVE SMOOTH"
);
}
);
width = 639;
},
{
anchors = (
{
name = bottom;
position = "{298, 0}";
},
{
name = top;
position = "{298, 493}";
}
);
guideLines = (
{
position = "{424, -204}";
}
);
layerId = "957254E3-B7AD-4837-9092-D4428001DE8E";
paths = (
{
closed = 1;
nodes = (
"230 -204 LINE",
"230 124 LINE",
"204 82 LINE",
"219 27 OFFCURVE",
"293 -11 OFFCURVE",
"359 -11 CURVE SMOOTH",
"466 -11 OFFCURVE",
"560 76 OFFCURVE",
"560 245 CURVE SMOOTH",
"560 390 OFFCURVE",
"491 504 OFFCURVE",
"359 504 CURVE SMOOTH",
"299 504 OFFCURVE",
"223 479 OFFCURVE",
"199 405 CURVE",
"230 371 LINE",
"230 697 LINE",
"79 697 LINE",
"79 -204 LINE"
);
},
{
closed = 1;
nodes = (
"242 120 OFFCURVE",
"216 177 OFFCURVE",
"216 247 CURVE SMOOTH",
"216 317 OFFCURVE",
"239 372 OFFCURVE",
"319 372 CURVE SMOOTH",
"386 372 OFFCURVE",
"410 332 OFFCURVE",
"410 247 CURVE SMOOTH",
"410 161 OFFCURVE",
"382 120 OFFCURVE",
"317 120 CURVE SMOOTH"
);
}
);
width = 601;
},
{
anchors = (
{
name = bottom;
position = "{312, 0}";
},
{
name = top;
position = "{312, 493}";
}
);
guideLines = (
{
position = "{406, -204}";
}
);
layerId = m003;
paths = (
{
closed = 1;
nodes = (
"189 -204 LINE",
"189 147 LINE",
"175 124 LINE",
"195 45 OFFCURVE",
"274 -8 OFFCURVE",
"358 -8 CURVE SMOOTH",
"475 -8 OFFCURVE",
"561 89 OFFCURVE",
"561 245 CURVE SMOOTH",
"561 390 OFFCURVE",
"488 501 OFFCURVE",
"358 501 CURVE SMOOTH",
"276 501 OFFCURVE",
"197 454 OFFCURVE",
"172 366 CURVE",
"189 347 LINE",
"189 697 LINE",
"104 697 LINE",
"104 -204 LINE"
);
},
{
closed = 1;
nodes = (
"238 66 OFFCURVE",
"181 145 OFFCURVE",
"181 246 CURVE SMOOTH",
"181 348 OFFCURVE",
"237 427 OFFCURVE",
"336 427 CURVE SMOOTH",
"430 427 OFFCURVE",
"477 355 OFFCURVE",
"477 246 CURVE SMOOTH",
"477 137 OFFCURVE",
"428 66 OFFCURVE",
"335 66 CURVE SMOOTH"
);
}
);
width = 627;
}
);
leftKerningGroup = b;
note = thorn;
rightKerningGroup = o;
unicode = 00FE;
},
{
color = 1;
glyphname = q;
lastChange = "2021-03-07 20:17:43 +0000";
layers = (
{
anchors = (
{
name = bottom;
position = "{512, -204}";
},
{
name = bottomright;
position = "{623, 0}";
},
{
name = center;
position = "{475, -115}";
},
{
name = top;
position = "{313, 493}";
}
);
guideLines = (
{
position = "{366, -204}";
}
);
layerId = "F91D9E91-C1BC-4259-B0D8-112C0CBA2B8E";
paths = (
{
closed = 1;
nodes = (
"517 -204 LINE",
"517 493 LINE",
"507 493 LINE",
"507 320 LINE",
"508 321 LINE",
"482 426 OFFCURVE",
"399 498 OFFCURVE",
"294 498 CURVE SMOOTH",
"166 498 OFFCURVE",
"68 389 OFFCURVE",
"68 246 CURVE SMOOTH",
"68 103 OFFCURVE",
"166 -5 OFFCURVE",
"294 -5 CURVE SMOOTH",
"399 -5 OFFCURVE",
"482 67 OFFCURVE",
"508 171 CURVE",
"507 172 LINE",
"507 -204 LINE"
);
},
{
closed = 1;
nodes = (
"171 5 OFFCURVE",
"78 109 OFFCURVE",
"78 246 CURVE SMOOTH",
"78 383 OFFCURVE",
"171 488 OFFCURVE",
"294 488 CURVE SMOOTH",
"416 488 OFFCURVE",
"507 384 OFFCURVE",
"507 246 CURVE SMOOTH",
"507 108 OFFCURVE",
"416 5 OFFCURVE",
"294 5 CURVE SMOOTH"
);
}
);
width = 610;
},
{
anchors = (
{
name = bottom;
position = "{441, -204}";
},
{
name = bottomright;
position = "{653, 0}";
},
{
name = center;
position = "{416, -96}";
},
{
name = top;
position = "{295, 493}";
}
);
guideLines = (
{
position = "{411, -204}";
}
);
layerId = "957254E3-B7AD-4837-9092-D4428001DE8E";
paths = (
{
closed = 1;
nodes = (
"516 -204 LINE",
"516 493 LINE",
"366 493 LINE",
"366 371 LINE",
"397 341 LINE",
"372 480 OFFCURVE",
"296 504 OFFCURVE",
"236 504 CURVE SMOOTH",
"108 504 OFFCURVE",
"35 394 OFFCURVE",
"35 246 CURVE SMOOTH",
"35 81 OFFCURVE",
"125 -11 OFFCURVE",
"236 -11 CURVE SMOOTH",
"305 -11 OFFCURVE",
"377 29 OFFCURVE",
"393 146 CURVE",
"366 124 LINE",
"366 -204 LINE"
);
},
{
closed = 1;
nodes = (
"222 127 OFFCURVE",
"186 171 OFFCURVE",
"186 246 CURVE SMOOTH",
"186 322 OFFCURVE",
"222 366 OFFCURVE",
"283 366 CURVE SMOOTH",
"344 366 OFFCURVE",
"380 321 OFFCURVE",
"380 246 CURVE SMOOTH",
"380 172 OFFCURVE",
"344 127 OFFCURVE",
"283 127 CURVE SMOOTH"
);
}
);
width = 570;
},
{
anchors = (
{
name = bottom;
position = "{473, -204}";
},
{
name = bottomright;
position = "{637, 0}";
},
{
name = center;
position = "{438, -115}";
},
{
name = top;
position = "{294, 493}";
}
);
guideLines = (
{
position = "{383, -204}";
}
);
layerId = m003;
paths = (
{
closed = 1;
nodes = (
"515 -204 LINE",
"515 493 LINE",
"431 493 LINE",
"431 346 LINE",
"458 365 LINE",
"432 451 OFFCURVE",
"367 501 OFFCURVE",
"273 501 CURVE SMOOTH",
"139 501 OFFCURVE",
"49 391 OFFCURVE",
"49 246 CURVE SMOOTH",
"49 91 OFFCURVE",
"149 -8 OFFCURVE",
"273 -8 CURVE SMOOTH",
"367 -8 OFFCURVE",
"434 47 OFFCURVE",
"455 124 CURVE",
"431 147 LINE",
"431 -204 LINE"
);
},
{
closed = 1;
nodes = (
"197 69 OFFCURVE",
"134 142 OFFCURVE",
"134 246 CURVE SMOOTH",
"134 350 OFFCURVE",
"197 423 OFFCURVE",
"287 423 CURVE SMOOTH",
"376 423 OFFCURVE",
"438 350 OFFCURVE",
"438 246 CURVE SMOOTH",
"438 142 OFFCURVE",
"376 69 OFFCURVE",
"287 69 CURVE SMOOTH"
);
}
);
width = 587;
}
);
leftKerningGroup = c;
note = q;
rightKerningGroup = i;
unicode = 0071;
},
{
color = 1;
glyphname = r;
lastChange = "2021-03-07 19:58:54 +0000";
layers = (
{
anchors = (
{
name = bottom;
position = "{177, 0}";
},
{
name = top;
position = "{177, 493}";
}
);
layerId = "F91D9E91-C1BC-4259-B0D8-112C0CBA2B8E";
paths = (
{
closed = 1;
nodes = (
"101 0 LINE",
"101 265 LINE SMOOTH",
"101 318 OFFCURVE",
"104 343 OFFCURVE",
"110 364 CURVE SMOOTH",
"135 454 OFFCURVE",
"212 488 OFFCURVE",
"273 488 CURVE SMOOTH",
"293 488 OFFCURVE",
"313 484 OFFCURVE",
"331 477 CURVE",
"337 486 LINE",
"317 494 OFFCURVE",
"295 498 OFFCURVE",
"273 498 CURVE SMOOTH",
"209 498 OFFCURVE",
"127 461 OFFCURVE",
"100 365 CURVE",
"101 365 LINE",
"101 493 LINE",
"91 493 LINE",
"91 0 LINE"
);
}
);
width = 372;
},
{
anchors = (
{
name = bottom;
position = "{200, 0}";
},
{
name = top;
position = "{200, 493}";
}
);
layerId = "957254E3-B7AD-4837-9092-D4428001DE8E";
paths = (
{
closed = 1;
nodes = (
"205 0 LINE",
"205 199 LINE SMOOTH",
"205 255 OFFCURVE",
"208 279 OFFCURVE",
"215 298 CURVE SMOOTH",
"229 336 OFFCURVE",
"258 354 OFFCURVE",
"293 354 CURVE SMOOTH",
"317 354 OFFCURVE",
"343 345 OFFCURVE",
"357 336 CURVE",
"429 472 LINE",
"394 495 OFFCURVE",
"364 504 OFFCURVE",
"330 504 CURVE SMOOTH",
"259 504 OFFCURVE",
"190 442 OFFCURVE",
"188 358 CURVE",
"206 358 LINE",
"206 493 LINE",
"54 493 LINE",
"54 0 LINE"
);
}
);
width = 439;
},
{
anchors = (
{
name = bottom;
position = "{189, 0}";
},
{
name = top;
position = "{189, 493}";
}
);
layerId = m003;
paths = (
{
closed = 1;
nodes = (
"156 0 LINE",
"156 231 LINE SMOOTH",
"156 286 OFFCURVE",
"159 308 OFFCURVE",
"165 329 CURVE SMOOTH",
"185 392 OFFCURVE",
"236 417 OFFCURVE",
"284 417 CURVE SMOOTH",
"304 417 OFFCURVE",
"328 411 OFFCURVE",
"344 403 CURVE",
"386 479 LINE",
"357 495 OFFCURVE",
"330 501 OFFCURVE",
"303 501 CURVE SMOOTH",
"233 501 OFFCURVE",
"145 449 OFFCURVE",
"131 361 CURVE",
"156 361 LINE",
"156 493 LINE",
"71 493 LINE",
"71 0 LINE"
);
}
);
width = 406;
}
);
leftKerningGroup = m;
note = r;
rightKerningGroup = r;
unicode = 0072;
},
{
color = 1;
glyphname = s;
lastChange = "2021-03-07 19:58:54 +0000";
layers = (
{
anchors = (
{
name = bottom;
position = "{218, 0}";
},
{
name = top;
position = "{218, 493}";
}
);
layerId = "F91D9E91-C1BC-4259-B0D8-112C0CBA2B8E";
paths = (
{
closed = 1;
nodes = (
"331 -5 OFFCURVE",
"392 46 OFFCURVE",
"392 127 CURVE SMOOTH",
"392 229 OFFCURVE",
"303 249 OFFCURVE",
"218 269 CURVE SMOOTH",
"141 287 OFFCURVE",
"80 308 OFFCURVE",
"80 381 CURVE SMOOTH",
"80 443 OFFCURVE",
"136 488 OFFCURVE",
"216 488 CURVE SMOOTH",
"283 488 OFFCURVE",
"334 459 OFFCURVE",
"366 395 CURVE",
"375 399 LINE",
"345 465 OFFCURVE",
"286 498 OFFCURVE",
"216 498 CURVE SMOOTH",
"130 498 OFFCURVE",
"70 449 OFFCURVE",
"70 381 CURVE SMOOTH",
"70 301 OFFCURVE",
"135 279 OFFCURVE",
"215 260 CURVE SMOOTH",
"298 240 OFFCURVE",
"382 221 OFFCURVE",
"382 127 CURVE SMOOTH",
"382 50 OFFCURVE",
"322 5 OFFCURVE",
"233 5 CURVE SMOOTH",
"143 5 OFFCURVE",
"75 51 OFFCURVE",
"51 120 CURVE",
"42 116 LINE",
"68 42 OFFCURVE",
"140 -5 OFFCURVE",
"233 -5 CURVE SMOOTH"
);
}
);
width = 459;
},
{
anchors = (
{
name = bottom;
position = "{237, 0}";
},
{
name = top;
position = "{237, 493}";
}
);
layerId = "957254E3-B7AD-4837-9092-D4428001DE8E";
paths = (
{
closed = 1;
nodes = (
"356 -11 OFFCURVE",
"441 59 OFFCURVE",
"441 162 CURVE SMOOTH",
"441 280 OFFCURVE",
"332 307 OFFCURVE",
"255 326 CURVE SMOOTH",
"194 341 OFFCURVE",
"178 349 OFFCURVE",
"178 365 CURVE SMOOTH",
"178 381 OFFCURVE",
"199 393 OFFCURVE",
"228 393 CURVE SMOOTH",
"266 393 OFFCURVE",
"305 373 OFFCURVE",
"329 341 CURVE",
"421 415 LINE",
"382 472 OFFCURVE",
"313 504 OFFCURVE",
"232 504 CURVE SMOOTH",
"115 504 OFFCURVE",
"37 443 OFFCURVE",
"37 351 CURVE SMOOTH",
"37 242 OFFCURVE",
"137 213 OFFCURVE",
"212 192 CURVE SMOOTH",
"257 179 OFFCURVE",
"293 169 OFFCURVE",
"293 145 CURVE SMOOTH",
"293 127 OFFCURVE",
"271 109 OFFCURVE",
"231 109 CURVE SMOOTH",
"173 109 OFFCURVE",
"139 148 OFFCURVE",
"116 176 CURVE",
"14 86 LINE",
"49 50 OFFCURVE",
"114 -11 OFFCURVE",
"230 -11 CURVE SMOOTH"
);
}
);
width = 473;
},
{
anchors = (
{
name = bottom;
position = "{232, 0}";
},
{
name = top;
position = "{232, 493}";
}
);
layerId = m003;
paths = (
{
closed = 1;
nodes = (
"348 -8 OFFCURVE",
"422 53 OFFCURVE",
"422 146 CURVE SMOOTH",
"422 257 OFFCURVE",
"323 280 OFFCURVE",
"240 300 CURVE SMOOTH",
"171 316 OFFCURVE",
"135 331 OFFCURVE",
"135 373 CURVE SMOOTH",
"135 410 OFFCURVE",
"174 433 OFFCURVE",
"226 433 CURVE SMOOTH",
"278 433 OFFCURVE",
"323 413 OFFCURVE",
"350 367 CURVE",
"404 407 LINE",
"369 469 OFFCURVE",
"303 501 OFFCURVE",
"229 501 CURVE SMOOTH",
"126 501 OFFCURVE",
"57 446 OFFCURVE",
"57 365 CURVE SMOOTH",
"57 271 OFFCURVE",
"140 244 OFFCURVE",
"216 225 CURVE SMOOTH",
"282 208 OFFCURVE",
"339 193 OFFCURVE",
"339 137 CURVE SMOOTH",
"339 91 OFFCURVE",
"299 63 OFFCURVE",
"236 63 CURVE SMOOTH",
"167 63 OFFCURVE",
"115 99 OFFCURVE",
"90 150 CURVE",
"31 100 LINE",
"64 43 OFFCURVE",
"134 -8 OFFCURVE",
"235 -8 CURVE SMOOTH"
);
}
);
width = 470;
}
);
leftKerningGroup = s;
note = s;
rightKerningGroup = s;
unicode = 0073;
},
{
color = 1;
glyphname = germandbls;
lastChange = "2021-03-07 19:58:54 +0000";
layers = (
{
layerId = "F91D9E91-C1BC-4259-B0D8-112C0CBA2B8E";
paths = (
{
closed = 1;
nodes = (
"490 -5 OFFCURVE",
"550 44 OFFCURVE",
"550 127 CURVE SMOOTH",
"550 324 OFFCURVE",
"225 211 OFFCURVE",
"225 382 CURVE SMOOTH",
"225 544 OFFCURVE",
"457 451 OFFCURVE",
"457 584 CURVE SMOOTH",
"457 650 OFFCURVE",
"384 702 OFFCURVE",
"292 702 CURVE SMOOTH",
"116 702 OFFCURVE",
"92 593 OFFCURVE",
"92 493 CURVE SMOOTH",
"92 0 LINE",
"102 0 LINE",
"102 493 LINE SMOOTH",
"102 589 OFFCURVE",
"123 692 OFFCURVE",
"292 692 CURVE SMOOTH",
"376 692 OFFCURVE",
"447 646 OFFCURVE",
"447 584 CURVE SMOOTH",
"447 462 OFFCURVE",
"215 552 OFFCURVE",
"215 382 CURVE SMOOTH",
"215 200 OFFCURVE",
"540 314 OFFCURVE",
"540 127 CURVE SMOOTH",
"540 51 OFFCURVE",
"484 5 OFFCURVE",
"391 5 CURVE SMOOTH",
"305 5 OFFCURVE",
"233 51 OFFCURVE",
"209 120 CURVE",
"199 116 LINE",
"225 42 OFFCURVE",
"301 -5 OFFCURVE",
"391 -5 CURVE SMOOTH"
);
}
);
width = 606;
},
{
layerId = "957254E3-B7AD-4837-9092-D4428001DE8E";
paths = (
{
closed = 1;
nodes = (
"526 -11 OFFCURVE",
"636 39 OFFCURVE",
"636 163 CURVE SMOOTH",
"636 340 OFFCURVE",
"410 315 OFFCURVE",
"410 344 CURVE SMOOTH",
"410 370 OFFCURVE",
"593 383 OFFCURVE",
"593 538 CURVE SMOOTH",
"593 653 OFFCURVE",
"493 707 OFFCURVE",
"344 707 CURVE SMOOTH",
"108 707 OFFCURVE",
"54 571 OFFCURVE",
"54 427 CURVE SMOOTH",
"54 0 LINE",
"211 0 LINE",
"211 427 LINE SMOOTH",
"211 480 OFFCURVE",
"208 566 OFFCURVE",
"356 566 CURVE SMOOTH",
"395 566 OFFCURVE",
"445 560 OFFCURVE",
"445 533 CURVE SMOOTH",
"445 481 OFFCURVE",
"262 495 OFFCURVE",
"262 344 CURVE SMOOTH",
"262 176 OFFCURVE",
"488 209 OFFCURVE",
"488 148 CURVE SMOOTH",
"488 132 OFFCURVE",
"473 114 OFFCURVE",
"433 114 CURVE SMOOTH",
"369 114 OFFCURVE",
"354 158 OFFCURVE",
"344 185 CURVE",
"224 132 LINE",
"247 56 OFFCURVE",
"327 -11 OFFCURVE",
"435 -11 CURVE SMOOTH"
);
}
);
width = 663;
},
{
layerId = m003;
paths = (
{
closed = 1;
nodes = (
"509 -8 OFFCURVE",
"596 42 OFFCURVE",
"596 146 CURVE SMOOTH",
"596 332 OFFCURVE",
"323 266 OFFCURVE",
"323 362 CURVE SMOOTH",
"323 452 OFFCURVE",
"529 415 OFFCURVE",
"529 560 CURVE SMOOTH",
"529 652 OFFCURVE",
"442 705 OFFCURVE",
"320 705 CURVE SMOOTH",
"112 705 OFFCURVE",
"72 581 OFFCURVE",
"72 459 CURVE SMOOTH",
"72 0 LINE",
"160 0 LINE",
"160 459 LINE SMOOTH",
"160 517 OFFCURVE",
"159 626 OFFCURVE",
"326 626 CURVE SMOOTH",
"385 626 OFFCURVE",
"446 601 OFFCURVE",
"446 558 CURVE SMOOTH",
"446 473 OFFCURVE",
"240 522 OFFCURVE",
"240 362 CURVE SMOOTH",
"240 187 OFFCURVE",
"513 258 OFFCURVE",
"513 138 CURVE SMOOTH",
"513 95 OFFCURVE",
"478 63 OFFCURVE",
"414 63 CURVE SMOOTH",
"343 63 OFFCURVE",
"299 104 OFFCURVE",
"280 155 CURVE",
"212 124 LINE",
"237 49 OFFCURVE",
"317 -8 OFFCURVE",
"415 -8 CURVE SMOOTH"
);
}
);
width = 634;
}
);
leftKerningGroup = germandbls;
rightKerningGroup = germandbls;
unicode = 00DF;
},
{
color = 1;
glyphname = t;
lastChange = "2021-03-07 19:58:54 +0000";
layers = (
{
anchors = (
{
name = bottom;
position = "{213, 0}";
},
{
name = center;
position = "{183, 247}";
},
{
name = top;
position = "{190, 493}";
},
{
name = topright;
position = "{322, 572}";
}
);
layerId = "F91D9E91-C1BC-4259-B0D8-112C0CBA2B8E";
paths = (
{
closed = 1;
nodes = (
"254 -5 OFFCURVE",
"275 -1 OFFCURVE",
"298 5 CURVE",
"298 16 LINE",
"275 8 OFFCURVE",
"254 5 OFFCURVE",
"237 5 CURVE SMOOTH",
"192 5 OFFCURVE",
"171 36 OFFCURVE",
"171 90 CURVE SMOOTH",
"171 667 LINE",
"161 657 LINE",
"161 90 LINE SMOOTH",
"161 31 OFFCURVE",
"182 -5 OFFCURVE",
"237 -5 CURVE SMOOTH"
);
},
{
closed = 1;
nodes = (
"298 483 LINE",
"298 493 LINE",
"36 493 LINE",
"36 483 LINE"
);
}
);
width = 343;
},
{
anchors = (
{
name = bottom;
position = "{246, 0}";
},
{
name = center;
position = "{200, 248}";
},
{
name = top;
position = "{212, 493}";
},
{
name = topright;
position = "{386, 562}";
}
);
layerId = "957254E3-B7AD-4837-9092-D4428001DE8E";
paths = (
{
closed = 1;
nodes = (
"299 -11 OFFCURVE",
"328 -6 OFFCURVE",
"357 5 CURVE",
"357 120 LINE",
"338 115 OFFCURVE",
"322 112 OFFCURVE",
"309 112 CURVE SMOOTH",
"265 112 OFFCURVE",
"254 141 OFFCURVE",
"254 200 CURVE SMOOTH",
"254 677 LINE",
"102 596 LINE",
"102 157 LINE SMOOTH",
"102 31 OFFCURVE",
"182 -11 OFFCURVE",
"267 -11 CURVE SMOOTH"
);
},
{
closed = 1;
nodes = (
"357 376 LINE",
"357 493 LINE",
"20 493 LINE",
"20 376 LINE"
);
}
);
width = 391;
},
{
anchors = (
{
name = bottom;
position = "{209, 0}";
},
{
name = center;
position = "{180, 247}";
},
{
name = top;
position = "{197, 493}";
},
{
name = topright;
position = "{352, 567}";
}
);
layerId = m003;
paths = (
{
closed = 1;
nodes = (
"273 -8 OFFCURVE",
"300 -4 OFFCURVE",
"325 5 CURVE",
"325 71 LINE",
"304 65 OFFCURVE",
"284 62 OFFCURVE",
"271 62 CURVE SMOOTH",
"226 62 OFFCURVE",
"211 93 OFFCURVE",
"211 148 CURVE SMOOTH",
"211 673 LINE",
"125 625 LINE",
"125 126 LINE SMOOTH",
"125 31 OFFCURVE",
"178 -8 OFFCURVE",
"249 -8 CURVE SMOOTH"
);
},
{
closed = 1;
nodes = (
"325 427 LINE",
"325 493 LINE",
"23 493 LINE",
"23 427 LINE"
);
}
);
width = 363;
}
);
leftKerningGroup = t;
leftMetricsKey = "=f";
note = t;
rightKerningGroup = t;
unicode = 0074;
},
{
glyphname = tbar;
lastChange = "2021-03-07 19:58:54 +0000";
layers = (
{
anchors = (
{
name = bottom;
position = "{218, 0}";
},
{
name = center;
position = "{188, 247}";
},
{
name = top;
position = "{195, 493}";
},
{
name = topright;
position = "{327, 572}";
}
);
layerId = "F91D9E91-C1BC-4259-B0D8-112C0CBA2B8E";
paths = (
{
closed = 1;
nodes = (
"259 -5 OFFCURVE",
"280 -1 OFFCURVE",
"303 5 CURVE",
"303 16 LINE",
"280 8 OFFCURVE",
"259 5 OFFCURVE",
"242 5 CURVE SMOOTH",
"197 5 OFFCURVE",
"176 36 OFFCURVE",
"176 90 CURVE SMOOTH",
"176 667 LINE",
"166 657 LINE",
"166 90 LINE SMOOTH",
"166 31 OFFCURVE",
"187 -5 OFFCURVE",
"242 -5 CURVE SMOOTH"
);
},
{
closed = 1;
nodes = (
"303 242 LINE",
"303 252 LINE",
"41 252 LINE",
"41 242 LINE"
);
},
{
closed = 1;
nodes = (
"303 483 LINE",
"303 493 LINE",
"41 493 LINE",
"41 483 LINE"
);
}
);
width = 368;
},
{
anchors = (
{
name = bottom;
position = "{249, 0}";
},
{
name = center;
position = "{203, 248}";
},
{
name = top;
position = "{215, 493}";
},
{
name = topright;
position = "{389, 562}";
}
);
layerId = "957254E3-B7AD-4837-9092-D4428001DE8E";
paths = (
{
closed = 1;
nodes = (
"302 -11 OFFCURVE",
"331 -6 OFFCURVE",
"360 5 CURVE",
"360 120 LINE",
"341 115 OFFCURVE",
"325 112 OFFCURVE",
"312 112 CURVE SMOOTH",
"268 112 OFFCURVE",
"257 141 OFFCURVE",
"257 200 CURVE SMOOTH",
"257 677 LINE",
"105 596 LINE",
"105 157 LINE SMOOTH",
"105 31 OFFCURVE",
"185 -11 OFFCURVE",
"270 -11 CURVE SMOOTH"
);
},
{
closed = 1;
nodes = (
"360 198 LINE",
"360 298 LINE",
"23 298 LINE",
"23 198 LINE"
);
},
{
closed = 1;
nodes = (
"360 376 LINE",
"360 493 LINE",
"23 493 LINE",
"23 376 LINE"
);
}
);
width = 395;
},
{
anchors = (
{
name = bottom;
position = "{200, 131}";
},
{
name = center;
position = "{210, 117}";
},
{
name = top;
position = "{195, 493}";
},
{
name = topright;
position = "{350, 567}";
}
);
layerId = m003;
paths = (
{
closed = 1;
nodes = (
"271 -8 OFFCURVE",
"298 -4 OFFCURVE",
"323 5 CURVE",
"323 71 LINE",
"302 65 OFFCURVE",
"282 62 OFFCURVE",
"269 62 CURVE SMOOTH",
"224 62 OFFCURVE",
"209 93 OFFCURVE",
"209 148 CURVE SMOOTH",
"209 673 LINE",
"123 625 LINE",
"123 126 LINE SMOOTH",
"123 31 OFFCURVE",
"176 -8 OFFCURVE",
"247 -8 CURVE SMOOTH"
);
},
{
closed = 1;
nodes = (
"323 219 LINE",
"323 277 LINE",
"21 277 LINE",
"21 219 LINE"
);
},
{
closed = 1;
nodes = (
"323 427 LINE",
"323 493 LINE",
"21 493 LINE",
"21 427 LINE"
);
}
);
width = 368;
}
);
leftKerningGroup = t;
rightKerningGroup = t;
unicode = 0167;
},
{
color = 1;
glyphname = u;
lastChange = "2021-03-07 19:58:54 +0000";
layers = (
{
anchors = (
{
name = bottom;
position = "{259, 0}";
},
{
name = ogonek;
position = "{421, 0}";
},
{
name = top;
position = "{253, 493}";
},
{
name = topright;
position = "{471, 475}";
}
);
layerId = "F91D9E91-C1BC-4259-B0D8-112C0CBA2B8E";
paths = (
{
closed = 1;
nodes = (
"330 -5 OFFCURVE",
"391 39 OFFCURVE",
"412 138 CURVE",
"411 138 LINE",
"411 0 LINE",
"421 0 LINE",
"421 493 LINE",
"411 493 LINE",
"411 230 LINE SMOOTH",
"411 74 OFFCURVE",
"347 5 OFFCURVE",
"244 5 CURVE SMOOTH",
"147 5 OFFCURVE",
"95 66 OFFCURVE",
"95 200 CURVE SMOOTH",
"95 493 LINE",
"85 493 LINE",
"85 198 LINE SMOOTH",
"85 55 OFFCURVE",
"146 -5 OFFCURVE",
"247 -5 CURVE SMOOTH"
);
}
);
width = 513;
},
{
anchors = (
{
name = bottom;
position = "{290, 0}";
},
{
name = ogonek;
position = "{521, 0}";
},
{
name = top;
position = "{284, 493}";
},
{
name = topright;
position = "{505, 396}";
}
);
layerId = "957254E3-B7AD-4837-9092-D4428001DE8E";
paths = (
{
closed = 1;
nodes = (
"296 -11 OFFCURVE",
"353 13 OFFCURVE",
"385 91 CURVE",
"370 108 LINE",
"370 0 LINE",
"521 0 LINE",
"521 493 LINE",
"370 493 LINE",
"370 330 LINE SMOOTH",
"370 213 OFFCURVE",
"370 120 OFFCURVE",
"279 120 CURVE SMOOTH",
"206 120 OFFCURVE",
"199 171 OFFCURVE",
"199 219 CURVE SMOOTH",
"199 493 LINE",
"48 493 LINE",
"48 188 LINE SMOOTH",
"48 72 OFFCURVE",
"102 -11 OFFCURVE",
"233 -11 CURVE SMOOTH"
);
}
);
width = 576;
},
{
anchors = (
{
name = bottom;
position = "{275, 0}";
},
{
name = ogonek;
position = "{473, 0}";
},
{
name = top;
position = "{269, 493}";
},
{
name = topright;
position = "{488, 434}";
}
);
layerId = m003;
paths = (
{
closed = 1;
nodes = (
"318 -8 OFFCURVE",
"383 31 OFFCURVE",
"411 105 CURVE",
"390 105 LINE",
"390 0 LINE",
"474 0 LINE",
"474 493 LINE",
"390 493 LINE",
"390 248 LINE SMOOTH",
"390 122 OFFCURVE",
"344 66 OFFCURVE",
"262 66 CURVE SMOOTH",
"188 66 OFFCURVE",
"150 112 OFFCURVE",
"150 211 CURVE SMOOTH",
"150 493 LINE",
"66 493 LINE",
"66 181 LINE SMOOTH",
"66 57 OFFCURVE",
"131 -8 OFFCURVE",
"238 -8 CURVE SMOOTH"
);
}
);
width = 547;
}
);
leftKerningGroup = u;
note = u;
rightKerningGroup = u;
unicode = 0075;
},
{
color = 1;
glyphname = v;
lastChange = "2021-03-07 19:58:54 +0000";
layers = (
{
anchors = (
{
name = bottom;
position = "{252, 0}";
},
{
name = top;
position = "{252, 493}";
}
);
layerId = "F91D9E91-C1BC-4259-B0D8-112C0CBA2B8E";
paths = (
{
closed = 1;
nodes = (
"258 0 LINE",
"460 493 LINE",
"447 493 LINE",
"251 10 LINE",
"55 493 LINE",
"43 493 LINE",
"245 0 LINE"
);
}
);
width = 504;
},
{
anchors = (
{
name = bottom;
position = "{273, 0}";
},
{
name = top;
position = "{273, 493}";
}
);
layerId = "957254E3-B7AD-4837-9092-D4428001DE8E";
paths = (
{
closed = 1;
nodes = (
"334 0 LINE",
"534 493 LINE",
"372 493 LINE",
"272 197 LINE",
"175 493 LINE",
"10 493 LINE",
"211 0 LINE"
);
}
);
width = 544;
},
{
anchors = (
{
name = bottom;
position = "{261, 0}";
},
{
name = top;
position = "{261, 493}";
}
);
layerId = m003;
paths = (
{
closed = 1;
nodes = (
"296 0 LINE",
"497 493 LINE",
"405 493 LINE",
"260 109 LINE",
"116 493 LINE",
"23 493 LINE",
"225 0 LINE"
);
}
);
width = 521;
}
);
leftKerningGroup = v;
note = v;
rightKerningGroup = v;
unicode = 0076;
},
{
color = 1;
glyphname = w;
lastChange = "2021-03-07 19:58:54 +0000";
layers = (
{
anchors = (
{
name = bottom;
position = "{372, 0}";
},
{
name = top;
position = "{372, 493}";
}
);
layerId = "F91D9E91-C1BC-4259-B0D8-112C0CBA2B8E";
paths = (
{
closed = 1;
nodes = (
"200 0 LINE",
"373 483 LINE",
"544 0 LINE",
"560 0 LINE",
"695 493 LINE",
"684 493 LINE",
"552 12 LINE",
"381 493 LINE",
"365 493 LINE",
"193 12 LINE",
"61 493 LINE",
"49 493 LINE",
"185 0 LINE"
);
}
);
width = 744;
},
{
anchors = (
{
name = bottom;
position = "{380, 0}";
},
{
name = top;
position = "{380, 493}";
}
);
layerId = "957254E3-B7AD-4837-9092-D4428001DE8E";
paths = (
{
closed = 1;
nodes = (
"304 0 LINE",
"379 278 LINE",
"456 0 LINE",
"589 0 LINE",
"746 493 LINE",
"585 493 LINE",
"513 234 LINE",
"442 493 LINE",
"315 493 LINE",
"244 232 LINE",
"173 493 LINE",
"13 493 LINE",
"169 0 LINE"
);
}
);
width = 759;
},
{
anchors = (
{
name = bottom;
position = "{374, 0}";
},
{
name = top;
position = "{374, 493}";
}
);
layerId = m003;
paths = (
{
closed = 1;
nodes = (
"253 0 LINE",
"374 375 LINE",
"495 0 LINE",
"573 0 LINE",
"720 493 LINE",
"630 493 LINE",
"529 130 LINE",
"411 493 LINE",
"336 493 LINE",
"218 128 LINE",
"118 493 LINE",
"28 493 LINE",
"174 0 LINE"
);
}
);
width = 748;
}
);
leftKerningGroup = w;
note = w;
rightKerningGroup = w;
unicode = 0077;
},
{
color = 1;
glyphname = x;
lastChange = "2021-03-07 19:58:54 +0000";
layers = (
{
anchors = (
{
name = bottom;
position = "{245, 0}";
},
{
name = top;
position = "{245, 493}";
}
);
layerId = "F91D9E91-C1BC-4259-B0D8-112C0CBA2B8E";
paths = (
{
closed = 1;
nodes = (
"60 0 LINE",
"245 238 LINE",
"432 0 LINE",
"445 0 LINE",
"251 246 LINE",
"444 493 LINE",
"431 493 LINE",
"245 255 LINE",
"59 493 LINE",
"46 493 LINE",
"239 246 LINE",
"46 0 LINE"
);
}
);
width = 490;
},
{
anchors = (
{
name = bottom;
position = "{278, 0}";
},
{
name = top;
position = "{278, 493}";
}
);
layerId = "957254E3-B7AD-4837-9092-D4428001DE8E";
paths = (
{
closed = 1;
nodes = (
"190 0 LINE",
"278 151 LINE",
"365 0 LINE",
"541 0 LINE",
"377 249 LINE",
"541 493 LINE",
"365 493 LINE",
"278 346 LINE",
"191 493 LINE",
"15 493 LINE",
"177 249 LINE",
"15 0 LINE"
);
}
);
width = 556;
},
{
anchors = (
{
name = bottom;
position = "{260, 0}";
},
{
name = top;
position = "{260, 493}";
}
);
layerId = m003;
paths = (
{
closed = 1;
nodes = (
"129 0 LINE",
"260 189 LINE",
"389 0 LINE",
"493 0 LINE",
"315 248 LINE",
"493 493 LINE",
"391 493 LINE",
"260 306 LINE",
"131 493 LINE",
"27 493 LINE",
"204 248 LINE",
"27 0 LINE"
);
}
);
width = 520;
}
);
leftKerningGroup = x;
note = x;
rightKerningGroup = x;
unicode = 0078;
},
{
color = 1;
glyphname = y;
lastChange = "2021-03-07 19:58:54 +0000";
layers = (
{
anchors = (
{
name = bottom;
position = "{402, -30}";
},
{
name = top;
position = "{252, 493}";
}
);
guideLines = (
{
position = "{527, -204}";
}
);
layerId = "F91D9E91-C1BC-4259-B0D8-112C0CBA2B8E";
paths = (
{
closed = 1;
nodes = (
"175 -203 LINE",
"460 493 LINE",
"447 493 LINE",
"251 10 LINE",
"55 493 LINE",
"43 493 LINE",
"246 -2 LINE",
"164 -203 LINE"
);
}
);
width = 504;
},
{
anchors = (
{
name = bottom;
position = "{437, -31}";
},
{
name = top;
position = "{273, 493}";
}
);
guideLines = (
{
position = "{421, -204}";
}
);
layerId = "957254E3-B7AD-4837-9092-D4428001DE8E";
paths = (
{
closed = 1;
nodes = (
"251 -204 LINE",
"534 493 LINE",
"372 493 LINE",
"272 197 LINE",
"175 493 LINE",
"10 493 LINE",
"192 47 LINE",
"88 -204 LINE"
);
}
);
width = 544;
},
{
anchors = (
{
name = bottom;
position = "{418, -30}";
},
{
name = top;
position = "{261, 493}";
}
);
guideLines = (
{
position = "{382, -204}";
}
);
layerId = m003;
paths = (
{
closed = 1;
nodes = (
"213 -203 LINE",
"497 493 LINE",
"405 493 LINE",
"260 109 LINE",
"116 493 LINE",
"23 493 LINE",
"215 24 LINE",
"121 -203 LINE"
);
}
);
width = 521;
}
);
leftKerningGroup = v;
leftMetricsKey = "=v";
note = y;
rightKerningGroup = v;
rightMetricsKey = "=v";
unicode = 0079;
},
{
color = 1;
glyphname = z;
lastChange = "2021-03-07 19:58:54 +0000";
layers = (
{
anchors = (
{
name = bottom;
position = "{240, 0}";
},
{
name = center;
position = "{240, 247}";
},
{
name = top;
position = "{240, 493}";
}
);
layerId = "F91D9E91-C1BC-4259-B0D8-112C0CBA2B8E";
paths = (
{
closed = 1;
nodes = (
"426 0 LINE",
"426 10 LINE",
"56 10 LINE",
"56 12 LINE",
"431 474 LINE",
"431 493 LINE",
"65 493 LINE",
"65 483 LINE",
"421 483 LINE",
"421 478 LINE",
"45 16 LINE",
"45 0 LINE"
);
}
);
width = 477;
},
{
anchors = (
{
name = bottom;
position = "{236, 0}";
},
{
name = center;
position = "{236, 247}";
},
{
name = top;
position = "{236, 493}";
}
);
layerId = "957254E3-B7AD-4837-9092-D4428001DE8E";
paths = (
{
closed = 1;
nodes = (
"434 0 LINE",
"434 126 LINE",
"175 126 LINE",
"190 76 LINE",
"433 388 LINE",
"433 493 LINE",
"42 493 LINE",
"42 367 LINE",
"295 367 LINE",
"281 409 LINE",
"33 98 LINE",
"33 0 LINE"
);
}
);
width = 470;
},
{
anchors = (
{
name = bottom;
position = "{237, 0}";
},
{
name = center;
position = "{237, 247}";
},
{
name = top;
position = "{237, 493}";
}
);
layerId = m003;
paths = (
{
closed = 1;
nodes = (
"429 0 LINE",
"429 72 LINE",
"118 72 LINE",
"125 46 LINE",
"431 429 LINE",
"431 493 LINE",
"51 493 LINE",
"51 422 LINE",
"353 422 LINE",
"346 441 LINE",
"37 60 LINE",
"37 0 LINE"
);
}
);
width = 472;
}
);
leftKerningGroup = z;
note = z;
rightKerningGroup = z;
unicode = 007A;
},
{
color = 1;
glyphname = g.ss01;
lastChange = "2021-03-07 19:58:54 +0000";
layers = (
{
anchors = (
{
name = bottom;
position = "{291, -209}";
},
{
name = top;
position = "{313, 493}";
}
);
guideLines = (
{
position = "{527, -204}";
}
);
layerId = "F91D9E91-C1BC-4259-B0D8-112C0CBA2B8E";
paths = (
{
closed = 1;
nodes = (
"419 -209 OFFCURVE",
"517 -153 OFFCURVE",
"517 10 CURVE SMOOTH",
"517 493 LINE",
"507 493 LINE",
"507 321 LINE",
"508 322 LINE",
"482 426 OFFCURVE",
"399 498 OFFCURVE",
"294 498 CURVE SMOOTH",
"166 498 OFFCURVE",
"68 390 OFFCURVE",
"68 252 CURVE SMOOTH",
"68 114 OFFCURVE",
"166 5 OFFCURVE",
"294 5 CURVE SMOOTH",
"399 5 OFFCURVE",
"482 77 OFFCURVE",
"508 182 CURVE",
"507 183 LINE",
"507 10 LINE SMOOTH",
"507 -147 OFFCURVE",
"414 -199 OFFCURVE",
"291 -199 CURVE SMOOTH",
"201 -199 OFFCURVE",
"127 -147 OFFCURVE",
"94 -64 CURVE",
"86 -70 LINE",
"121 -156 OFFCURVE",
"198 -209 OFFCURVE",
"291 -209 CURVE SMOOTH"
);
},
{
closed = 1;
nodes = (
"171 15 OFFCURVE",
"78 120 OFFCURVE",
"78 252 CURVE SMOOTH",
"78 384 OFFCURVE",
"171 488 OFFCURVE",
"294 488 CURVE SMOOTH",
"416 488 OFFCURVE",
"507 385 OFFCURVE",
"507 252 CURVE SMOOTH",
"507 119 OFFCURVE",
"416 15 OFFCURVE",
"294 15 CURVE SMOOTH"
);
}
);
width = 609;
},
{
anchors = (
{
name = bottom;
position = "{273, -215}";
},
{
name = top;
position = "{287, 493}";
}
);
guideLines = (
{
position = "{412, -204}";
},
{
angle = 90;
position = "{73, 262}";
}
);
layerId = "957254E3-B7AD-4837-9092-D4428001DE8E";
paths = (
{
closed = 1;
nodes = (
"418 -215 OFFCURVE",
"516 -144 OFFCURVE",
"516 15 CURVE SMOOTH",
"516 493 LINE",
"366 493 LINE",
"366 402 LINE",
"381 422 LINE",
"355 475 OFFCURVE",
"310 504 OFFCURVE",
"239 504 CURVE SMOOTH",
"128 504 OFFCURVE",
"35 412 OFFCURVE",
"35 257 CURVE SMOOTH",
"35 119 OFFCURVE",
"112 9 OFFCURVE",
"239 9 CURVE SMOOTH",
"303 9 OFFCURVE",
"351 27 OFFCURVE",
"385 93 CURVE",
"366 108 LINE",
"366 15 LINE SMOOTH",
"366 -72 OFFCURVE",
"313 -86 OFFCURVE",
"272 -86 CURVE SMOOTH",
"214 -86 OFFCURVE",
"185 -48 OFFCURVE",
"164 -18 CURVE",
"47 -110 LINE",
"89 -163 OFFCURVE",
"152 -215 OFFCURVE",
"273 -215 CURVE SMOOTH"
);
},
{
closed = 1;
nodes = (
"219 150 OFFCURVE",
"186 190 OFFCURVE",
"186 255 CURVE SMOOTH",
"186 322 OFFCURVE",
"222 366 OFFCURVE",
"283 366 CURVE SMOOTH",
"344 366 OFFCURVE",
"380 321 OFFCURVE",
"380 255 CURVE SMOOTH",
"380 191 OFFCURVE",
"345 150 OFFCURVE",
"282 150 CURVE SMOOTH"
);
}
);
width = 571;
},
{
anchors = (
{
name = bottom;
position = "{280, -212}";
},
{
name = top;
position = "{298, 493}";
}
);
guideLines = (
{
position = "{384, -204}";
}
);
layerId = m003;
paths = (
{
closed = 1;
nodes = (
"417 -212 OFFCURVE",
"515 -148 OFFCURVE",
"515 13 CURVE SMOOTH",
"515 493 LINE",
"431 493 LINE",
"431 364 LINE",
"439 375 LINE",
"414 452 OFFCURVE",
"351 501 OFFCURVE",
"263 501 CURVE SMOOTH",
"145 501 OFFCURVE",
"49 402 OFFCURVE",
"49 255 CURVE SMOOTH",
"49 117 OFFCURVE",
"136 7 OFFCURVE",
"263 7 CURVE SMOOTH",
"346 7 OFFCURVE",
"412 51 OFFCURVE",
"442 135 CURVE",
"431 144 LINE",
"431 13 LINE SMOOTH",
"431 -107 OFFCURVE",
"359 -140 OFFCURVE",
"280 -140 CURVE SMOOTH",
"208 -140 OFFCURVE",
"157 -96 OFFCURVE",
"129 -40 CURVE",
"64 -91 LINE",
"105 -164 OFFCURVE",
"178 -212 OFFCURVE",
"280 -212 CURVE SMOOTH"
);
},
{
closed = 1;
nodes = (
"196 87 OFFCURVE",
"134 158 OFFCURVE",
"134 254 CURVE SMOOTH",
"134 351 OFFCURVE",
"197 424 OFFCURVE",
"287 424 CURVE SMOOTH",
"376 424 OFFCURVE",
"438 351 OFFCURVE",
"438 254 CURVE SMOOTH",
"438 158 OFFCURVE",
"377 87 OFFCURVE",
"286 87 CURVE SMOOTH"
);
}
);
width = 588;
}
);
leftKerningGroup = c;
leftMetricsKey = d;
note = g.ss01;
rightKerningGroup = u;
rightMetricsKey = u;
},
{
color = 1;
glyphname = g.ss02;
lastChange = "2021-03-25 17:21:20 +0000";
layers = (
{
anchors = (
{
name = bottom;
position = "{254, -209}";
},
{
name = top;
position = "{251, 493}";
}
);
guideLines = (
{
position = "{517, -204}";
}
);
layerId = "F91D9E91-C1BC-4259-B0D8-112C0CBA2B8E";
paths = (
{
closed = 1;
nodes = (
"383 -209 OFFCURVE",
"464 -156 OFFCURVE",
"464 -68 CURVE SMOOTH",
"464 -5 OFFCURVE",
"435 55 OFFCURVE",
"327 55 CURVE SMOOTH",
"211 55 LINE SMOOTH",
"125 55 OFFCURVE",
"89 85 OFFCURVE",
"87 129 CURVE SMOOTH",
"85 164 OFFCURVE",
"99 189 OFFCURVE",
"134 222 CURVE",
"128 230 LINE",
"91 196 OFFCURVE",
"75 167 OFFCURVE",
"77 129 CURVE SMOOTH",
"80 77 OFFCURVE",
"120 46 OFFCURVE",
"208 46 CURVE SMOOTH",
"326 46 LINE SMOOTH",
"431 46 OFFCURVE",
"454 -12 OFFCURVE",
"454 -68 CURVE SMOOTH",
"454 -151 OFFCURVE",
"378 -199 OFFCURVE",
"254 -199 CURVE SMOOTH",
"129 -199 OFFCURVE",
"64 -146 OFFCURVE",
"64 -49 CURVE SMOOTH",
"64 -32 LINE",
"150 55 LINE",
"141 61 LINE",
"55 -27 LINE",
"54 -36 OFFCURVE",
"54 -44 OFFCURVE",
"54 -49 CURVE SMOOTH",
"54 -151 OFFCURVE",
"124 -209 OFFCURVE",
"254 -209 CURVE SMOOTH"
);
},
{
closed = 1;
nodes = (
"342 184 OFFCURVE",
"410 246 OFFCURVE",
"410 338 CURVE SMOOTH",
"410 432 OFFCURVE",
"342 498 OFFCURVE",
"246 498 CURVE SMOOTH",
"148 498 OFFCURVE",
"78 432 OFFCURVE",
"78 339 CURVE SMOOTH",
"78 247 OFFCURVE",
"147 184 OFFCURVE",
"245 184 CURVE SMOOTH"
);
},
{
closed = 1;
nodes = (
"152 194 OFFCURVE",
"88 254 OFFCURVE",
"88 339 CURVE SMOOTH",
"88 426 OFFCURVE",
"154 488 OFFCURVE",
"246 488 CURVE SMOOTH",
"337 488 OFFCURVE",
"400 427 OFFCURVE",
"400 338 CURVE SMOOTH",
"400 253 OFFCURVE",
"337 194 OFFCURVE",
"245 194 CURVE SMOOTH"
);
},
{
closed = 1;
nodes = (
"464 501 LINE",
"458 509 LINE",
"374 431 LINE",
"381 424 LINE"
);
}
);
width = 484;
},
{
anchors = (
{
name = bottom;
position = "{275, -205}";
},
{
name = top;
position = "{281, 493}";
}
);
guideLines = (
{
position = "{410, -204}";
}
);
layerId = "957254E3-B7AD-4837-9092-D4428001DE8E";
paths = (
{
closed = 1;
nodes = (
"438 -214 OFFCURVE",
"521 -158 OFFCURVE",
"521 -46 CURVE SMOOTH",
"521 46 OFFCURVE",
"467 93 OFFCURVE",
"355 93 CURVE SMOOTH",
"257 93 LINE SMOOTH",
"226 93 OFFCURVE",
"173 93 OFFCURVE",
"173 122 CURVE SMOOTH",
"173 139 OFFCURVE",
"190 157 OFFCURVE",
"208 158 CURVE",
"137 256 LINE",
"69 213 OFFCURVE",
"32 162 OFFCURVE",
"32 103 CURVE SMOOTH",
"32 1 OFFCURVE",
"145 -32 OFFCURVE",
"156 -32 CURVE SMOOTH",
"333 -32 LINE SMOOTH",
"363 -32 OFFCURVE",
"376 -41 OFFCURVE",
"376 -63 CURVE SMOOTH",
"376 -89 OFFCURVE",
"352 -100 OFFCURVE",
"276 -100 CURVE SMOOTH",
"199 -100 OFFCURVE",
"167 -89 OFFCURVE",
"167 -63 CURVE SMOOTH",
"167 -59 LINE",
"212 -24 LINE",
"137 36 LINE",
"36 -18 LINE",
"30 -31 OFFCURVE",
"26 -48 OFFCURVE",
"26 -68 CURVE SMOOTH",
"26 -186 OFFCURVE",
"159 -214 OFFCURVE",
"275 -214 CURVE SMOOTH"
);
},
{
closed = 1;
nodes = (
"403 127 OFFCURVE",
"487 199 OFFCURVE",
"487 309 CURVE SMOOTH",
"487 429 OFFCURVE",
"386 504 OFFCURVE",
"274 504 CURVE SMOOTH",
"161 504 OFFCURVE",
"63 429 OFFCURVE",
"63 314 CURVE SMOOTH",
"63 206 OFFCURVE",
"149 127 OFFCURVE",
"279 127 CURVE SMOOTH"
);
},
{
closed = 1;
nodes = (
"231 245 OFFCURVE",
"214 277 OFFCURVE",
"214 314 CURVE SMOOTH",
"214 352 OFFCURVE",
"236 379 OFFCURVE",
"276 379 CURVE SMOOTH",
"315 379 OFFCURVE",
"337 353 OFFCURVE",
"337 314 CURVE SMOOTH",
"337 277 OFFCURVE",
"320 245 OFFCURVE",
"276 245 CURVE SMOOTH"
);
},
{
closed = 1;
nodes = (
"543 452 LINE",
"466 545 LINE",
"345 450 LINE",
"454 381 LINE"
);
}
);
width = 549;
},
{
anchors = (
{
name = bottom;
position = "{267, -207}";
},
{
name = top;
position = "{269, 493}";
}
);
guideLines = (
{
position = "{376, -204}";
}
);
layerId = m003;
paths = (
{
closed = 1;
nodes = (
"414 -212 OFFCURVE",
"496 -157 OFFCURVE",
"496 -56 CURVE SMOOTH",
"496 22 OFFCURVE",
"454 75 OFFCURVE",
"344 75 CURVE SMOOTH",
"238 75 LINE SMOOTH",
"182 75 OFFCURVE",
"135 89 OFFCURVE",
"134 125 CURVE SMOOTH",
"133 152 OFFCURVE",
"152 175 OFFCURVE",
"175 189 CURVE",
"135 244 LINE",
"79 203 OFFCURVE",
"55 167 OFFCURVE",
"56 112 CURVE SMOOTH",
"57 40 OFFCURVE",
"133 5 OFFCURVE",
"182 5 CURVE SMOOTH",
"332 5 LINE SMOOTH",
"397 5 OFFCURVE",
"415 -28 OFFCURVE",
"415 -66 CURVE SMOOTH",
"415 -118 OFFCURVE",
"366 -147 OFFCURVE",
"268 -147 CURVE SMOOTH",
"168 -147 OFFCURVE",
"121 -116 OFFCURVE",
"121 -57 CURVE SMOOTH",
"121 -47 LINE",
"185 14 LINE",
"141 48 LINE",
"47 -22 LINE",
"43 -33 OFFCURVE",
"41 -47 OFFCURVE",
"41 -60 CURVE SMOOTH",
"41 -170 OFFCURVE",
"145 -212 OFFCURVE",
"267 -212 CURVE SMOOTH"
);
},
{
closed = 1;
nodes = (
"376 154 OFFCURVE",
"453 221 OFFCURVE",
"453 323 CURVE SMOOTH",
"453 430 OFFCURVE",
"367 501 OFFCURVE",
"263 501 CURVE SMOOTH",
"158 501 OFFCURVE",
"72 431 OFFCURVE",
"72 326 CURVE SMOOTH",
"72 226 OFFCURVE",
"150 154 OFFCURVE",
"265 154 CURVE SMOOTH"
);
},
{
closed = 1;
nodes = (
"196 221 OFFCURVE",
"157 267 OFFCURVE",
"157 326 CURVE SMOOTH",
"157 387 OFFCURVE",
"199 430 OFFCURVE",
"264 430 CURVE SMOOTH",
"327 430 OFFCURVE",
"369 388 OFFCURVE",
"369 325 CURVE SMOOTH",
"369 266 OFFCURVE",
"330 221 OFFCURVE",
"264 221 CURVE SMOOTH"
);
},
{
closed = 1;
nodes = (
"508 475 LINE",
"464 528 LINE",
"361 442 LINE",
"421 401 LINE"
);
}
);
width = 522;
}
);
leftKerningGroup = c;
leftMetricsKey = g;
note = g.ss02;
rightKerningGroup = g;
rightMetricsKey = g;
},
{
glyphname = f_f;
lastChange = "2021-03-07 19:58:54 +0000";
layers = (
{
anchors = (
{
name = caret_1;
position = "{250, 0}";
}
);
layerId = "F91D9E91-C1BC-4259-B0D8-112C0CBA2B8E";
paths = (
{
closed = 1;
nodes = (
"136 0 LINE",
"136 483 LINE",
"364 483 LINE",
"364 0 LINE",
"374 0 LINE",
"374 483 LINE",
"566 483 LINE",
"566 493 LINE",
"374 493 LINE",
"374 580 LINE SMOOTH",
"374 656 OFFCURVE",
"413 692 OFFCURVE",
"498 692 CURVE SMOOTH",
"517 692 OFFCURVE",
"534 687 OFFCURVE",
"556 677 CURVE",
"561 685 LINE",
"539 696 OFFCURVE",
"519 702 OFFCURVE",
"498 702 CURVE SMOOTH",
"453 702 OFFCURVE",
"420 692 OFFCURVE",
"398 672 CURVE",
"366 692 OFFCURVE",
"332 702 OFFCURVE",
"291 702 CURVE SMOOTH",
"194 702 OFFCURVE",
"126 640 OFFCURVE",
"126 549 CURVE SMOOTH",
"126 493 LINE",
"36 493 LINE",
"36 483 LINE",
"126 483 LINE",
"126 0 LINE"
);
},
{
closed = 1;
nodes = (
"136 549 LINE SMOOTH",
"136 635 OFFCURVE",
"198 692 OFFCURVE",
"291 692 CURVE SMOOTH",
"327 692 OFFCURVE",
"361 684 OFFCURVE",
"391 666 CURVE",
"373 645 OFFCURVE",
"364 616 OFFCURVE",
"364 580 CURVE SMOOTH",
"364 493 LINE",
"136 493 LINE"
);
}
);
width = 566;
},
{
anchors = (
{
name = caret_1;
position = "{327, 0}";
}
);
layerId = "957254E3-B7AD-4837-9092-D4428001DE8E";
paths = (
{
closed = 1;
nodes = (
"252 0 LINE",
"252 376 LINE",
"401 376 LINE",
"401 0 LINE",
"552 0 LINE",
"552 376 LINE",
"650 376 LINE",
"650 493 LINE",
"552 493 LINE",
"552 536 LINE SMOOTH",
"552 562 OFFCURVE",
"558 583 OFFCURVE",
"583 583 CURVE SMOOTH",
"596 583 OFFCURVE",
"609 577 OFFCURVE",
"621 571 CURVE",
"669 686 LINE",
"639 699 OFFCURVE",
"610 708 OFFCURVE",
"566 708 CURVE SMOOTH",
"524 708 OFFCURVE",
"484 700 OFFCURVE",
"454 676 CURVE",
"414 699 OFFCURVE",
"367 708 OFFCURVE",
"322 708 CURVE SMOOTH",
"207 708 OFFCURVE",
"102 642 OFFCURVE",
"102 522 CURVE SMOOTH",
"102 493 LINE",
"20 493 LINE",
"20 376 LINE",
"102 376 LINE",
"102 0 LINE"
);
},
{
closed = 1;
nodes = (
"252 519 LINE SMOOTH",
"252 559 OFFCURVE",
"272 587 OFFCURVE",
"329 587 CURVE SMOOTH",
"360 587 OFFCURVE",
"381 580 OFFCURVE",
"402 569 CURVE",
"402 564 OFFCURVE",
"402 558 OFFCURVE",
"402 553 CURVE SMOOTH",
"402 493 LINE",
"252 493 LINE"
);
}
);
width = 667;
},
{
anchors = (
{
name = caret_1;
position = "{287, 0}";
}
);
layerId = m003;
paths = (
{
closed = 1;
nodes = (
"193 0 LINE",
"193 427 LINE",
"379 427 LINE",
"379 0 LINE",
"464 0 LINE",
"464 427 LINE",
"606 427 LINE",
"606 493 LINE",
"464 493 LINE",
"464 557 LINE SMOOTH",
"464 606 OFFCURVE",
"486 634 OFFCURVE",
"538 634 CURVE SMOOTH",
"552 634 OFFCURVE",
"567 630 OFFCURVE",
"586 621 CURVE",
"614 685 LINE",
"586 699 OFFCURVE",
"561 705 OFFCURVE",
"530 705 CURVE SMOOTH",
"487 705 OFFCURVE",
"450 697 OFFCURVE",
"423 674 CURVE",
"386 696 OFFCURVE",
"346 705 OFFCURVE",
"303 705 CURVE SMOOTH",
"196 705 OFFCURVE",
"109 641 OFFCURVE",
"109 535 CURVE SMOOTH",
"109 493 LINE",
"23 493 LINE",
"23 427 LINE",
"109 427 LINE",
"109 0 LINE"
);
},
{
closed = 1;
nodes = (
"193 533 LINE SMOOTH",
"193 595 OFFCURVE",
"233 636 OFFCURVE",
"307 636 CURVE SMOOTH",
"339 636 OFFCURVE",
"368 629 OFFCURVE",
"393 615 CURVE",
"384 603 OFFCURVE",
"380 586 OFFCURVE",
"380 566 CURVE SMOOTH",
"380 493 LINE",
"193 493 LINE"
);
}
);
width = 610;
}
);
leftKerningGroup = f;
leftMetricsKey = f;
note = f_f;
rightKerningGroup = f;
rightMetricsKey = f;
},
{
glyphname = f_f_i;
lastChange = "2021-03-07 19:58:54 +0000";
layers = (
{
anchors = (
{
name = caret_1;
position = "{250, 0}";
},
{
name = caret_2;
position = "{488, 0}";
}
);
layerId = "F91D9E91-C1BC-4259-B0D8-112C0CBA2B8E";
paths = (
{
closed = 1;
nodes = (
"136 0 LINE",
"136 483 LINE",
"364 483 LINE",
"364 0 LINE",
"374 0 LINE",
"374 483 LINE",
"602 483 LINE",
"602 0 LINE",
"612 0 LINE",
"612 493 LINE",
"374 493 LINE",
"374 539 LINE SMOOTH",
"374 656 OFFCURVE",
"423 692 OFFCURVE",
"502 692 CURVE SMOOTH",
"541 692 OFFCURVE",
"576 678 OFFCURVE",
"603 654 CURVE",
"610 660 LINE",
"580 686 OFFCURVE",
"543 702 OFFCURVE",
"502 702 CURVE SMOOTH",
"462 702 OFFCURVE",
"429 692 OFFCURVE",
"404 668 CURVE",
"371 691 OFFCURVE",
"334 702 OFFCURVE",
"291 702 CURVE SMOOTH",
"194 702 OFFCURVE",
"126 640 OFFCURVE",
"126 549 CURVE SMOOTH",
"126 493 LINE",
"36 493 LINE",
"36 483 LINE",
"126 483 LINE",
"126 0 LINE"
);
},
{
closed = 1;
nodes = (
"136 549 LINE SMOOTH",
"136 635 OFFCURVE",
"198 692 OFFCURVE",
"291 692 CURVE SMOOTH",
"331 692 OFFCURVE",
"366 682 OFFCURVE",
"398 661 CURVE",
"376 636 OFFCURVE",
"364 596 OFFCURVE",
"364 539 CURVE SMOOTH",
"364 493 LINE",
"136 493 LINE"
);
}
);
width = 702;
},
{
anchors = (
{
name = caret_1;
position = "{327, 0}";
},
{
name = caret_2;
position = "{627, 0}";
}
);
layerId = "957254E3-B7AD-4837-9092-D4428001DE8E";
paths = (
{
closed = 1;
nodes = (
"252 0 LINE",
"252 376 LINE",
"401 376 LINE",
"401 0 LINE",
"551 0 LINE",
"551 376 LINE",
"700 376 LINE",
"700 0 LINE",
"850 0 LINE",
"850 493 LINE",
"551 493 LINE",
"551 522 LINE SMOOTH",
"551 553 OFFCURVE",
"574 587 OFFCURVE",
"635 587 CURVE SMOOTH",
"691 587 OFFCURVE",
"735 572 OFFCURVE",
"772 548 CURVE",
"842 655 LINE",
"780 691 OFFCURVE",
"720 708 OFFCURVE",
"628 708 CURVE SMOOTH",
"571 708 OFFCURVE",
"517 692 OFFCURVE",
"477 663 CURVE",
"431 695 OFFCURVE",
"373 708 OFFCURVE",
"322 708 CURVE SMOOTH",
"207 708 OFFCURVE",
"102 642 OFFCURVE",
"102 522 CURVE SMOOTH",
"102 493 LINE",
"20 493 LINE",
"20 376 LINE",
"102 376 LINE",
"102 0 LINE"
);
},
{
closed = 1;
nodes = (
"252 519 LINE SMOOTH",
"252 559 OFFCURVE",
"272 587 OFFCURVE",
"329 587 CURVE SMOOTH",
"362 587 OFFCURVE",
"388 578 OFFCURVE",
"405 569 CURVE",
"405 567 OFFCURVE",
"401 538 OFFCURVE",
"401 525 CURVE SMOOTH",
"401 493 LINE",
"252 493 LINE"
);
}
);
width = 902;
},
{
anchors = (
{
name = caret_1;
position = "{287, 0}";
},
{
name = caret_2;
position = "{558, 0}";
}
);
layerId = m003;
paths = (
{
closed = 1;
nodes = (
"193 0 LINE",
"193 427 LINE",
"379 427 LINE",
"379 0 LINE",
"463 0 LINE",
"463 427 LINE",
"649 427 LINE",
"649 0 LINE",
"734 0 LINE",
"734 493 LINE",
"463 493 LINE",
"463 531 LINE SMOOTH",
"463 602 OFFCURVE",
"499 636 OFFCURVE",
"568 636 CURVE SMOOTH",
"615 636 OFFCURVE",
"656 622 OFFCURVE",
"688 598 CURVE",
"728 658 LINE",
"682 688 OFFCURVE",
"634 705 OFFCURVE",
"564 705 CURVE SMOOTH",
"518 705 OFFCURVE",
"473 693 OFFCURVE",
"438 666 CURVE",
"397 694 OFFCURVE",
"348 705 OFFCURVE",
"303 705 CURVE SMOOTH",
"196 705 OFFCURVE",
"109 641 OFFCURVE",
"109 535 CURVE SMOOTH",
"109 493 LINE",
"23 493 LINE",
"23 427 LINE",
"109 427 LINE",
"109 0 LINE"
);
},
{
closed = 1;
nodes = (
"193 533 LINE SMOOTH",
"193 595 OFFCURVE",
"233 636 OFFCURVE",
"307 636 CURVE SMOOTH",
"342 636 OFFCURVE",
"372 628 OFFCURVE",
"397 612 CURVE",
"386 599 OFFCURVE",
"379 563 OFFCURVE",
"379 532 CURVE SMOOTH",
"379 493 LINE",
"193 493 LINE"
);
}
);
width = 797;
}
);
leftKerningGroup = f;
leftMetricsKey = f;
note = f_f_i;
rightKerningGroup = i;
rightMetricsKey = i;
},
{
glyphname = f_f_l;
lastChange = "2021-03-07 19:58:54 +0000";
layers = (
{
anchors = (
{
name = caret_1;
position = "{250, 0}";
},
{
name = caret_2;
position = "{488, 0}";
}
);
layerId = "F91D9E91-C1BC-4259-B0D8-112C0CBA2B8E";
paths = (
{
closed = 1;
nodes = (
"687 -5 OFFCURVE",
"706 -1 OFFCURVE",
"727 5 CURVE",
"727 16 LINE",
"706 8 OFFCURVE",
"687 4 OFFCURVE",
"672 4 CURVE SMOOTH",
"632 4 OFFCURVE",
"612 30 OFFCURVE",
"612 90 CURVE SMOOTH",
"612 660 LINE",
"580 686 OFFCURVE",
"543 702 OFFCURVE",
"502 702 CURVE SMOOTH",
"462 702 OFFCURVE",
"428 692 OFFCURVE",
"405 669 CURVE",
"372 691 OFFCURVE",
"335 702 OFFCURVE",
"291 702 CURVE SMOOTH",
"194 702 OFFCURVE",
"126 640 OFFCURVE",
"126 549 CURVE SMOOTH",
"126 493 LINE",
"36 493 LINE",
"36 483 LINE",
"126 483 LINE",
"126 0 LINE",
"136 0 LINE",
"136 483 LINE",
"364 483 LINE",
"364 0 LINE",
"374 0 LINE",
"374 483 LINE",
"505 483 LINE",
"505 493 LINE",
"374 493 LINE",
"374 539 LINE SMOOTH",
"374 656 OFFCURVE",
"423 692 OFFCURVE",
"502 692 CURVE SMOOTH",
"541 692 OFFCURVE",
"576 678 OFFCURVE",
"602 657 CURVE",
"602 90 LINE SMOOTH",
"602 24 OFFCURVE",
"625 -5 OFFCURVE",
"671 -5 CURVE SMOOTH"
);
},
{
closed = 1;
nodes = (
"136 549 LINE SMOOTH",
"136 635 OFFCURVE",
"198 692 OFFCURVE",
"291 692 CURVE SMOOTH",
"331 692 OFFCURVE",
"367 682 OFFCURVE",
"399 661 CURVE",
"377 635 OFFCURVE",
"364 596 OFFCURVE",
"364 539 CURVE SMOOTH",
"364 493 LINE",
"136 493 LINE"
);
}
);
width = 779;
},
{
anchors = (
{
name = caret_1;
position = "{327, 0}";
},
{
name = caret_2;
position = "{626, 0}";
}
);
layerId = "957254E3-B7AD-4837-9092-D4428001DE8E";
paths = (
{
closed = 1;
nodes = (
"847 -11 OFFCURVE",
"881 -7 OFFCURVE",
"910 5 CURVE",
"910 133 LINE",
"897 129 OFFCURVE",
"887 127 OFFCURVE",
"878 127 CURVE SMOOTH",
"859 127 OFFCURVE",
"850 136 OFFCURVE",
"850 161 CURVE SMOOTH",
"850 651 LINE",
"783 689 OFFCURVE",
"725 708 OFFCURVE",
"628 708 CURVE SMOOTH",
"572 708 OFFCURVE",
"516 692 OFFCURVE",
"475 664 CURVE",
"432 694 OFFCURVE",
"374 708 OFFCURVE",
"322 708 CURVE SMOOTH",
"207 708 OFFCURVE",
"102 642 OFFCURVE",
"102 522 CURVE SMOOTH",
"102 493 LINE",
"20 493 LINE",
"20 376 LINE",
"102 376 LINE",
"102 0 LINE",
"252 0 LINE",
"252 376 LINE",
"401 376 LINE",
"401 0 LINE",
"551 0 LINE",
"551 376 LINE",
"634 376 LINE",
"634 493 LINE",
"551 493 LINE",
"551 522 LINE SMOOTH",
"551 553 OFFCURVE",
"574 587 OFFCURVE",
"635 587 CURVE SMOOTH",
"656 587 OFFCURVE",
"674 586 OFFCURVE",
"700 579 CURVE",
"700 125 LINE SMOOTH",
"700 30 OFFCURVE",
"757 -11 OFFCURVE",
"826 -11 CURVE SMOOTH"
);
},
{
closed = 1;
nodes = (
"252 509 LINE SMOOTH",
"252 559 OFFCURVE",
"272 587 OFFCURVE",
"329 587 CURVE SMOOTH",
"362 587 OFFCURVE",
"387 578 OFFCURVE",
"404 569 CURVE",
"402 549 OFFCURVE",
"401 537 OFFCURVE",
"401 525 CURVE SMOOTH",
"401 493 LINE",
"252 493 LINE"
);
}
);
width = 938;
},
{
anchors = (
{
name = caret_1;
position = "{287, 0}";
},
{
name = caret_2;
position = "{557, 0}";
}
);
layerId = m003;
paths = (
{
closed = 1;
nodes = (
"770 -8 OFFCURVE",
"798 -3 OFFCURVE",
"820 5 CURVE",
"820 78 LINE",
"803 72 OFFCURVE",
"789 69 OFFCURVE",
"777 69 CURVE SMOOTH",
"748 69 OFFCURVE",
"734 87 OFFCURVE",
"734 128 CURVE SMOOTH",
"734 655 LINE",
"683 688 OFFCURVE",
"635 705 OFFCURVE",
"564 705 CURVE SMOOTH",
"517 705 OFFCURVE",
"471 693 OFFCURVE",
"438 667 CURVE",
"399 693 OFFCURVE",
"352 705 OFFCURVE",
"303 705 CURVE SMOOTH",
"196 705 OFFCURVE",
"109 641 OFFCURVE",
"109 535 CURVE SMOOTH",
"109 493 LINE",
"23 493 LINE",
"23 427 LINE",
"109 427 LINE",
"109 0 LINE",
"193 0 LINE",
"193 427 LINE",
"379 427 LINE",
"379 0 LINE",
"463 0 LINE",
"463 427 LINE",
"569 427 LINE",
"569 493 LINE",
"463 493 LINE",
"463 531 LINE SMOOTH",
"463 602 OFFCURVE",
"499 636 OFFCURVE",
"568 636 CURVE SMOOTH",
"600 636 OFFCURVE",
"625 629 OFFCURVE",
"649 616 CURVE",
"649 109 LINE SMOOTH",
"649 29 OFFCURVE",
"690 -8 OFFCURVE",
"749 -8 CURVE SMOOTH"
);
},
{
closed = 1;
nodes = (
"193 528 LINE SMOOTH",
"193 595 OFFCURVE",
"233 636 OFFCURVE",
"307 636 CURVE SMOOTH",
"342 636 OFFCURVE",
"374 627 OFFCURVE",
"397 612 CURVE",
"387 591 OFFCURVE",
"379 566 OFFCURVE",
"379 532 CURVE SMOOTH",
"379 493 LINE",
"193 493 LINE"
);
}
);
width = 849;
}
);
leftKerningGroup = f;
leftMetricsKey = f;
note = f_f_l;
rightKerningGroup = l;
rightMetricsKey = l;
},
{
glyphname = fi;
lastChange = "2021-03-07 19:58:54 +0000";
layers = (
{
anchors = (
{
name = caret_1;
position = "{251, 0}";
}
);
layerId = "F91D9E91-C1BC-4259-B0D8-112C0CBA2B8E";
paths = (
{
closed = 1;
nodes = (
"136 0 LINE",
"136 483 LINE",
"367 483 LINE",
"367 493 LINE",
"136 493 LINE",
"136 539 LINE SMOOTH",
"136 656 OFFCURVE",
"187 692 OFFCURVE",
"265 692 CURVE SMOOTH",
"305 692 OFFCURVE",
"339 678 OFFCURVE",
"367 654 CURVE",
"374 660 LINE",
"342 686 OFFCURVE",
"306 702 OFFCURVE",
"265 702 CURVE SMOOTH",
"184 702 OFFCURVE",
"126 661 OFFCURVE",
"126 539 CURVE SMOOTH",
"126 493 LINE",
"36 493 LINE",
"36 483 LINE",
"126 483 LINE",
"126 0 LINE"
);
},
{
closed = 1;
nodes = (
"376 0 LINE",
"376 493 LINE",
"366 493 LINE",
"366 0 LINE"
);
}
);
width = 466;
},
{
anchors = (
{
name = caret_1;
position = "{321, 0}";
}
);
layerId = "957254E3-B7AD-4837-9092-D4428001DE8E";
paths = (
{
closed = 1;
nodes = (
"252 0 LINE",
"252 376 LINE",
"444 376 LINE",
"445 493 LINE",
"252 493 LINE",
"252 512 LINE SMOOTH",
"252 553 OFFCURVE",
"275 587 OFFCURVE",
"337 587 CURVE SMOOTH",
"391 587 OFFCURVE",
"435 573 OFFCURVE",
"473 548 CURVE",
"543 655 LINE",
"485 689 OFFCURVE",
"425 708 OFFCURVE",
"329 708 CURVE SMOOTH",
"210 708 OFFCURVE",
"102 636 OFFCURVE",
"102 525 CURVE SMOOTH",
"102 493 LINE",
"20 493 LINE",
"20 376 LINE",
"102 376 LINE",
"102 0 LINE"
);
},
{
closed = 1;
nodes = (
"539 0 LINE",
"539 493 LINE",
"389 493 LINE",
"389 0 LINE"
);
}
);
width = 595;
},
{
anchors = (
{
name = caret_1;
position = "{284, 0}";
}
);
layerId = m003;
paths = (
{
closed = 1;
nodes = (
"193 0 LINE",
"193 427 LINE",
"404 427 LINE",
"404 493 LINE",
"193 493 LINE",
"193 525 LINE SMOOTH",
"193 602 OFFCURVE",
"230 636 OFFCURVE",
"299 636 CURVE SMOOTH",
"346 636 OFFCURVE",
"385 623 OFFCURVE",
"419 598 CURVE",
"459 658 LINE",
"414 688 OFFCURVE",
"364 705 OFFCURVE",
"295 705 CURVE SMOOTH",
"194 705 OFFCURVE",
"109 648 OFFCURVE",
"109 532 CURVE SMOOTH",
"109 493 LINE",
"23 493 LINE",
"23 427 LINE",
"109 427 LINE",
"109 0 LINE"
);
},
{
closed = 1;
nodes = (
"458 0 LINE",
"458 493 LINE",
"374 493 LINE",
"374 0 LINE"
);
}
);
width = 522;
}
);
leftKerningGroup = f;
leftMetricsKey = f;
note = fi;
rightKerningGroup = i;
rightMetricsKey = i;
unicode = FB01;
},
{
glyphname = fl;
lastChange = "2021-03-07 19:58:54 +0000";
layers = (
{
anchors = (
{
name = caret_1;
position = "{233, 0}";
}
);
layerId = "F91D9E91-C1BC-4259-B0D8-112C0CBA2B8E";
paths = (
{
closed = 1;
nodes = (
"422 -5 OFFCURVE",
"441 -1 OFFCURVE",
"463 5 CURVE",
"463 16 LINE",
"441 8 OFFCURVE",
"422 4 OFFCURVE",
"407 4 CURVE SMOOTH",
"368 4 OFFCURVE",
"347 30 OFFCURVE",
"347 90 CURVE SMOOTH",
"347 659 LINE",
"318 686 OFFCURVE",
"285 702 OFFCURVE",
"245 702 CURVE SMOOTH",
"171 702 OFFCURVE",
"119 661 OFFCURVE",
"119 539 CURVE SMOOTH",
"119 493 LINE",
"36 493 LINE",
"36 483 LINE",
"119 483 LINE",
"119 0 LINE",
"129 0 LINE",
"129 483 LINE",
"249 483 LINE",
"249 493 LINE",
"129 493 LINE",
"129 539 LINE SMOOTH",
"129 656 OFFCURVE",
"175 692 OFFCURVE",
"245 692 CURVE SMOOTH",
"281 692 OFFCURVE",
"312 679 OFFCURVE",
"337 655 CURVE",
"337 90 LINE SMOOTH",
"337 24 OFFCURVE",
"361 -5 OFFCURVE",
"406 -5 CURVE SMOOTH"
);
}
);
width = 515;
},
{
anchors = (
{
name = caret_1;
position = "{327, 0}";
}
);
layerId = "957254E3-B7AD-4837-9092-D4428001DE8E";
paths = (
{
closed = 1;
nodes = (
"548 -11 OFFCURVE",
"582 -7 OFFCURVE",
"613 5 CURVE",
"613 133 LINE",
"600 129 OFFCURVE",
"590 127 OFFCURVE",
"581 127 CURVE SMOOTH",
"562 127 OFFCURVE",
"553 136 OFFCURVE",
"553 152 CURVE SMOOTH",
"553 651 LINE",
"485 689 OFFCURVE",
"427 708 OFFCURVE",
"333 708 CURVE SMOOTH",
"212 708 OFFCURVE",
"102 635 OFFCURVE",
"102 525 CURVE SMOOTH",
"102 493 LINE",
"20 493 LINE",
"20 376 LINE",
"102 376 LINE",
"102 0 LINE",
"253 0 LINE",
"253 376 LINE",
"336 376 LINE",
"336 493 LINE",
"253 493 LINE",
"253 522 LINE SMOOTH",
"253 553 OFFCURVE",
"277 587 OFFCURVE",
"341 587 CURVE SMOOTH",
"358 587 OFFCURVE",
"376 586 OFFCURVE",
"401 579 CURVE",
"401 125 LINE SMOOTH",
"401 30 OFFCURVE",
"458 -11 OFFCURVE",
"527 -11 CURVE SMOOTH"
);
}
);
width = 641;
},
{
anchors = (
{
name = caret_1;
position = "{278, 0}";
}
);
layerId = m003;
paths = (
{
closed = 1;
nodes = (
"484 -8 OFFCURVE",
"510 -5 OFFCURVE",
"538 5 CURVE",
"538 78 LINE",
"521 72 OFFCURVE",
"507 69 OFFCURVE",
"495 69 CURVE SMOOTH",
"466 69 OFFCURVE",
"452 87 OFFCURVE",
"452 123 CURVE SMOOTH",
"452 655 LINE",
"402 688 OFFCURVE",
"355 705 OFFCURVE",
"287 705 CURVE SMOOTH",
"189 705 OFFCURVE",
"106 647 OFFCURVE",
"106 532 CURVE SMOOTH",
"106 493 LINE",
"23 493 LINE",
"23 427 LINE",
"106 427 LINE",
"106 0 LINE",
"190 0 LINE",
"190 427 LINE",
"290 427 LINE",
"290 493 LINE",
"190 493 LINE",
"190 531 LINE SMOOTH",
"190 601 OFFCURVE",
"225 636 OFFCURVE",
"292 636 CURVE SMOOTH",
"319 636 OFFCURVE",
"343 629 OFFCURVE",
"367 615 CURVE",
"367 109 LINE SMOOTH",
"367 28 OFFCURVE",
"408 -8 OFFCURVE",
"466 -8 CURVE SMOOTH"
);
}
);
width = 567;
}
);
leftKerningGroup = f;
leftMetricsKey = f;
note = fl;
rightKerningGroup = l;
rightMetricsKey = l;
unicode = FB02;
},
{
glyphname = ordfeminine;
lastChange = "2021-03-07 19:58:54 +0000";
layers = (
{
layerId = "F91D9E91-C1BC-4259-B0D8-112C0CBA2B8E";
paths = (
{
closed = 1;
nodes = (
"270 345 OFFCURVE",
"319 378 OFFCURVE",
"352 441 CURVE",
"352 349 LINE",
"362 349 LINE",
"362 565 LINE SMOOTH",
"362 655 OFFCURVE",
"316 702 OFFCURVE",
"232 702 CURVE SMOOTH",
"176 702 OFFCURVE",
"140 683 OFFCURVE",
"105 635 CURVE",
"113 629 LINE",
"143 672 OFFCURVE",
"179 692 OFFCURVE",
"232 692 CURVE SMOOTH",
"312 692 OFFCURVE",
"352 646 OFFCURVE",
"352 565 CURVE SMOOTH",
"352 558 OFFCURVE",
"352 551 OFFCURVE",
"352 543 CURVE",
"226 543 LINE SMOOTH",
"144 543 OFFCURVE",
"92 510 OFFCURVE",
"92 444 CURVE SMOOTH",
"92 384 OFFCURVE",
"137 345 OFFCURVE",
"206 345 CURVE SMOOTH"
);
},
{
closed = 1;
nodes = (
"146 355 OFFCURVE",
"102 388 OFFCURVE",
"102 444 CURVE SMOOTH",
"102 502 OFFCURVE",
"147 533 OFFCURVE",
"226 533 CURVE SMOOTH",
"352 533 LINE",
"352 508 OFFCURVE",
"352 485 OFFCURVE",
"352 462 CURVE",
"321 394 OFFCURVE",
"272 355 OFFCURVE",
"206 355 CURVE SMOOTH"
);
}
);
width = 477;
},
{
layerId = "957254E3-B7AD-4837-9092-D4428001DE8E";
paths = (
{
closed = 1;
nodes = (
"229 350 OFFCURVE",
"263 363 OFFCURVE",
"293 390 CURVE",
"295 359 LINE",
"372 359 LINE",
"372 567 LINE SMOOTH",
"372 650 OFFCURVE",
"316 708 OFFCURVE",
"222 708 CURVE SMOOTH",
"159 708 OFFCURVE",
"113 685 OFFCURVE",
"71 625 CURVE",
"138 580 LINE",
"154 602 OFFCURVE",
"178 630 OFFCURVE",
"225 630 CURVE SMOOTH",
"257 630 OFFCURVE",
"276 617 OFFCURVE",
"285 596 CURVE SMOOTH",
"288 589 OFFCURVE",
"289 581 OFFCURVE",
"289 570 CURVE",
"195 570 LINE SMOOTH",
"122 570 OFFCURVE",
"61 537 OFFCURVE",
"61 463 CURVE SMOOTH",
"61 393 OFFCURVE",
"117 350 OFFCURVE",
"189 350 CURVE SMOOTH"
);
},
{
closed = 1;
nodes = (
"170 429 OFFCURVE",
"154 444 OFFCURVE",
"154 461 CURVE SMOOTH",
"154 480 OFFCURVE",
"170 493 OFFCURVE",
"201 493 CURVE SMOOTH",
"289 493 LINE",
"286 477 OFFCURVE",
"281 464 OFFCURVE",
"273 454 CURVE SMOOTH",
"259 437 OFFCURVE",
"238 429 OFFCURVE",
"209 429 CURVE SMOOTH"
);
}
);
width = 456;
},
{
layerId = m003;
paths = (
{
closed = 1;
nodes = (
"264 348 OFFCURVE",
"306 370 OFFCURVE",
"338 415 CURVE",
"339 355 LINE",
"384 355 LINE",
"384 566 LINE SMOOTH",
"384 652 OFFCURVE",
"332 705 OFFCURVE",
"243 705 CURVE SMOOTH",
"184 705 OFFCURVE",
"142 684 OFFCURVE",
"104 630 CURVE",
"143 603 LINE",
"166 636 OFFCURVE",
"196 659 OFFCURVE",
"245 659 CURVE SMOOTH",
"299 659 OFFCURVE",
"328 631 OFFCURVE",
"334 581 CURVE SMOOTH",
"335 572 OFFCURVE",
"335 562 OFFCURVE",
"335 558 CURVE",
"226 558 LINE SMOOTH",
"150 558 OFFCURVE",
"92 525 OFFCURVE",
"92 455 CURVE SMOOTH",
"92 389 OFFCURVE",
"143 348 OFFCURVE",
"214 348 CURVE SMOOTH"
);
},
{
closed = 1;
nodes = (
"176 395 OFFCURVE",
"146 418 OFFCURVE",
"146 453 CURVE SMOOTH",
"146 490 OFFCURVE",
"176 512 OFFCURVE",
"229 512 CURVE SMOOTH",
"335 512 LINE",
"334 493 OFFCURVE",
"331 476 OFFCURVE",
"327 458 CURVE",
"304 416 OFFCURVE",
"269 395 OFFCURVE",
"225 395 CURVE SMOOTH"
);
}
);
width = 499;
}
);
leftKerningGroup = ordfeminine;
note = ordfeminine;
unicode = 00AA;
},
{
glyphname = ordmasculine;
lastChange = "2021-03-07 19:58:54 +0000";
layers = (
{
layerId = "F91D9E91-C1BC-4259-B0D8-112C0CBA2B8E";
paths = (
{
closed = 1;
nodes = (
"345 356 OFFCURVE",
"414 430 OFFCURVE",
"414 529 CURVE SMOOTH",
"414 627 OFFCURVE",
"344 702 OFFCURVE",
"254 702 CURVE SMOOTH",
"162 702 OFFCURVE",
"92 627 OFFCURVE",
"92 529 CURVE SMOOTH",
"92 430 OFFCURVE",
"162 356 OFFCURVE",
"254 356 CURVE SMOOTH"
);
},
{
closed = 1;
nodes = (
"167 366 OFFCURVE",
"102 435 OFFCURVE",
"102 529 CURVE SMOOTH",
"102 622 OFFCURVE",
"167 692 OFFCURVE",
"254 692 CURVE SMOOTH",
"339 692 OFFCURVE",
"404 622 OFFCURVE",
"404 529 CURVE SMOOTH",
"404 435 OFFCURVE",
"339 366 OFFCURVE",
"254 366 CURVE SMOOTH"
);
}
);
width = 507;
},
{
layerId = "957254E3-B7AD-4837-9092-D4428001DE8E";
paths = (
{
closed = 1;
nodes = (
"344 350 OFFCURVE",
"417 431 OFFCURVE",
"417 529 CURVE SMOOTH",
"417 626 OFFCURVE",
"344 708 OFFCURVE",
"238 708 CURVE SMOOTH",
"131 708 OFFCURVE",
"59 626 OFFCURVE",
"59 529 CURVE SMOOTH",
"59 432 OFFCURVE",
"130 350 OFFCURVE",
"238 350 CURVE SMOOTH"
);
},
{
closed = 1;
nodes = (
"174 432 OFFCURVE",
"156 477 OFFCURVE",
"156 529 CURVE SMOOTH",
"156 583 OFFCURVE",
"175 626 OFFCURVE",
"238 626 CURVE SMOOTH",
"301 626 OFFCURVE",
"320 583 OFFCURVE",
"320 529 CURVE SMOOTH",
"320 477 OFFCURVE",
"301 432 OFFCURVE",
"238 432 CURVE SMOOTH"
);
}
);
width = 477;
},
{
layerId = m003;
paths = (
{
closed = 1;
nodes = (
"362 353 OFFCURVE",
"433 431 OFFCURVE",
"433 529 CURVE SMOOTH",
"433 627 OFFCURVE",
"361 705 OFFCURVE",
"263 705 CURVE SMOOTH",
"164 705 OFFCURVE",
"92 626 OFFCURVE",
"92 529 CURVE SMOOTH",
"92 432 OFFCURVE",
"163 353 OFFCURVE",
"263 353 CURVE SMOOTH"
);
},
{
closed = 1;
nodes = (
"188 401 OFFCURVE",
"148 458 OFFCURVE",
"148 529 CURVE SMOOTH",
"148 601 OFFCURVE",
"189 658 OFFCURVE",
"263 658 CURVE SMOOTH",
"336 658 OFFCURVE",
"378 601 OFFCURVE",
"378 529 CURVE SMOOTH",
"378 458 OFFCURVE",
"337 401 OFFCURVE",
"263 401 CURVE SMOOTH"
);
}
);
width = 526;
}
);
leftKerningGroup = ordmasculine;
note = ordmasculine;
rightKerningGroup = ordmasculine;
unicode = 00BA;
},
{
color = 1;
glyphname = Delta;
lastChange = "2021-03-07 19:58:54 +0000";
layers = (
{
layerId = "F91D9E91-C1BC-4259-B0D8-112C0CBA2B8E";
paths = (
{
closed = 1;
nodes = (
"557 0 LINE",
"317 697 LINE",
"298 697 LINE",
"59 0 LINE"
);
},
{
closed = 1;
nodes = (
"308 691 LINE",
"542 10 LINE",
"74 10 LINE"
);
}
);
width = 616;
},
{
layerId = "957254E3-B7AD-4837-9092-D4428001DE8E";
paths = (
{
closed = 1;
nodes = (
"714 0 LINE",
"425 697 LINE",
"310 697 LINE",
"20 0 LINE"
);
},
{
closed = 1;
nodes = (
"368 463 LINE",
"489 144 LINE",
"246 144 LINE"
);
}
);
width = 733;
},
{
layerId = m003;
paths = (
{
closed = 1;
nodes = (
"660 0 LINE",
"395 697 LINE",
"324 697 LINE",
"59 0 LINE"
);
},
{
closed = 1;
nodes = (
"360 571 LINE",
"534 81 LINE",
"185 81 LINE"
);
}
);
width = 719;
}
);
leftKerningGroup = A;
rightKerningGroup = A;
unicode = 0394;
},
{
color = 1;
glyphname = pi;
lastChange = "2021-03-07 19:58:54 +0000";
layers = (
{
layerId = "F91D9E91-C1BC-4259-B0D8-112C0CBA2B8E";
paths = (
{
closed = 1;
nodes = (
"492 -5 OFFCURVE",
"502 -4 OFFCURVE",
"515 -1 CURVE",
"512 8 LINE",
"501 6 OFFCURVE",
"491 5 OFFCURVE",
"483 5 CURVE SMOOTH",
"412 5 OFFCURVE",
"384 47 OFFCURVE",
"384 155 CURVE SMOOTH",
"384 483 LINE",
"491 483 LINE",
"491 493 LINE",
"48 493 LINE",
"48 483 LINE",
"111 483 LINE",
"111 0 LINE",
"121 0 LINE",
"121 483 LINE",
"374 483 LINE",
"374 155 LINE SMOOTH",
"374 40 OFFCURVE",
"405 -5 OFFCURVE",
"483 -5 CURVE SMOOTH"
);
}
);
width = 534;
},
{
layerId = "957254E3-B7AD-4837-9092-D4428001DE8E";
paths = (
{
closed = 1;
nodes = (
"525 -11 OFFCURVE",
"551 -3 OFFCURVE",
"584 18 CURVE",
"560 140 LINE",
"550 133 OFFCURVE",
"537 128 OFFCURVE",
"525 128 CURVE SMOOTH",
"511 128 OFFCURVE",
"500 135 OFFCURVE",
"500 158 CURVE SMOOTH",
"500 367 LINE",
"560 367 LINE",
"560 493 LINE",
"30 493 LINE",
"30 367 LINE",
"93 367 LINE",
"93 0 LINE",
"243 0 LINE",
"243 367 LINE",
"350 367 LINE",
"350 107 LINE SMOOTH",
"350 31 OFFCURVE",
"399 -11 OFFCURVE",
"487 -11 CURVE SMOOTH"
);
}
);
width = 598;
},
{
layerId = m003;
paths = (
{
closed = 1;
nodes = (
"518 -8 OFFCURVE",
"538 -4 OFFCURVE",
"561 10 CURVE",
"546 78 LINE",
"537 74 OFFCURVE",
"526 70 OFFCURVE",
"514 70 CURVE SMOOTH",
"474 70 OFFCURVE",
"455 94 OFFCURVE",
"455 157 CURVE SMOOTH",
"455 422 LINE",
"537 422 LINE",
"537 493 LINE",
"48 493 LINE",
"48 422 LINE",
"111 422 LINE",
"111 0 LINE",
"195 0 LINE",
"195 422 LINE",
"371 422 LINE",
"371 130 LINE SMOOTH",
"371 36 OFFCURVE",
"411 -8 OFFCURVE",
"495 -8 CURVE SMOOTH"
);
}
);
width = 580;
}
);
note = pi;
unicode = 03C0;
},
{
color = 1;
glyphname = zero;
lastChange = "2021-03-07 19:58:54 +0000";
layers = (
{
layerId = "F91D9E91-C1BC-4259-B0D8-112C0CBA2B8E";
paths = (
{
closed = 1;
nodes = (
"412 -5 OFFCURVE",
"478 138 OFFCURVE",
"478 346 CURVE SMOOTH",
"478 557 OFFCURVE",
"411 703 OFFCURVE",
"278 703 CURVE SMOOTH",
"131 703 OFFCURVE",
"83 534 OFFCURVE",
"83 348 CURVE SMOOTH",
"83 165 OFFCURVE",
"132 -5 OFFCURVE",
"284 -5 CURVE SMOOTH"
);
},
{
closed = 1;
nodes = (
"141 5 OFFCURVE",
"93 166 OFFCURVE",
"93 348 CURVE SMOOTH",
"93 532 OFFCURVE",
"140 693 OFFCURVE",
"278 693 CURVE SMOOTH",
"404 693 OFFCURVE",
"468 555 OFFCURVE",
"468 346 CURVE SMOOTH",
"468 141 OFFCURVE",
"405 5 OFFCURVE",
"284 5 CURVE SMOOTH"
);
}
);
width = 560;
},
{
layerId = "957254E3-B7AD-4837-9092-D4428001DE8E";
paths = (
{
closed = 1;
nodes = (
"513 -10 OFFCURVE",
"533 212 OFFCURVE",
"533 353 CURVE SMOOTH",
"533 484 OFFCURVE",
"516 709 OFFCURVE",
"280 709 CURVE SMOOTH",
"45 709 OFFCURVE",
"27 486 OFFCURVE",
"27 353 CURVE SMOOTH",
"27 212 OFFCURVE",
"47 -10 OFFCURVE",
"280 -10 CURVE SMOOTH"
);
},
{
closed = 1;
nodes = (
"192 134 OFFCURVE",
"181 235 OFFCURVE",
"181 348 CURVE SMOOTH",
"181 466 OFFCURVE",
"192 564 OFFCURVE",
"280 564 CURVE SMOOTH",
"368 564 OFFCURVE",
"379 466 OFFCURVE",
"379 348 CURVE SMOOTH",
"379 235 OFFCURVE",
"368 134 OFFCURVE",
"280 134 CURVE SMOOTH"
);
}
);
width = 560;
},
{
layerId = m003;
paths = (
{
closed = 1;
nodes = (
"465 -8 OFFCURVE",
"507 178 OFFCURVE",
"507 350 CURVE SMOOTH",
"507 519 OFFCURVE",
"466 706 OFFCURVE",
"279 706 CURVE SMOOTH",
"85 706 OFFCURVE",
"53 508 OFFCURVE",
"53 351 CURVE SMOOTH",
"53 190 OFFCURVE",
"87 -8 OFFCURVE",
"282 -8 CURVE SMOOTH"
);
},
{
closed = 1;
nodes = (
"168 74 OFFCURVE",
"140 204 OFFCURVE",
"140 348 CURVE SMOOTH",
"140 498 OFFCURVE",
"168 625 OFFCURVE",
"279 625 CURVE SMOOTH",
"385 625 OFFCURVE",
"421 508 OFFCURVE",
"421 347 CURVE SMOOTH",
"421 193 OFFCURVE",
"386 74 OFFCURVE",
"282 74 CURVE SMOOTH"
);
}
);
width = 560;
}
);
leftKerningGroup = zero;
note = zero;
rightKerningGroup = zero;
unicode = 0030;
},
{
color = 1;
glyphname = one;
lastChange = "2021-03-07 19:58:54 +0000";
layers = (
{
layerId = "F91D9E91-C1BC-4259-B0D8-112C0CBA2B8E";
paths = (
{
closed = 1;
nodes = (
"337 0 LINE",
"337 697 LINE",
"327 697 LINE",
"327 619 LINE SMOOTH",
"327 591 OFFCURVE",
"313 581 OFFCURVE",
"284 581 CURVE SMOOTH",
"139 581 LINE",
"139 571 LINE",
"334 571 LINE",
"327 581 LINE",
"327 0 LINE"
);
}
);
width = 560;
},
{
layerId = "957254E3-B7AD-4837-9092-D4428001DE8E";
paths = (
{
closed = 1;
nodes = (
"409 0 LINE",
"409 697 LINE",
"258 697 LINE",
"258 665 LINE SMOOTH",
"258 609 OFFCURVE",
"231 590 OFFCURVE",
"181 590 CURVE SMOOTH",
"82 590 LINE",
"82 471 LINE",
"301 471 LINE",
"258 544 LINE",
"258 0 LINE"
);
}
);
width = 560;
},
{
layerId = m003;
paths = (
{
closed = 1;
nodes = (
"376 0 LINE",
"376 697 LINE",
"291 697 LINE",
"291 644 LINE SMOOTH",
"291 601 OFFCURVE",
"270 586 OFFCURVE",
"230 586 CURVE SMOOTH",
"109 586 LINE",
"109 518 LINE",
"317 518 LINE",
"291 562 LINE",
"291 0 LINE"
);
}
);
width = 560;
}
);
leftKerningGroup = one;
note = one;
rightKerningGroup = one;
unicode = 0031;
},
{
color = 1;
glyphname = two;
lastChange = "2021-03-07 19:58:54 +0000";
layers = (
{
layerId = "F91D9E91-C1BC-4259-B0D8-112C0CBA2B8E";
paths = (
{
closed = 1;
nodes = (
"499 0 LINE",
"499 10 LINE",
"74 10 LINE",
"74 18 LINE",
"220 142 OFFCURVE",
"470 297 OFFCURVE",
"470 509 CURVE SMOOTH",
"470 628 OFFCURVE",
"396 702 OFFCURVE",
"275 702 CURVE SMOOTH",
"145 702 OFFCURVE",
"72 622 OFFCURVE",
"72 482 CURVE",
"82 482 LINE",
"82 616 OFFCURVE",
"152 692 OFFCURVE",
"275 692 CURVE SMOOTH",
"390 692 OFFCURVE",
"460 623 OFFCURVE",
"460 509 CURVE SMOOTH",
"460 301 OFFCURVE",
"212 148 OFFCURVE",
"64 24 CURVE",
"64 0 LINE"
);
}
);
width = 560;
},
{
layerId = "957254E3-B7AD-4837-9092-D4428001DE8E";
paths = (
{
closed = 1;
nodes = (
"528 0 LINE",
"528 140 LINE",
"196 140 LINE",
"156 76 LINE",
"370 163 OFFCURVE",
"501 310 OFFCURVE",
"501 476 CURVE SMOOTH",
"501 614 OFFCURVE",
"406 705 OFFCURVE",
"276 705 CURVE SMOOTH",
"114 705 OFFCURVE",
"27 566 OFFCURVE",
"27 444 CURVE",
"175 432 LINE",
"179 486 OFFCURVE",
"196 559 OFFCURVE",
"272 559 CURVE SMOOTH",
"329 559 OFFCURVE",
"351 519 OFFCURVE",
"351 471 CURVE SMOOTH",
"351 322 OFFCURVE",
"135 179 OFFCURVE",
"36 110 CURVE",
"36 0 LINE"
);
}
);
width = 560;
},
{
layerId = m003;
paths = (
{
closed = 1;
nodes = (
"513 0 LINE",
"513 79 LINE",
"138 79 LINE",
"116 49 LINE",
"298 153 OFFCURVE",
"485 304 OFFCURVE",
"485 492 CURVE SMOOTH",
"485 620 OFFCURVE",
"400 704 OFFCURVE",
"275 704 CURVE SMOOTH",
"128 704 OFFCURVE",
"47 592 OFFCURVE",
"47 462 CURVE",
"130 456 LINE",
"132 551 OFFCURVE",
"177 622 OFFCURVE",
"272 622 CURVE SMOOTH",
"357 622 OFFCURVE",
"402 568 OFFCURVE",
"402 489 CURVE SMOOTH",
"402 311 OFFCURVE",
"166 162 OFFCURVE",
"48 70 CURVE",
"48 0 LINE"
);
}
);
width = 560;
}
);
leftKerningGroup = two;
note = two;
rightKerningGroup = two;
unicode = 0032;
},
{
color = 1;
glyphname = three;
lastChange = "2021-03-07 19:58:54 +0000";
layers = (
{
layerId = "F91D9E91-C1BC-4259-B0D8-112C0CBA2B8E";
paths = (
{
closed = 1;
nodes = (
"410 -5 OFFCURVE",
"502 73 OFFCURVE",
"502 190 CURVE SMOOTH",
"502 322 OFFCURVE",
"382 365 OFFCURVE",
"291 370 CURVE",
"365 377 OFFCURVE",
"466 414 OFFCURVE",
"466 534 CURVE SMOOTH",
"466 631 OFFCURVE",
"384 702 OFFCURVE",
"273 702 CURVE SMOOTH",
"158 702 OFFCURVE",
"79 631 OFFCURVE",
"79 525 CURVE",
"89 525 LINE",
"89 625 OFFCURVE",
"163 692 OFFCURVE",
"273 692 CURVE SMOOTH",
"379 692 OFFCURVE",
"456 625 OFFCURVE",
"456 534 CURVE SMOOTH",
"456 401 OFFCURVE",
"323 374 OFFCURVE",
"228 375 CURVE",
"228 365 LINE",
"350 364 OFFCURVE",
"492 332 OFFCURVE",
"492 190 CURVE SMOOTH",
"492 79 OFFCURVE",
"405 5 OFFCURVE",
"275 5 CURVE SMOOTH",
"141 5 OFFCURVE",
"56 78 OFFCURVE",
"56 195 CURVE",
"46 195 LINE",
"46 73 OFFCURVE",
"135 -5 OFFCURVE",
"275 -5 CURVE SMOOTH"
);
}
);
width = 560;
},
{
layerId = "957254E3-B7AD-4837-9092-D4428001DE8E";
paths = (
{
closed = 1;
nodes = (
"433 -10 OFFCURVE",
"541 83 OFFCURVE",
"541 219 CURVE SMOOTH",
"541 294 OFFCURVE",
"503 351 OFFCURVE",
"433 381 CURVE",
"476 409 OFFCURVE",
"500 456 OFFCURVE",
"500 512 CURVE SMOOTH",
"500 627 OFFCURVE",
"409 707 OFFCURVE",
"278 707 CURVE SMOOTH",
"138 707 OFFCURVE",
"37 617 OFFCURVE",
"37 493 CURVE",
"186 483 LINE",
"187 533 OFFCURVE",
"219 563 OFFCURVE",
"273 563 CURVE SMOOTH",
"321 563 OFFCURVE",
"349 539 OFFCURVE",
"349 496 CURVE SMOOTH",
"349 446 OFFCURVE",
"313 422 OFFCURVE",
"241 422 CURVE",
"241 304 LINE",
"345 304 OFFCURVE",
"390 279 OFFCURVE",
"390 220 CURVE SMOOTH",
"390 165 OFFCURVE",
"350 134 OFFCURVE",
"279 134 CURVE SMOOTH",
"205 134 OFFCURVE",
"157 174 OFFCURVE",
"157 236 CURVE",
"7 227 LINE",
"7 85 OFFCURVE",
"114 -10 OFFCURVE",
"274 -10 CURVE SMOOTH"
);
}
);
width = 560;
},
{
layerId = m003;
paths = (
{
closed = 1;
nodes = (
"422 -8 OFFCURVE",
"523 79 OFFCURVE",
"523 205 CURVE SMOOTH",
"523 307 OFFCURVE",
"447 358 OFFCURVE",
"367 376 CURVE",
"432 397 OFFCURVE",
"485 443 OFFCURVE",
"485 522 CURVE SMOOTH",
"485 629 OFFCURVE",
"398 705 OFFCURVE",
"277 705 CURVE SMOOTH",
"149 705 OFFCURVE",
"58 624 OFFCURVE",
"58 508 CURVE",
"141 503 LINE",
"142 574 OFFCURVE",
"191 624 OFFCURVE",
"274 624 CURVE SMOOTH",
"349 624 OFFCURVE",
"400 580 OFFCURVE",
"400 514 CURVE SMOOTH",
"400 426 OFFCURVE",
"319 399 OFFCURVE",
"236 400 CURVE",
"236 333 LINE",
"348 333 OFFCURVE",
"439 304 OFFCURVE",
"439 206 CURVE SMOOTH",
"439 125 OFFCURVE",
"377 74 OFFCURVE",
"278 74 CURVE SMOOTH",
"176 74 OFFCURVE",
"110 129 OFFCURVE",
"110 217 CURVE",
"26 212 LINE",
"26 80 OFFCURVE",
"125 -8 OFFCURVE",
"275 -8 CURVE SMOOTH"
);
}
);
width = 560;
}
);
leftKerningGroup = three;
note = three;
rightKerningGroup = three;
unicode = 0033;
},
{
color = 1;
glyphname = four;
lastChange = "2021-03-07 20:02:28 +0000";
layers = (
{
layerId = "F91D9E91-C1BC-4259-B0D8-112C0CBA2B8E";
paths = (
{
closed = 1;
nodes = (
"417 0 LINE",
"417 169 LINE",
"533 169 LINE",
"533 179 LINE",
"417 179 LINE",
"417 697 LINE",
"399 697 LINE",
"31 183 LINE",
"31 169 LINE",
"407 169 LINE",
"407 0 LINE"
);
},
{
closed = 1;
nodes = (
"405 687 LINE",
"407 687 LINE",
"407 179 LINE",
"37 179 LINE",
"38 175 LINE"
);
}
);
width = 560;
},
{
layerId = "957254E3-B7AD-4837-9092-D4428001DE8E";
paths = (
{
closed = 1;
nodes = (
"446 0 LINE",
"446 163 LINE",
"556 163 LINE",
"556 303 LINE",
"446 303 LINE",
"446 697 LINE",
"316 697 LINE",
"3 278 LINE",
"3 163 LINE",
"295 163 LINE",
"295 0 LINE"
);
},
{
closed = 1;
nodes = (
"316 532 LINE",
"295 556 LINE",
"295 303 LINE",
"118 303 LINE",
"117 251 LINE"
);
}
);
width = 560;
},
{
layerId = m003;
paths = (
{
closed = 1;
nodes = (
"433 0 LINE",
"433 166 LINE",
"545 166 LINE",
"545 245 LINE",
"433 245 LINE",
"433 697 LINE",
"355 697 LINE",
"16 233 LINE",
"16 166 LINE",
"348 166 LINE",
"348 0 LINE"
);
},
{
closed = 1;
nodes = (
"358 595 LINE",
"348 602 LINE",
"348 245 LINE",
"80 245 LINE",
"87 215 LINE"
);
}
);
width = 560;
}
);
leftKerningGroup = four;
note = four;
rightKerningGroup = four;
unicode = 0034;
},
{
color = 1;
glyphname = five;
lastChange = "2021-03-07 19:58:54 +0000";
layers = (
{
layerId = "F91D9E91-C1BC-4259-B0D8-112C0CBA2B8E";
paths = (
{
closed = 1;
nodes = (
"408 -5 OFFCURVE",
"506 97 OFFCURVE",
"506 228 CURVE SMOOTH",
"506 357 OFFCURVE",
"416 452 OFFCURVE",
"294 452 CURVE SMOOTH",
"219 452 OFFCURVE",
"150 415 OFFCURVE",
"100 349 CURVE",
"95 353 LINE",
"151 691 LINE",
"146 687 LINE",
"471 687 LINE",
"471 697 LINE",
"142 697 LINE",
"83 346 LINE",
"104 337 LINE",
"152 405 OFFCURVE",
"220 441 OFFCURVE",
"294 441 CURVE SMOOTH",
"410 441 OFFCURVE",
"496 352 OFFCURVE",
"496 228 CURVE SMOOTH",
"496 102 OFFCURVE",
"402 5 OFFCURVE",
"280 5 CURVE SMOOTH",
"176 5 OFFCURVE",
"94 75 OFFCURVE",
"70 185 CURVE",
"60 183 LINE",
"86 68 OFFCURVE",
"171 -5 OFFCURVE",
"280 -5 CURVE SMOOTH"
);
}
);
width = 560;
},
{
layerId = "957254E3-B7AD-4837-9092-D4428001DE8E";
paths = (
{
closed = 1;
nodes = (
"431 -11 OFFCURVE",
"539 114 OFFCURVE",
"539 247 CURVE SMOOTH",
"539 373 OFFCURVE",
"441 487 OFFCURVE",
"295 487 CURVE SMOOTH",
"256 487 OFFCURVE",
"202 481 OFFCURVE",
"150 425 CURVE",
"200 411 LINE",
"241 620 LINE",
"161 557 LINE",
"509 557 LINE",
"509 697 LINE",
"105 697 LINE",
"35 326 LINE",
"174 292 LINE",
"190 319 OFFCURVE",
"220 346 OFFCURVE",
"274 346 CURVE SMOOTH",
"354 346 OFFCURVE",
"379 296 OFFCURVE",
"379 247 CURVE SMOOTH",
"379 195 OFFCURVE",
"353 133 OFFCURVE",
"274 133 CURVE SMOOTH",
"197 133 OFFCURVE",
"165 190 OFFCURVE",
"163 231 CURVE",
"15 206 LINE",
"30 86 OFFCURVE",
"138 -11 OFFCURVE",
"276 -11 CURVE SMOOTH"
);
}
);
width = 560;
},
{
layerId = m003;
paths = (
{
closed = 1;
nodes = (
"420 -8 OFFCURVE",
"523 106 OFFCURVE",
"523 239 CURVE SMOOTH",
"523 365 OFFCURVE",
"429 471 OFFCURVE",
"295 471 CURVE SMOOTH",
"237 471 OFFCURVE",
"178 450 OFFCURVE",
"126 389 CURVE",
"150 384 LINE",
"199 654 LINE",
"154 618 LINE",
"491 618 LINE",
"491 697 LINE",
"123 697 LINE",
"58 336 LINE",
"141 313 LINE",
"175 363 OFFCURVE",
"224 391 OFFCURVE",
"283 391 CURVE SMOOTH",
"380 391 OFFCURVE",
"434 323 OFFCURVE",
"434 239 CURVE SMOOTH",
"434 152 OFFCURVE",
"376 73 OFFCURVE",
"277 73 CURVE SMOOTH",
"190 73 OFFCURVE",
"132 133 OFFCURVE",
"119 210 CURVE",
"36 195 LINE",
"57 76 OFFCURVE",
"155 -8 OFFCURVE",
"278 -8 CURVE SMOOTH"
);
}
);
width = 560;
}
);
leftKerningGroup = five;
note = five;
rightKerningGroup = five;
unicode = 0035;
},
{
color = 1;
glyphname = seven;
lastChange = "2021-03-07 19:58:54 +0000";
layers = (
{
layerId = "F91D9E91-C1BC-4259-B0D8-112C0CBA2B8E";
paths = (
{
closed = 1;
nodes = (
"150 0 LINE",
"524 679 LINE",
"524 697 LINE",
"30 697 LINE",
"30 687 LINE",
"514 687 LINE",
"514 681 LINE",
"139 0 LINE"
);
}
);
width = 560;
},
{
layerId = "957254E3-B7AD-4837-9092-D4428001DE8E";
paths = (
{
closed = 1;
nodes = (
"243 0 LINE",
"533 589 LINE",
"533 697 LINE",
"28 697 LINE",
"28 557 LINE",
"426 557 LINE",
"383 617 LINE",
"75 0 LINE"
);
}
);
width = 560;
},
{
layerId = m003;
paths = (
{
closed = 1;
nodes = (
"198 0 LINE",
"528 632 LINE",
"528 697 LINE",
"28 697 LINE",
"28 618 LINE",
"467 618 LINE",
"444 648 LINE",
"104 0 LINE"
);
}
);
width = 560;
}
);
leftKerningGroup = seven;
note = seven;
rightKerningGroup = seven;
unicode = 0037;
},
{
color = 1;
glyphname = eight;
lastChange = "2021-03-07 19:58:54 +0000";
layers = (
{
layerId = "F91D9E91-C1BC-4259-B0D8-112C0CBA2B8E";
paths = (
{
closed = 1;
nodes = (
"384 -5 OFFCURVE",
"488 60 OFFCURVE",
"488 190 CURVE SMOOTH",
"488 288 OFFCURVE",
"424 361 OFFCURVE",
"328 379 CURVE",
"400 397 OFFCURVE",
"448 458 OFFCURVE",
"448 535 CURVE SMOOTH",
"448 633 OFFCURVE",
"380 702 OFFCURVE",
"282 702 CURVE SMOOTH",
"202 702 OFFCURVE",
"115 645 OFFCURVE",
"115 543 CURVE SMOOTH",
"115 460 OFFCURVE",
"162 398 OFFCURVE",
"233 379 CURVE",
"135 362 OFFCURVE",
"70 289 OFFCURVE",
"70 190 CURVE SMOOTH",
"70 60 OFFCURVE",
"177 -5 OFFCURVE",
"280 -5 CURVE SMOOTH"
);
},
{
closed = 1;
nodes = (
"179 5 OFFCURVE",
"80 66 OFFCURVE",
"80 190 CURVE SMOOTH",
"80 298 OFFCURVE",
"162 373 OFFCURVE",
"280 373 CURVE SMOOTH",
"396 373 OFFCURVE",
"478 298 OFFCURVE",
"478 190 CURVE SMOOTH",
"478 66 OFFCURVE",
"382 5 OFFCURVE",
"280 5 CURVE SMOOTH"
);
},
{
closed = 1;
nodes = (
"189 383 OFFCURVE",
"125 447 OFFCURVE",
"125 543 CURVE SMOOTH",
"125 639 OFFCURVE",
"204 692 OFFCURVE",
"282 692 CURVE SMOOTH",
"374 692 OFFCURVE",
"438 628 OFFCURVE",
"438 535 CURVE SMOOTH",
"438 447 OFFCURVE",
"373 383 OFFCURVE",
"283 383 CURVE SMOOTH"
);
}
);
width = 560;
},
{
layerId = "957254E3-B7AD-4837-9092-D4428001DE8E";
paths = (
{
closed = 1;
nodes = (
"423 -11 OFFCURVE",
"551 62 OFFCURVE",
"551 211 CURVE SMOOTH",
"551 279 OFFCURVE",
"526 338 OFFCURVE",
"467 379 CURVE",
"500 409 OFFCURVE",
"518 446 OFFCURVE",
"518 500 CURVE SMOOTH",
"518 630 OFFCURVE",
"406 708 OFFCURVE",
"280 708 CURVE SMOOTH",
"154 708 OFFCURVE",
"40 630 OFFCURVE",
"40 500 CURVE SMOOTH",
"40 446 OFFCURVE",
"60 409 OFFCURVE",
"93 379 CURVE",
"34 338 OFFCURVE",
"9 279 OFFCURVE",
"9 211 CURVE SMOOTH",
"9 62 OFFCURVE",
"137 -11 OFFCURVE",
"280 -11 CURVE SMOOTH"
);
},
{
closed = 1;
nodes = (
"209 132 OFFCURVE",
"160 164 OFFCURVE",
"160 226 CURVE SMOOTH",
"160 288 OFFCURVE",
"210 319 OFFCURVE",
"280 319 CURVE SMOOTH",
"350 319 OFFCURVE",
"400 288 OFFCURVE",
"400 226 CURVE SMOOTH",
"400 164 OFFCURVE",
"351 132 OFFCURVE",
"280 132 CURVE SMOOTH"
);
},
{
closed = 1;
nodes = (
"227 421 OFFCURVE",
"191 447 OFFCURVE",
"191 490 CURVE SMOOTH",
"191 535 OFFCURVE",
"224 564 OFFCURVE",
"280 564 CURVE SMOOTH",
"336 564 OFFCURVE",
"369 535 OFFCURVE",
"369 490 CURVE SMOOTH",
"369 447 OFFCURVE",
"333 421 OFFCURVE",
"280 421 CURVE SMOOTH"
);
}
);
width = 560;
},
{
layerId = m003;
paths = (
{
closed = 1;
nodes = (
"405 -8 OFFCURVE",
"522 62 OFFCURVE",
"522 201 CURVE SMOOTH",
"522 283 OFFCURVE",
"478 349 OFFCURVE",
"401 379 CURVE",
"453 404 OFFCURVE",
"485 452 OFFCURVE",
"485 517 CURVE SMOOTH",
"485 632 OFFCURVE",
"393 705 OFFCURVE",
"281 705 CURVE SMOOTH",
"177 705 OFFCURVE",
"75 637 OFFCURVE",
"75 520 CURVE SMOOTH",
"75 454 OFFCURVE",
"108 404 OFFCURVE",
"159 379 CURVE",
"82 349 OFFCURVE",
"38 284 OFFCURVE",
"38 201 CURVE SMOOTH",
"38 62 OFFCURVE",
"156 -8 OFFCURVE",
"280 -8 CURVE SMOOTH"
);
},
{
closed = 1;
nodes = (
"196 72 OFFCURVE",
"122 118 OFFCURVE",
"122 209 CURVE SMOOTH",
"122 293 OFFCURVE",
"188 345 OFFCURVE",
"280 345 CURVE SMOOTH",
"372 345 OFFCURVE",
"437 292 OFFCURVE",
"437 209 CURVE SMOOTH",
"437 118 OFFCURVE",
"365 72 OFFCURVE",
"280 72 CURVE SMOOTH"
);
},
{
closed = 1;
nodes = (
"210 403 OFFCURVE",
"160 447 OFFCURVE",
"160 515 CURVE SMOOTH",
"160 584 OFFCURVE",
"215 625 OFFCURVE",
"281 625 CURVE SMOOTH",
"354 625 OFFCURVE",
"401 579 OFFCURVE",
"401 511 CURVE SMOOTH",
"401 447 OFFCURVE",
"351 403 OFFCURVE",
"282 403 CURVE SMOOTH"
);
}
);
width = 560;
}
);
leftKerningGroup = eight;
note = eight;
rightKerningGroup = three;
unicode = 0038;
},
{
color = 1;
glyphname = nine;
lastChange = "2021-03-07 19:58:54 +0000";
layers = (
{
layerId = "F91D9E91-C1BC-4259-B0D8-112C0CBA2B8E";
paths = (
{
closed = 1;
nodes = (
"252 0 LINE",
"463 366 LINE SMOOTH",
"483 401 OFFCURVE",
"497 436 OFFCURVE",
"497 485 CURVE SMOOTH",
"497 604 OFFCURVE",
"399 702 OFFCURVE",
"279 702 CURVE SMOOTH",
"158 702 OFFCURVE",
"61 603 OFFCURVE",
"61 484 CURVE SMOOTH",
"61 364 OFFCURVE",
"160 265 OFFCURVE",
"279 265 CURVE SMOOTH",
"337 265 OFFCURVE",
"389 288 OFFCURVE",
"429 324 CURVE",
"429 326 LINE",
"242 0 LINE"
);
},
{
closed = 1;
nodes = (
"165 275 OFFCURVE",
"71 369 OFFCURVE",
"71 483 CURVE SMOOTH",
"71 598 OFFCURVE",
"165 692 OFFCURVE",
"279 692 CURVE SMOOTH",
"394 692 OFFCURVE",
"487 599 OFFCURVE",
"487 484 CURVE SMOOTH",
"487 368 OFFCURVE",
"392 275 OFFCURVE",
"279 275 CURVE SMOOTH"
);
}
);
width = 560;
},
{
layerId = "957254E3-B7AD-4837-9092-D4428001DE8E";
paths = (
{
closed = 1;
nodes = (
"297 0 LINE",
"504 326 LINE SMOOTH",
"530 367 OFFCURVE",
"544 414 OFFCURVE",
"544 460 CURVE SMOOTH",
"544 606 OFFCURVE",
"424 708 OFFCURVE",
"279 708 CURVE SMOOTH",
"136 708 OFFCURVE",
"16 607 OFFCURVE",
"16 459 CURVE SMOOTH",
"16 323 OFFCURVE",
"120 220 OFFCURVE",
"258 220 CURVE SMOOTH",
"275 220 OFFCURVE",
"293 222 OFFCURVE",
"311 225 CURVE",
"292 249 LINE",
"123 0 LINE"
);
},
{
closed = 1;
nodes = (
"217 353 OFFCURVE",
"169 392 OFFCURVE",
"169 459 CURVE SMOOTH",
"169 526 OFFCURVE",
"218 564 OFFCURVE",
"279 564 CURVE SMOOTH",
"341 564 OFFCURVE",
"390 526 OFFCURVE",
"390 459 CURVE SMOOTH",
"390 391 OFFCURVE",
"341 353 OFFCURVE",
"279 353 CURVE SMOOTH"
);
}
);
width = 560;
},
{
layerId = m003;
paths = (
{
closed = 1;
nodes = (
"275 0 LINE",
"484 345 LINE SMOOTH",
"507 383 OFFCURVE",
"522 427 OFFCURVE",
"522 472 CURVE SMOOTH",
"522 605 OFFCURVE",
"412 705 OFFCURVE",
"279 705 CURVE SMOOTH",
"146 705 OFFCURVE",
"37 605 OFFCURVE",
"37 471 CURVE SMOOTH",
"37 343 OFFCURVE",
"138 241 OFFCURVE",
"268 241 CURVE SMOOTH",
"301 241 OFFCURVE",
"336 252 OFFCURVE",
"366 272 CURVE",
"356 285 LINE",
"178 0 LINE"
);
},
{
closed = 1;
nodes = (
"192 316 OFFCURVE",
"123 382 OFFCURVE",
"123 470 CURVE SMOOTH",
"123 560 OFFCURVE",
"193 625 OFFCURVE",
"279 625 CURVE SMOOTH",
"365 625 OFFCURVE",
"435 560 OFFCURVE",
"435 471 CURVE SMOOTH",
"435 381 OFFCURVE",
"364 316 OFFCURVE",
"279 316 CURVE SMOOTH"
);
}
);
width = 560;
}
);
leftKerningGroup = nine;
note = nine;
rightKerningGroup = nine;
unicode = 0039;
},
{
color = 1;
glyphname = zero.lf;
lastChange = "2021-03-07 19:58:54 +0000";
layers = (
{
layerId = "F91D9E91-C1BC-4259-B0D8-112C0CBA2B8E";
paths = (
{
closed = 1;
nodes = (
"398 -5 OFFCURVE",
"464 138 OFFCURVE",
"464 346 CURVE SMOOTH",
"464 557 OFFCURVE",
"397 703 OFFCURVE",
"264 703 CURVE SMOOTH",
"117 703 OFFCURVE",
"69 534 OFFCURVE",
"69 348 CURVE SMOOTH",
"69 165 OFFCURVE",
"118 -5 OFFCURVE",
"270 -5 CURVE SMOOTH"
);
},
{
closed = 1;
nodes = (
"127 5 OFFCURVE",
"79 166 OFFCURVE",
"79 348 CURVE SMOOTH",
"79 532 OFFCURVE",
"126 693 OFFCURVE",
"264 693 CURVE SMOOTH",
"390 693 OFFCURVE",
"454 555 OFFCURVE",
"454 346 CURVE SMOOTH",
"454 141 OFFCURVE",
"391 5 OFFCURVE",
"270 5 CURVE SMOOTH"
);
}
);
width = 532;
},
{
layerId = "957254E3-B7AD-4837-9092-D4428001DE8E";
paths = (
{
closed = 1;
nodes = (
"535 -10 OFFCURVE",
"555 212 OFFCURVE",
"555 353 CURVE SMOOTH",
"555 484 OFFCURVE",
"538 709 OFFCURVE",
"302 709 CURVE SMOOTH",
"67 709 OFFCURVE",
"49 486 OFFCURVE",
"49 353 CURVE SMOOTH",
"49 212 OFFCURVE",
"69 -10 OFFCURVE",
"302 -10 CURVE SMOOTH"
);
},
{
closed = 1;
nodes = (
"214 134 OFFCURVE",
"203 235 OFFCURVE",
"203 348 CURVE SMOOTH",
"203 466 OFFCURVE",
"214 564 OFFCURVE",
"302 564 CURVE SMOOTH",
"390 564 OFFCURVE",
"401 466 OFFCURVE",
"401 348 CURVE SMOOTH",
"401 235 OFFCURVE",
"390 134 OFFCURVE",
"302 134 CURVE SMOOTH"
);
}
);
width = 604;
},
{
layerId = m003;
paths = (
{
closed = 1;
nodes = (
"481 -8 OFFCURVE",
"522 178 OFFCURVE",
"522 350 CURVE SMOOTH",
"522 519 OFFCURVE",
"481 706 OFFCURVE",
"295 706 CURVE SMOOTH",
"101 706 OFFCURVE",
"69 508 OFFCURVE",
"69 351 CURVE SMOOTH",
"69 190 OFFCURVE",
"103 -8 OFFCURVE",
"297 -8 CURVE SMOOTH"
);
},
{
closed = 1;
nodes = (
"183 74 OFFCURVE",
"155 204 OFFCURVE",
"155 348 CURVE SMOOTH",
"155 498 OFFCURVE",
"183 625 OFFCURVE",
"295 625 CURVE SMOOTH",
"400 625 OFFCURVE",
"436 508 OFFCURVE",
"436 347 CURVE SMOOTH",
"436 193 OFFCURVE",
"401 74 OFFCURVE",
"297 74 CURVE SMOOTH"
);
}
);
width = 591;
}
);
leftKerningGroup = zero;
note = zero;
rightKerningGroup = zero;
},
